<svg width="1929" height="1240" viewBox="0 0 1929 1240" fill="none" xmlns="http://www.w3.org/2000/svg">
<mask id="mask0_59_334" style="mask-type:luminance" maskUnits="userSpaceOnUse" x="104" y="18" width="1729" height="1122">
<path d="M1832.12 18.0371H104.12V1139.04H1832.12V18.0371Z" fill="white"/>
</mask>
<g mask="url(#mask0_59_334)">
<mask id="mask1_59_334" style="mask-type:luminance" maskUnits="userSpaceOnUse" x="254" y="630" width="343" height="334">
<path d="M425.784 963.466C520.183 963.466 596.708 889 596.708 797.141C596.708 705.282 520.183 630.816 425.784 630.816C331.385 630.816 254.859 705.282 254.859 797.141C254.859 889 331.385 963.466 425.784 963.466Z" fill="white"/>
</mask>
<g mask="url(#mask1_59_334)">
<path d="M471.373 519.093L136.487 791.809L136.779 792.148L471.665 519.432L471.373 519.093Z" fill="#F0FFF0"/>
<path d="M485.673 535.779L150.787 808.495L151.078 808.834L485.964 536.118L485.673 535.779Z" fill="#F0FFF0"/>
<path d="M499.992 552.43L165.106 825.146L165.398 825.485L500.284 552.769L499.992 552.43Z" fill="#F0FFF0"/>
<path d="M514.313 569.081L179.427 841.797L179.718 842.136L514.604 569.419L514.313 569.081Z" fill="#F0FFF0"/>
<path d="M528.633 585.731L193.747 858.447L194.038 858.785L528.924 586.069L528.633 585.731Z" fill="#F0FFF0"/>
<path d="M542.953 602.381L208.067 875.098L208.359 875.436L543.245 602.72L542.953 602.381Z" fill="#F0FFF0"/>
<path d="M557.275 619.031L222.389 891.747L222.68 892.086L557.566 619.37L557.275 619.031Z" fill="#F0FFF0"/>
<path d="M571.595 635.684L236.709 908.4L237 908.739L571.886 636.022L571.595 635.684Z" fill="#F0FFF0"/>
<path d="M585.914 652.332L251.028 925.048L251.32 925.387L586.206 652.671L585.914 652.332Z" fill="#F0FFF0"/>
<path d="M600.237 668.984L265.351 941.7L265.642 942.039L600.528 669.323L600.237 668.984Z" fill="#F0FFF0"/>
<path d="M614.558 685.633L279.672 958.35L279.963 958.688L614.849 685.972L614.558 685.633Z" fill="#F0FFF0"/>
<path d="M628.877 702.285L293.991 975.001L294.283 975.34L629.168 702.623L628.877 702.285Z" fill="#F0FFF0"/>
<path d="M643.198 718.934L308.312 991.65L308.604 991.989L643.49 719.273L643.198 718.934Z" fill="#F0FFF0"/>
<path d="M657.52 735.587L322.634 1008.3L322.925 1008.64L657.811 735.926L657.52 735.587Z" fill="#F0FFF0"/>
<path d="M671.838 752.235L336.952 1024.95L337.243 1025.29L672.129 752.574L671.838 752.235Z" fill="#F0FFF0"/>
<path d="M686.161 768.887L351.275 1041.6L351.567 1041.94L686.453 769.226L686.161 768.887Z" fill="#F0FFF0"/>
<path d="M700.481 785.539L365.595 1058.25L365.886 1058.59L700.772 785.877L700.481 785.539Z" fill="#F0FFF0"/>
<path d="M714.802 802.188L379.916 1074.9L380.207 1075.24L715.093 802.527L714.802 802.188Z" fill="#F0FFF0"/>
</g>
<mask id="mask2_59_334" style="mask-type:luminance" maskUnits="userSpaceOnUse" x="596" y="-468" width="697" height="678">
<path d="M1190.44 109.994C1326.26 -22.1729 1326.26 -236.457 1190.44 -368.623C1054.62 -500.79 834.409 -500.79 698.588 -368.624C562.766 -236.457 562.766 -22.1729 698.587 109.994C834.409 242.16 1054.62 242.16 1190.44 109.994Z" fill="white"/>
</mask>
<g mask="url(#mask2_59_334)">
<path d="M1182.99 -525.695L501.565 29.2241L502.16 29.9153L1183.58 -525.004L1182.99 -525.695Z" fill="#DADDF1"/>
<path d="M1212.13 -491.813L530.705 63.106L531.3 63.7972L1212.72 -491.122L1212.13 -491.813Z" fill="#DADDF1"/>
<path d="M1241.27 -457.933L559.847 96.9858L560.441 97.677L1241.86 -457.242L1241.27 -457.933Z" fill="#DADDF1"/>
<path d="M1270.4 -424.054L588.983 130.865L589.578 131.556L1271 -423.363L1270.4 -424.054Z" fill="#DADDF1"/>
<path d="M1299.54 -390.173L618.123 164.746L618.717 165.437L1300.14 -389.482L1299.54 -390.173Z" fill="#DADDF1"/>
<path d="M1328.68 -356.293L647.262 198.626L647.856 199.318L1329.28 -355.602L1328.68 -356.293Z" fill="#DADDF1"/>
<path d="M1357.82 -322.413L676.403 232.506L676.998 233.198L1358.42 -321.722L1357.82 -322.413Z" fill="#DADDF1"/>
<path d="M1386.96 -288.532L705.543 266.388L706.137 267.079L1387.56 -287.84L1386.96 -288.532Z" fill="#DADDF1"/>
<path d="M1416.1 -254.65L734.682 300.27L735.276 300.961L1416.7 -253.959L1416.1 -254.65Z" fill="#DADDF1"/>
<path d="M1445.24 -220.771L763.819 334.148L764.414 334.84L1445.84 -220.08L1445.24 -220.771Z" fill="#DADDF1"/>
<path d="M1474.38 -186.889L792.959 368.03L793.553 368.721L1474.97 -186.198L1474.38 -186.889Z" fill="#DADDF1"/>
<path d="M1503.52 -153.011L822.099 401.908L822.693 402.599L1504.11 -152.32L1503.52 -153.011Z" fill="#DADDF1"/>
<path d="M1532.66 -119.13L851.238 435.79L851.833 436.481L1533.25 -118.438L1532.66 -119.13Z" fill="#DADDF1"/>
<path d="M1195.82 -507.898L514.395 47.0215L514.989 47.7127L1196.41 -507.207L1195.82 -507.898Z" fill="#DADDF1"/>
<path d="M1224.96 -474.016L543.534 80.9033L544.129 81.5945L1225.55 -473.325L1224.96 -474.016Z" fill="#DADDF1"/>
<path d="M1254.09 -440.136L572.673 114.783L573.267 115.474L1254.69 -439.445L1254.09 -440.136Z" fill="#DADDF1"/>
<path d="M1283.23 -406.259L601.812 148.661L602.407 149.352L1283.83 -405.567L1283.23 -406.259Z" fill="#DADDF1"/>
<path d="M1312.37 -372.377L630.951 182.542L631.546 183.233L1312.97 -371.686L1312.37 -372.377Z" fill="#DADDF1"/>
<path d="M1341.51 -338.495L660.091 216.424L660.685 217.115L1342.11 -337.804L1341.51 -338.495Z" fill="#DADDF1"/>
<path d="M1370.65 -304.614L689.23 250.305L689.825 250.996L1371.25 -303.923L1370.65 -304.614Z" fill="#DADDF1"/>
<path d="M1399.79 -270.734L718.372 284.186L718.967 284.877L1400.39 -270.042L1399.79 -270.734Z" fill="#DADDF1"/>
<path d="M1428.93 -236.854L747.51 318.065L748.104 318.756L1429.53 -236.163L1428.93 -236.854Z" fill="#DADDF1"/>
<path d="M1458.07 -202.975L776.647 351.944L777.242 352.636L1458.66 -202.284L1458.07 -202.975Z" fill="#DADDF1"/>
<path d="M1487.21 -169.093L805.787 385.826L806.382 386.517L1487.8 -168.402L1487.21 -169.093Z" fill="#DADDF1"/>
<path d="M1516.35 -135.212L834.927 419.707L835.521 420.398L1516.94 -134.521L1516.35 -135.212Z" fill="#DADDF1"/>
<path d="M1545.49 -101.332L864.068 453.587L864.663 454.279L1546.08 -100.641L1545.49 -101.332Z" fill="#DADDF1"/>
</g>
<mask id="mask3_59_334" style="mask-type:luminance" maskUnits="userSpaceOnUse" x="833" y="993" width="696" height="678">
<path d="M1181.1 1670.42C1373.19 1670.42 1528.9 1518.9 1528.9 1331.99C1528.9 1145.07 1373.19 993.552 1181.1 993.552C989.022 993.552 833.309 1145.07 833.309 1331.99C833.309 1518.9 989.022 1670.42 1181.1 1670.42Z" fill="white"/>
</mask>
<g mask="url(#mask3_59_334)">
<path d="M1273.78 766.25L592.36 1321.08L592.955 1321.77L1274.38 766.941L1273.78 766.25Z" fill="#DADDF1"/>
<path d="M1302.99 800.173L621.569 1355.09L622.164 1355.78L1303.59 800.865L1302.99 800.173Z" fill="#DADDF1"/>
<path d="M1332.13 834.053L650.711 1388.97L651.305 1389.66L1332.73 834.745L1332.13 834.053Z" fill="#DADDF1"/>
<path d="M1361.27 867.931L679.847 1422.85L680.441 1423.54L1361.86 868.622L1361.27 867.931Z" fill="#DADDF1"/>
<path d="M1390.41 901.812L708.986 1456.73L709.581 1457.42L1391 902.503L1390.41 901.812Z" fill="#DADDF1"/>
<path d="M1419.55 935.694L738.126 1490.61L738.72 1491.3L1420.14 936.385L1419.55 935.694Z" fill="#DADDF1"/>
<path d="M1448.69 969.575L767.266 1524.49L767.86 1525.19L1449.28 970.267L1448.69 969.575Z" fill="#DADDF1"/>
<path d="M1477.83 1003.46L796.407 1558.37L797.002 1559.07L1478.42 1004.15L1477.83 1003.46Z" fill="#DADDF1"/>
<path d="M1506.96 1037.33L825.543 1592.25L826.137 1592.94L1507.56 1038.02L1506.96 1037.33Z" fill="#DADDF1"/>
<path d="M1536.1 1071.21L854.683 1626.13L855.277 1626.82L1536.7 1071.91L1536.1 1071.21Z" fill="#DADDF1"/>
<path d="M1565.24 1105.1L883.822 1660.01L884.417 1660.71L1565.84 1105.79L1565.24 1105.1Z" fill="#DADDF1"/>
<path d="M1594.38 1138.98L912.963 1693.9L913.557 1694.59L1594.98 1139.67L1594.38 1138.98Z" fill="#DADDF1"/>
<path d="M1286.61 784.044L605.188 1338.88L605.782 1339.57L1287.2 784.735L1286.61 784.044Z" fill="#DADDF1"/>
<path d="M1315.82 817.969L634.397 1372.89L634.992 1373.58L1316.41 818.66L1315.82 817.969Z" fill="#DADDF1"/>
<path d="M1344.96 851.85L663.537 1406.77L664.132 1407.46L1345.55 852.542L1344.96 851.85Z" fill="#DADDF1"/>
<path d="M1374.1 885.729L692.676 1440.65L693.27 1441.34L1374.69 886.42L1374.1 885.729Z" fill="#DADDF1"/>
<path d="M1403.24 919.608L721.814 1474.53L722.409 1475.22L1403.83 920.299L1403.24 919.608Z" fill="#DADDF1"/>
<path d="M1432.38 953.49L750.954 1508.41L751.549 1509.1L1432.97 954.181L1432.38 953.49Z" fill="#DADDF1"/>
<path d="M1461.52 987.371L780.094 1542.29L780.688 1542.98L1462.11 988.063L1461.52 987.371Z" fill="#DADDF1"/>
<path d="M1490.65 1021.25L809.233 1576.17L809.828 1576.86L1491.25 1021.94L1490.65 1021.25Z" fill="#DADDF1"/>
<path d="M1519.79 1055.13L838.372 1610.05L838.967 1610.74L1520.39 1055.82L1519.79 1055.13Z" fill="#DADDF1"/>
<path d="M1548.93 1089.01L867.513 1643.93L868.107 1644.62L1549.53 1089.7L1548.93 1089.01Z" fill="#DADDF1"/>
<path d="M1578.07 1122.89L896.65 1677.81L897.245 1678.5L1578.67 1123.58L1578.07 1122.89Z" fill="#DADDF1"/>
</g>
<mask id="mask4_59_334" style="mask-type:luminance" maskUnits="userSpaceOnUse" x="65" y="801" width="156" height="152">
<path d="M220.942 879.65C222.5 837.899 188.983 802.824 146.079 801.307C103.175 799.791 67.1306 832.407 65.572 874.158C64.0135 915.909 97.5307 950.984 140.435 952.5C183.339 954.017 219.383 921.401 220.942 879.65Z" fill="white"/>
</mask>
<g mask="url(#mask4_59_334)">
<path d="M163.967 750.479L11.6934 874.555L11.8265 874.71L164.1 750.634L163.967 750.479Z" fill="#DADDF1"/>
<path d="M170.514 758.084L18.2002 882.122L18.3333 882.276L170.647 758.239L170.514 758.084Z" fill="#DADDF1"/>
<path d="M177.028 765.658L24.7148 889.695L24.8479 889.85L177.161 765.813L177.028 765.658Z" fill="#DADDF1"/>
<path d="M183.539 773.232L31.2256 897.269L31.3587 897.424L183.672 773.386L183.539 773.232Z" fill="#DADDF1"/>
<path d="M190.054 780.805L37.7402 904.842L37.8733 904.997L190.187 780.96L190.054 780.805Z" fill="#DADDF1"/>
<path d="M196.566 788.379L44.2529 912.417L44.386 912.571L196.7 788.534L196.566 788.379Z" fill="#DADDF1"/>
<path d="M203.079 795.951L50.7656 919.988L50.8987 920.143L203.212 796.106L203.079 795.951Z" fill="#DADDF1"/>
<path d="M209.594 803.524L57.2803 927.562L57.4134 927.716L209.727 803.679L209.594 803.524Z" fill="#DADDF1"/>
<path d="M216.107 811.096L63.793 935.134L63.926 935.289L216.24 811.251L216.107 811.096Z" fill="#DADDF1"/>
<path d="M222.621 818.67L70.3076 942.707L70.4407 942.862L222.754 818.824L222.621 818.67Z" fill="#DADDF1"/>
<path d="M229.133 826.241L76.8193 950.279L76.9524 950.434L229.266 826.396L229.133 826.241Z" fill="#DADDF1"/>
<path d="M235.648 833.816L83.334 957.853L83.4671 958.008L235.781 833.97L235.648 833.816Z" fill="#DADDF1"/>
<path d="M242.161 841.39L89.8477 965.427L89.9807 965.582L242.294 841.545L242.161 841.39Z" fill="#DADDF1"/>
<path d="M248.674 848.961L96.3604 972.999L96.4934 973.153L248.807 849.116L248.674 848.961Z" fill="#DADDF1"/>
<path d="M255.186 856.536L102.872 980.574L103.005 980.728L255.319 856.691L255.186 856.536Z" fill="#DADDF1"/>
<path d="M261.699 864.108L109.386 988.145L109.519 988.3L261.832 864.262L261.699 864.108Z" fill="#DADDF1"/>
<path d="M268.213 871.682L115.899 995.72L116.032 995.874L268.346 871.837L268.213 871.682Z" fill="#DADDF1"/>
<path d="M274.727 879.256L122.413 1003.29L122.546 1003.45L274.86 879.41L274.727 879.256Z" fill="#DADDF1"/>
<path d="M166.929 754.477L14.5557 878.438L14.6887 878.592L167.062 754.632L166.929 754.477Z" fill="#DADDF1"/>
<path d="M173.382 762.065L21.0684 886.103L21.2014 886.257L173.515 762.22L173.382 762.065Z" fill="#DADDF1"/>
<path d="M179.895 769.636L27.5811 893.674L27.7141 893.829L180.028 769.791L179.895 769.636Z" fill="#DADDF1"/>
<path d="M186.408 777.21L34.0947 901.248L34.2278 901.402L186.541 777.365L186.408 777.21Z" fill="#DADDF1"/>
<path d="M192.922 784.782L40.6084 908.819L40.7415 908.974L193.055 784.937L192.922 784.782Z" fill="#DADDF1"/>
<path d="M199.435 792.356L47.1211 916.394L47.2542 916.548L199.568 792.511L199.435 792.356Z" fill="#DADDF1"/>
<path d="M205.947 799.928L53.6338 923.965L53.7669 924.12L206.08 800.083L205.947 799.928Z" fill="#DADDF1"/>
<path d="M212.462 807.501L60.1484 931.539L60.2815 931.693L212.595 807.656L212.462 807.501Z" fill="#DADDF1"/>
<path d="M218.973 815.075L66.6592 939.112L66.7923 939.267L219.106 815.23L218.973 815.075Z" fill="#DADDF1"/>
<path d="M225.487 822.649L73.1738 946.686L73.3069 946.841L225.62 822.803L225.487 822.649Z" fill="#DADDF1"/>
<path d="M232.002 830.222L79.6885 954.259L79.8216 954.414L232.135 830.377L232.002 830.222Z" fill="#DADDF1"/>
<path d="M238.514 837.794L86.2002 961.832L86.3333 961.986L238.647 837.949L238.514 837.794Z" fill="#DADDF1"/>
<path d="M245.027 845.368L92.7139 969.405L92.8469 969.56L245.161 845.523L245.027 845.368Z" fill="#DADDF1"/>
<path d="M251.542 852.941L99.2285 976.979L99.3616 977.133L251.675 853.096L251.542 852.941Z" fill="#DADDF1"/>
<path d="M258.055 860.513L105.741 984.551L105.874 984.706L258.188 860.668L258.055 860.513Z" fill="#DADDF1"/>
<path d="M264.569 868.087L112.256 992.124L112.389 992.279L264.703 868.241L264.569 868.087Z" fill="#DADDF1"/>
<path d="M271.082 875.659L118.769 999.696L118.902 999.851L271.215 875.814L271.082 875.659Z" fill="#DADDF1"/>
<path d="M277.595 883.233L125.281 1007.27L125.414 1007.42L277.728 883.387L277.595 883.233Z" fill="#DADDF1"/>
</g>
<mask id="mask5_59_334" style="mask-type:luminance" maskUnits="userSpaceOnUse" x="1433" y="162" width="197" height="192">
<path d="M1627.34 279.001C1639.43 227.519 1606.33 176.25 1553.43 164.49C1500.52 152.73 1447.84 184.931 1435.75 236.413C1423.67 287.895 1456.76 339.163 1509.66 350.924C1562.57 362.684 1615.25 330.483 1627.34 279.001Z" fill="white"/>
</mask>
<g mask="url(#mask5_59_334)">
<path d="M1557.75 97.7854L1365.33 254.688L1365.5 254.882L1557.92 97.9796L1557.75 97.7854Z" fill="#DADDF1"/>
<path d="M1566.07 107.508L1373.55 264.288L1373.72 264.484L1566.24 107.704L1566.07 107.508Z" fill="#DADDF1"/>
<path d="M1574.31 117.081L1381.79 273.861L1381.95 274.056L1574.47 117.276L1574.31 117.081Z" fill="#DADDF1"/>
<path d="M1582.54 126.653L1390.02 283.433L1390.19 283.627L1582.71 126.848L1582.54 126.653Z" fill="#DADDF1"/>
<path d="M1590.77 136.225L1398.25 293.005L1398.42 293.199L1590.94 136.419L1590.77 136.225Z" fill="#DADDF1"/>
<path d="M1599 145.797L1406.48 302.577L1406.65 302.771L1599.17 145.992L1599 145.797Z" fill="#DADDF1"/>
<path d="M1607.24 155.37L1414.72 312.149L1414.88 312.345L1607.4 155.566L1607.24 155.37Z" fill="#DADDF1"/>
<path d="M1615.47 164.943L1422.95 321.723L1423.12 321.917L1615.64 165.137L1615.47 164.943Z" fill="#DADDF1"/>
<path d="M1623.7 174.513L1431.18 331.292L1431.35 331.488L1623.87 174.709L1623.7 174.513Z" fill="#DADDF1"/>
<path d="M1631.94 184.086L1439.42 340.866L1439.58 341.06L1632.1 184.28L1631.94 184.086Z" fill="#DADDF1"/>
<path d="M1640.17 193.658L1447.65 350.438L1447.81 350.632L1640.33 193.852L1640.17 193.658Z" fill="#DADDF1"/>
<path d="M1648.4 203.23L1455.88 360.01L1456.05 360.206L1648.57 203.426L1648.4 203.23Z" fill="#DADDF1"/>
<path d="M1656.63 212.802L1464.11 369.582L1464.28 369.778L1656.8 212.998L1656.63 212.802Z" fill="#DADDF1"/>
<path d="M1664.87 222.377L1472.35 379.157L1472.51 379.351L1665.03 222.571L1664.87 222.377Z" fill="#DADDF1"/>
<path d="M1673.1 231.947L1480.58 388.727L1480.74 388.921L1673.26 232.141L1673.1 231.947Z" fill="#DADDF1"/>
<path d="M1681.33 241.519L1488.81 398.299L1488.98 398.494L1681.5 241.714L1681.33 241.519Z" fill="#DADDF1"/>
<path d="M1689.56 251.09L1497.04 407.87L1497.21 408.064L1689.73 251.284L1689.56 251.09Z" fill="#DADDF1"/>
<path d="M1697.8 260.662L1505.28 417.442L1505.44 417.638L1697.97 260.859L1697.8 260.662Z" fill="#DADDF1"/>
</g>
<mask id="mask6_59_334" style="mask-type:luminance" maskUnits="userSpaceOnUse" x="1414" y="377" width="118" height="115">
<path d="M1531.2 439.289C1534.1 407.965 1510.36 380.285 1478.17 377.464C1445.98 374.643 1417.53 397.749 1414.63 429.073C1411.73 460.397 1435.48 488.077 1467.67 490.898C1499.86 493.719 1528.3 470.613 1531.2 439.289Z" fill="white"/>
</mask>
<g mask="url(#mask6_59_334)">
<path d="M1488.48 339.03L1373.88 432.459L1373.98 432.576L1488.58 339.147L1488.48 339.03Z" fill="#DADDF1"/>
<path d="M1493.5 344.794L1378.85 438.165L1378.95 438.282L1493.6 344.911L1493.5 344.794Z" fill="#DADDF1"/>
<path d="M1498.4 350.493L1383.75 443.864L1383.85 443.981L1498.51 350.609L1498.4 350.493Z" fill="#DADDF1"/>
<path d="M1503.31 356.195L1388.65 449.566L1388.75 449.683L1503.41 356.312L1503.31 356.195Z" fill="#DADDF1"/>
<path d="M1508.21 361.895L1393.55 455.267L1393.66 455.384L1508.31 362.012L1508.21 361.895Z" fill="#DADDF1"/>
<path d="M1513.11 367.597L1398.46 460.968L1398.56 461.085L1513.22 367.713L1513.11 367.597Z" fill="#DADDF1"/>
<path d="M1518.02 373.295L1403.36 466.667L1403.46 466.783L1518.12 373.412L1518.02 373.295Z" fill="#DADDF1"/>
<path d="M1522.92 378.997L1408.26 472.368L1408.36 472.485L1523.02 379.114L1522.92 378.997Z" fill="#DADDF1"/>
<path d="M1527.82 384.698L1413.17 478.069L1413.27 478.186L1527.92 384.815L1527.82 384.698Z" fill="#DADDF1"/>
<path d="M1532.73 390.398L1418.07 483.769L1418.17 483.886L1532.83 390.515L1532.73 390.398Z" fill="#DADDF1"/>
<path d="M1537.63 396.098L1422.97 489.469L1423.07 489.586L1537.73 396.214L1537.63 396.098Z" fill="#DADDF1"/>
<path d="M1542.53 401.8L1427.88 495.171L1427.98 495.288L1542.63 401.917L1542.53 401.8Z" fill="#DADDF1"/>
<path d="M1547.43 407.501L1432.78 500.872L1432.88 500.989L1547.54 407.618L1547.43 407.501Z" fill="#DADDF1"/>
<path d="M1552.34 413.202L1437.68 506.574L1437.78 506.691L1552.44 413.319L1552.34 413.202Z" fill="#DADDF1"/>
<path d="M1557.24 418.9L1442.58 512.271L1442.68 512.388L1557.34 419.017L1557.24 418.9Z" fill="#DADDF1"/>
<path d="M1562.14 424.603L1447.49 517.975L1447.59 518.092L1562.25 424.72L1562.14 424.603Z" fill="#DADDF1"/>
<path d="M1567.05 430.303L1452.39 523.674L1452.49 523.791L1567.15 430.42L1567.05 430.303Z" fill="#DADDF1"/>
<path d="M1571.95 436.005L1457.29 529.376L1457.39 529.493L1572.05 436.122L1571.95 436.005Z" fill="#DADDF1"/>
<path d="M1490.68 342.036L1375.99 435.364L1376.09 435.481L1490.78 342.153L1490.68 342.036Z" fill="#DADDF1"/>
<path d="M1495.66 347.786L1381 441.157L1381.1 441.274L1495.76 347.903L1495.66 347.786Z" fill="#DADDF1"/>
<path d="M1500.56 353.488L1385.91 446.859L1386.01 446.976L1500.66 353.605L1500.56 353.488Z" fill="#DADDF1"/>
<path d="M1505.47 359.189L1390.81 452.56L1390.91 452.677L1505.57 359.306L1505.47 359.189Z" fill="#DADDF1"/>
<path d="M1510.37 364.889L1395.71 458.26L1395.81 458.377L1510.47 365.006L1510.37 364.889Z" fill="#DADDF1"/>
<path d="M1515.27 370.589L1400.62 463.96L1400.72 464.077L1515.37 370.706L1515.27 370.589Z" fill="#DADDF1"/>
<path d="M1520.18 376.292L1405.52 469.663L1405.62 469.78L1520.28 376.409L1520.18 376.292Z" fill="#DADDF1"/>
<path d="M1525.08 381.992L1410.42 475.363L1410.52 475.48L1525.18 382.108L1525.08 381.992Z" fill="#DADDF1"/>
<path d="M1529.98 387.692L1415.33 481.063L1415.43 481.18L1530.08 387.809L1529.98 387.692Z" fill="#DADDF1"/>
<path d="M1534.88 393.391L1420.23 486.763L1420.33 486.88L1534.98 393.508L1534.88 393.391Z" fill="#DADDF1"/>
<path d="M1539.79 399.094L1425.13 492.465L1425.23 492.582L1539.89 399.211L1539.79 399.094Z" fill="#DADDF1"/>
<path d="M1544.69 404.794L1430.03 498.166L1430.13 498.282L1544.79 404.911L1544.69 404.794Z" fill="#DADDF1"/>
<path d="M1549.59 410.496L1434.94 503.867L1435.04 503.984L1549.69 410.613L1549.59 410.496Z" fill="#DADDF1"/>
<path d="M1554.5 416.194L1439.84 509.565L1439.94 509.682L1554.6 416.311L1554.5 416.194Z" fill="#DADDF1"/>
<path d="M1559.4 421.897L1444.74 515.268L1444.84 515.385L1559.5 422.014L1559.4 421.897Z" fill="#DADDF1"/>
<path d="M1564.3 427.597L1449.65 520.968L1449.75 521.085L1564.4 427.714L1564.3 427.597Z" fill="#DADDF1"/>
<path d="M1569.2 433.299L1454.55 526.67L1454.65 526.787L1569.3 433.416L1569.2 433.299Z" fill="#DADDF1"/>
<path d="M1574.11 438.997L1459.45 532.368L1459.55 532.485L1574.21 439.114L1574.11 438.997Z" fill="#DADDF1"/>
</g>
</g>
<mask id="mask7_59_334" style="mask-type:luminance" maskUnits="userSpaceOnUse" x="0" y="18" width="1929" height="1222">
<path d="M1928.12 18.0371H0.120117V1239.04H1928.12V18.0371Z" fill="white"/>
</mask>
<g mask="url(#mask7_59_334)">
<path d="M1040.77 1004.2L991.538 963.269L951.421 996.627L933.196 975.871L991.538 927.358L1040.77 968.293L1080.89 934.936L1099.11 955.693L1040.77 1004.2Z" fill="#DADDF1"/>
<path d="M4.11478 141.802L-45.1171 100.867L-85.2343 134.224L-103.459 113.467L-45.1171 64.9551L4.11478 105.89L44.232 72.533L62.459 93.2895L4.11478 141.802Z" fill="#DADDF1"/>
<path d="M1457.65 44.9207L1408.43 3.98628L1368.31 37.3428L1350.08 16.5863L1408.43 -31.9238L1457.65 9.00836L1497.77 -24.3481L1516 -3.59168L1457.65 44.9207Z" fill="#DADDF1"/>
<path d="M333.615 1185.87L284.385 1144.93L244.266 1178.29L226.041 1157.53L284.385 1109.02L333.615 1149.96L373.734 1116.6L391.959 1137.36L333.615 1185.87Z" fill="#DADDF1"/>
<path d="M63.3436 761.258L14.1118 720.323L-26.0055 753.682L-44.2324 732.925L14.1118 684.413L63.3436 725.348L103.461 691.991L121.686 712.747L63.3436 761.258Z" fill="#DADDF1"/>
<path d="M837.181 180.223L787.952 139.291L747.832 172.647L729.607 151.891L787.952 103.378L837.181 144.313L877.301 110.956L895.525 131.713L837.181 180.223Z" fill="#DADDF1"/>
<path d="M1795.89 279.205L1746.65 238.271L1706.54 271.63L1688.31 250.873L1746.65 202.361L1795.89 243.295L1836 209.939L1854.23 230.695L1795.89 279.205Z" fill="#DADDF1"/>
<path d="M1629.97 1155.91L1580.74 1114.98L1540.62 1148.33L1522.39 1127.58L1580.74 1079.07L1629.97 1120L1670.08 1086.65L1688.31 1107.4L1629.97 1155.91Z" fill="#DADDF1"/>
</g>
<mask id="mask8_59_334" style="mask-type:luminance" maskUnits="userSpaceOnUse" x="104" y="18" width="1729" height="1167">
<path d="M1832.12 18.0371H104.12V1184.04H1832.12V18.0371Z" fill="white"/>
</mask>
<g mask="url(#mask8_59_334)">
<path d="M247.524 712.584L229.476 697.579L214.768 709.806L208.086 702.197L229.476 684.414L247.524 699.419L262.23 687.191L268.912 694.801L247.524 712.584Z" fill="#DADDF1"/>
<path d="M1280.32 1061.07L1262.28 1046.06L1247.57 1058.29L1240.89 1050.68L1262.28 1032.9L1280.32 1047.91L1295.03 1035.68L1301.71 1043.29L1280.32 1061.07Z" fill="#DADDF1"/>
<path d="M1700.78 490.436L1682.73 475.428L1668.02 487.656L1661.34 480.046L1682.73 462.263L1700.78 477.268L1715.48 465.041L1722.16 472.65L1700.78 490.436Z" fill="#DADDF1"/>
<path d="M1685.49 32.1237L1667.45 17.1157L1652.74 29.3458L1646.06 21.7365L1667.45 3.95068L1685.49 18.9586L1700.2 6.72852L1706.88 14.3379L1685.49 32.1237Z" fill="#DADDF1"/>
<path d="M904.55 863.928L886.5 848.922L871.794 861.15L865.112 853.541L886.5 835.757L904.55 850.763L919.256 838.535L925.938 846.145L904.55 863.928Z" fill="#DADDF1"/>
<path d="M113.145 1093.15L95.0951 1078.15L80.3886 1090.37L73.707 1082.77L95.0951 1064.98L113.145 1079.99L127.851 1067.76L134.533 1075.37L113.145 1093.15Z" fill="#DADDF1"/>
<path d="M964.385 243.802L946.338 228.794L931.632 241.024L924.95 233.412L946.338 215.629L964.385 230.637L979.092 218.407L985.773 226.016L964.385 243.802Z" fill="#DADDF1"/>
<path d="M207.321 180.371L189.274 165.363L174.567 177.593L167.886 169.984L189.274 152.198L207.321 167.206L222.027 154.976L228.709 162.585L207.321 180.371Z" fill="#DADDF1"/>
</g>
<path d="M1395.2 861.175C1393.72 861.175 1392.53 862.338 1392.53 863.776C1392.53 865.213 1393.72 866.376 1395.2 866.376C1396.68 866.376 1397.87 865.213 1397.87 863.776C1397.87 862.338 1396.68 861.175 1395.2 861.175Z" fill="#F0FFF0"/>
<path d="M1410.53 861.175C1409.05 861.175 1407.86 862.338 1407.86 863.776C1407.86 865.213 1409.05 866.376 1410.53 866.376C1412 866.376 1413.2 865.213 1413.2 863.776C1413.2 862.338 1412 861.175 1410.53 861.175Z" fill="#F0FFF0"/>
<path d="M1425.86 861.175C1424.38 861.175 1423.18 862.338 1423.18 863.776C1423.18 865.213 1424.38 866.376 1425.86 866.376C1427.33 866.376 1428.53 865.213 1428.53 863.776C1428.53 862.338 1427.33 861.175 1425.86 861.175Z" fill="#F0FFF0"/>
<path d="M1441.18 861.175C1439.71 861.175 1438.51 862.338 1438.51 863.776C1438.51 865.213 1439.71 866.376 1441.18 866.376C1442.66 866.376 1443.86 865.213 1443.86 863.776C1443.86 862.338 1442.66 861.175 1441.18 861.175Z" fill="#F0FFF0"/>
<path d="M1456.51 861.175C1455.04 861.175 1453.84 862.338 1453.84 863.776C1453.84 865.213 1455.04 866.376 1456.51 866.376C1457.99 866.376 1459.19 865.213 1459.19 863.776C1459.18 862.338 1457.99 861.175 1456.51 861.175Z" fill="#F0FFF0"/>
<path d="M1471.84 861.175C1470.36 861.175 1469.17 862.338 1469.17 863.776C1469.17 865.213 1470.36 866.376 1471.84 866.376C1473.32 866.376 1474.51 865.213 1474.51 863.776C1474.51 862.338 1473.32 861.175 1471.84 861.175Z" fill="#F0FFF0"/>
<path d="M1487.17 861.175C1485.69 861.175 1484.5 862.338 1484.5 863.776C1484.5 865.213 1485.69 866.376 1487.17 866.376C1488.64 866.376 1489.84 865.213 1489.84 863.776C1489.84 862.338 1488.64 861.175 1487.17 861.175Z" fill="#F0FFF0"/>
<path d="M1502.5 861.175C1501.02 861.175 1499.82 862.338 1499.82 863.776C1499.82 865.213 1501.02 866.376 1502.5 866.376C1503.97 866.376 1505.17 865.213 1505.17 863.776C1505.17 862.338 1503.97 861.175 1502.5 861.175Z" fill="#F0FFF0"/>
<path d="M1517.82 861.175C1516.35 861.175 1515.15 862.338 1515.15 863.776C1515.15 865.213 1516.35 866.376 1517.82 866.376C1519.3 866.376 1520.5 865.213 1520.5 863.776C1520.49 862.338 1519.3 861.175 1517.82 861.175Z" fill="#F0FFF0"/>
<path d="M1533.15 861.175C1531.67 861.175 1530.48 862.338 1530.48 863.776C1530.48 865.213 1531.67 866.376 1533.15 866.376C1534.62 866.376 1535.82 865.213 1535.82 863.776C1535.82 862.338 1534.63 861.175 1533.15 861.175Z" fill="#F0FFF0"/>
<path d="M1548.48 861.175C1547 861.175 1545.81 862.338 1545.81 863.776C1545.81 865.213 1547 866.376 1548.48 866.376C1549.95 866.376 1551.15 865.213 1551.15 863.776C1551.15 862.338 1549.95 861.175 1548.48 861.175Z" fill="#F0FFF0"/>
<path d="M1563.81 861.175C1562.33 861.175 1561.13 862.338 1561.13 863.776C1561.13 865.213 1562.33 866.376 1563.81 866.376C1565.28 866.376 1566.48 865.213 1566.48 863.776C1566.48 862.338 1565.28 861.175 1563.81 861.175Z" fill="#F0FFF0"/>
<path d="M1579.13 861.175C1577.66 861.175 1576.46 862.338 1576.46 863.776C1576.46 865.213 1577.66 866.376 1579.13 866.376C1580.61 866.376 1581.81 865.213 1581.81 863.776C1581.81 862.338 1580.61 861.175 1579.13 861.175Z" fill="#F0FFF0"/>
<path d="M1594.46 861.175C1592.99 861.175 1591.79 862.338 1591.79 863.776C1591.79 865.213 1592.99 866.376 1594.46 866.376C1595.94 866.376 1597.14 865.213 1597.14 863.776C1597.14 862.338 1595.94 861.175 1594.46 861.175Z" fill="#F0FFF0"/>
<path d="M1609.79 861.175C1608.31 861.175 1607.12 862.338 1607.12 863.776C1607.12 865.213 1608.31 866.376 1609.79 866.376C1611.27 866.376 1612.46 865.213 1612.46 863.776C1612.46 862.338 1611.27 861.175 1609.79 861.175Z" fill="#F0FFF0"/>
<path d="M1625.12 861.175C1623.64 861.175 1622.44 862.338 1622.44 863.776C1622.44 865.213 1623.64 866.376 1625.12 866.376C1626.59 866.376 1627.79 865.213 1627.79 863.776C1627.79 862.338 1626.59 861.175 1625.12 861.175Z" fill="#F0FFF0"/>
<path d="M1640.45 861.175C1638.97 861.175 1637.77 862.338 1637.77 863.776C1637.77 865.213 1638.97 866.376 1640.45 866.376C1641.92 866.376 1643.12 865.213 1643.12 863.776C1643.12 862.338 1641.92 861.175 1640.45 861.175Z" fill="#F0FFF0"/>
<path d="M1655.77 866.374C1657.25 866.374 1658.45 865.21 1658.45 863.773C1658.45 862.338 1657.25 861.172 1655.77 861.172C1654.3 861.172 1653.1 862.336 1653.1 863.773C1653.1 865.21 1654.3 866.374 1655.77 866.374Z" fill="#F0FFF0"/>
<path d="M1395.2 875.268C1393.72 875.268 1392.53 876.432 1392.53 877.869C1392.53 879.304 1393.72 880.469 1395.2 880.469C1396.68 880.469 1397.87 879.306 1397.87 877.869C1397.87 876.432 1396.68 875.268 1395.2 875.268Z" fill="#F0FFF0"/>
<path d="M1410.53 875.268C1409.05 875.268 1407.86 876.431 1407.86 877.868C1407.86 879.303 1409.05 880.469 1410.53 880.469C1412 880.469 1413.2 879.305 1413.2 877.868C1413.2 876.431 1412 875.268 1410.53 875.268Z" fill="#F0FFF0"/>
<path d="M1425.86 875.268C1424.38 875.268 1423.18 876.431 1423.18 877.868C1423.18 879.303 1424.38 880.469 1425.86 880.469C1427.33 880.469 1428.53 879.305 1428.53 877.868C1428.53 876.431 1427.33 875.268 1425.86 875.268Z" fill="#F0FFF0"/>
<path d="M1441.18 875.268C1439.71 875.268 1438.51 876.432 1438.51 877.869C1438.51 879.304 1439.71 880.469 1441.18 880.469C1442.66 880.469 1443.86 879.306 1443.86 877.869C1443.86 876.432 1442.66 875.268 1441.18 875.268Z" fill="#F0FFF0"/>
<path d="M1456.51 875.268C1455.04 875.268 1453.84 876.432 1453.84 877.869C1453.84 879.304 1455.04 880.469 1456.51 880.469C1457.99 880.469 1459.19 879.306 1459.19 877.869C1459.18 876.432 1457.99 875.268 1456.51 875.268Z" fill="#F0FFF0"/>
<path d="M1471.84 875.268C1470.36 875.268 1469.17 876.431 1469.17 877.868C1469.17 879.303 1470.36 880.469 1471.84 880.469C1473.32 880.469 1474.51 879.305 1474.51 877.868C1474.51 876.431 1473.32 875.268 1471.84 875.268Z" fill="#F0FFF0"/>
<path d="M1487.17 875.268C1485.69 875.268 1484.5 876.431 1484.5 877.868C1484.5 879.303 1485.69 880.469 1487.17 880.469C1488.64 880.469 1489.84 879.305 1489.84 877.868C1489.84 876.431 1488.64 875.268 1487.17 875.268Z" fill="#F0FFF0"/>
<path d="M1502.5 875.268C1501.02 875.268 1499.82 876.432 1499.82 877.869C1499.82 879.304 1501.02 880.469 1502.5 880.469C1503.97 880.469 1505.17 879.306 1505.17 877.869C1505.17 876.432 1503.97 875.268 1502.5 875.268Z" fill="#F0FFF0"/>
<path d="M1517.82 875.268C1516.35 875.268 1515.15 876.431 1515.15 877.868C1515.15 879.303 1516.35 880.469 1517.82 880.469C1519.3 880.469 1520.5 879.305 1520.5 877.868C1520.49 876.431 1519.3 875.268 1517.82 875.268Z" fill="#F0FFF0"/>
<path d="M1533.15 875.268C1531.67 875.268 1530.48 876.431 1530.48 877.868C1530.48 879.303 1531.67 880.469 1533.15 880.469C1534.62 880.469 1535.82 879.305 1535.82 877.868C1535.82 876.431 1534.63 875.268 1533.15 875.268Z" fill="#F0FFF0"/>
<path d="M1548.48 875.268C1547 875.268 1545.81 876.432 1545.81 877.869C1545.81 879.304 1547 880.469 1548.48 880.469C1549.95 880.469 1551.15 879.306 1551.15 877.869C1551.15 876.432 1549.95 875.268 1548.48 875.268Z" fill="#F0FFF0"/>
<path d="M1563.81 875.268C1562.33 875.268 1561.13 876.431 1561.13 877.868C1561.13 879.303 1562.33 880.469 1563.81 880.469C1565.28 880.469 1566.48 879.305 1566.48 877.868C1566.48 876.431 1565.28 875.268 1563.81 875.268Z" fill="#F0FFF0"/>
<path d="M1579.13 875.268C1577.66 875.268 1576.46 876.431 1576.46 877.868C1576.46 879.303 1577.66 880.469 1579.13 880.469C1580.61 880.469 1581.81 879.305 1581.81 877.868C1581.81 876.431 1580.61 875.268 1579.13 875.268Z" fill="#F0FFF0"/>
<path d="M1594.46 875.268C1592.99 875.268 1591.79 876.431 1591.79 877.868C1591.79 879.303 1592.99 880.469 1594.46 880.469C1595.94 880.469 1597.14 879.305 1597.14 877.868C1597.14 876.431 1595.94 875.268 1594.46 875.268Z" fill="#F0FFF0"/>
<path d="M1609.79 875.268C1608.31 875.268 1607.12 876.432 1607.12 877.869C1607.12 879.304 1608.31 880.469 1609.79 880.469C1611.27 880.469 1612.46 879.306 1612.46 877.869C1612.46 876.432 1611.27 875.268 1609.79 875.268Z" fill="#F0FFF0"/>
<path d="M1625.12 875.268C1623.64 875.268 1622.44 876.432 1622.44 877.869C1622.44 879.304 1623.64 880.469 1625.12 880.469C1626.59 880.469 1627.79 879.306 1627.79 877.869C1627.79 876.432 1626.59 875.268 1625.12 875.268Z" fill="#F0FFF0"/>
<path d="M1640.45 875.268C1638.97 875.268 1637.77 876.431 1637.77 877.868C1637.77 879.303 1638.97 880.469 1640.45 880.469C1641.92 880.469 1643.12 879.305 1643.12 877.868C1643.12 876.431 1641.92 875.268 1640.45 875.268Z" fill="#F0FFF0"/>
<path d="M1655.77 875.268C1654.3 875.268 1653.1 876.432 1653.1 877.869C1653.1 879.304 1654.3 880.469 1655.77 880.469C1657.25 880.469 1658.45 879.306 1658.45 877.869C1658.44 876.432 1657.25 875.268 1655.77 875.268Z" fill="#F0FFF0"/>
<path d="M1395.2 889.363C1393.72 889.363 1392.53 890.527 1392.53 891.964C1392.53 893.401 1393.72 894.565 1395.2 894.565C1396.68 894.565 1397.87 893.401 1397.87 891.964C1397.87 890.527 1396.68 889.363 1395.2 889.363Z" fill="#F0FFF0"/>
<path d="M1410.53 889.363C1409.05 889.363 1407.86 890.527 1407.86 891.964C1407.86 893.401 1409.05 894.565 1410.53 894.565C1412 894.565 1413.2 893.401 1413.2 891.964C1413.2 890.527 1412 889.363 1410.53 889.363Z" fill="#F0FFF0"/>
<path d="M1425.86 889.363C1424.38 889.363 1423.18 890.527 1423.18 891.964C1423.18 893.401 1424.38 894.565 1425.86 894.565C1427.33 894.565 1428.53 893.401 1428.53 891.964C1428.53 890.527 1427.33 889.363 1425.86 889.363Z" fill="#F0FFF0"/>
<path d="M1441.18 889.363C1439.71 889.363 1438.51 890.527 1438.51 891.964C1438.51 893.401 1439.71 894.565 1441.18 894.565C1442.66 894.565 1443.86 893.401 1443.86 891.964C1443.86 890.527 1442.66 889.363 1441.18 889.363Z" fill="#F0FFF0"/>
<path d="M1456.51 889.363C1455.04 889.363 1453.84 890.527 1453.84 891.964C1453.84 893.401 1455.04 894.565 1456.51 894.565C1457.99 894.565 1459.19 893.401 1459.19 891.964C1459.18 890.527 1457.99 889.363 1456.51 889.363Z" fill="#F0FFF0"/>
<path d="M1471.84 889.363C1470.36 889.363 1469.17 890.527 1469.17 891.964C1469.17 893.401 1470.36 894.565 1471.84 894.565C1473.32 894.565 1474.51 893.401 1474.51 891.964C1474.51 890.527 1473.32 889.363 1471.84 889.363Z" fill="#F0FFF0"/>
<path d="M1487.17 889.363C1485.69 889.363 1484.5 890.527 1484.5 891.964C1484.5 893.401 1485.69 894.565 1487.17 894.565C1488.64 894.565 1489.84 893.401 1489.84 891.964C1489.84 890.527 1488.64 889.363 1487.17 889.363Z" fill="#F0FFF0"/>
<path d="M1502.5 889.363C1501.02 889.363 1499.82 890.527 1499.82 891.964C1499.82 893.401 1501.02 894.565 1502.5 894.565C1503.97 894.565 1505.17 893.401 1505.17 891.964C1505.17 890.527 1503.97 889.363 1502.5 889.363Z" fill="#F0FFF0"/>
<path d="M1517.82 889.363C1516.35 889.363 1515.15 890.527 1515.15 891.964C1515.15 893.401 1516.35 894.565 1517.82 894.565C1519.3 894.565 1520.5 893.401 1520.5 891.964C1520.49 890.527 1519.3 889.363 1517.82 889.363Z" fill="#F0FFF0"/>
<path d="M1533.15 889.363C1531.67 889.363 1530.48 890.527 1530.48 891.964C1530.48 893.401 1531.67 894.565 1533.15 894.565C1534.62 894.565 1535.82 893.401 1535.82 891.964C1535.82 890.527 1534.63 889.363 1533.15 889.363Z" fill="#F0FFF0"/>
<path d="M1548.48 889.363C1547 889.363 1545.81 890.527 1545.81 891.964C1545.81 893.401 1547 894.565 1548.48 894.565C1549.95 894.565 1551.15 893.401 1551.15 891.964C1551.15 890.527 1549.95 889.363 1548.48 889.363Z" fill="#F0FFF0"/>
<path d="M1563.81 889.363C1562.33 889.363 1561.13 890.527 1561.13 891.964C1561.13 893.401 1562.33 894.565 1563.81 894.565C1565.28 894.565 1566.48 893.401 1566.48 891.964C1566.48 890.527 1565.28 889.363 1563.81 889.363Z" fill="#F0FFF0"/>
<path d="M1579.13 889.363C1577.66 889.363 1576.46 890.527 1576.46 891.964C1576.46 893.401 1577.66 894.565 1579.13 894.565C1580.61 894.565 1581.81 893.401 1581.81 891.964C1581.81 890.527 1580.61 889.363 1579.13 889.363Z" fill="#F0FFF0"/>
<path d="M1594.46 889.363C1592.99 889.363 1591.79 890.527 1591.79 891.964C1591.79 893.401 1592.99 894.565 1594.46 894.565C1595.94 894.565 1597.14 893.401 1597.14 891.964C1597.14 890.527 1595.94 889.363 1594.46 889.363Z" fill="#F0FFF0"/>
<path d="M1609.79 889.363C1608.31 889.363 1607.12 890.527 1607.12 891.964C1607.12 893.401 1608.31 894.565 1609.79 894.565C1611.27 894.565 1612.46 893.401 1612.46 891.964C1612.46 890.527 1611.27 889.363 1609.79 889.363Z" fill="#F0FFF0"/>
<path d="M1625.12 889.363C1623.64 889.363 1622.44 890.527 1622.44 891.964C1622.44 893.401 1623.64 894.565 1625.12 894.565C1626.59 894.565 1627.79 893.401 1627.79 891.964C1627.79 890.527 1626.59 889.363 1625.12 889.363Z" fill="#F0FFF0"/>
<path d="M1640.45 889.363C1638.97 889.363 1637.77 890.527 1637.77 891.964C1637.77 893.401 1638.97 894.565 1640.45 894.565C1641.92 894.565 1643.12 893.401 1643.12 891.964C1643.12 890.527 1641.92 889.363 1640.45 889.363Z" fill="#F0FFF0"/>
<path d="M1655.77 889.363C1654.3 889.363 1653.1 890.527 1653.1 891.964C1653.1 893.401 1654.3 894.565 1655.77 894.565C1657.25 894.565 1658.45 893.401 1658.45 891.964C1658.44 890.527 1657.25 889.363 1655.77 889.363Z" fill="#F0FFF0"/>
<path d="M2.67265 976.851C1.19809 976.851 0 978.015 0 979.452C0 980.887 1.19578 982.053 2.67265 982.053C4.14721 982.053 5.34529 980.889 5.34529 979.452C5.34298 978.015 4.14721 976.851 2.67265 976.851Z" fill="#DADDF1"/>
<path d="M17.9988 976.851C16.5243 976.851 15.3262 978.015 15.3262 979.452C15.3262 980.887 16.5219 982.053 17.9988 982.053C19.4734 982.053 20.6715 980.889 20.6715 979.452C20.6715 978.015 19.4757 976.851 17.9988 976.851Z" fill="#DADDF1"/>
<path d="M33.3269 976.851C31.8524 976.851 30.6543 978.015 30.6543 979.452C30.6543 980.887 31.8501 982.053 33.3269 982.053C34.8038 982.053 35.9996 980.889 35.9996 979.452C35.9996 978.015 34.8015 976.851 33.3269 976.851Z" fill="#DADDF1"/>
<path d="M48.656 976.851C47.1792 976.851 45.9834 978.015 45.9834 979.452C45.9834 980.887 47.1792 982.053 48.656 982.053C50.1306 982.053 51.3287 980.889 51.3287 979.452C51.3264 978.015 50.1306 976.851 48.656 976.851Z" fill="#DADDF1"/>
<path d="M63.9822 976.851C62.5076 976.851 61.3096 978.015 61.3096 979.452C61.3096 980.887 62.5053 982.053 63.9822 982.053C65.4568 982.053 66.6548 980.889 66.6548 979.452C66.6548 978.015 65.4591 976.851 63.9822 976.851Z" fill="#DADDF1"/>
<path d="M79.3103 976.851C77.8358 976.851 76.6377 978.015 76.6377 979.452C76.6377 980.887 77.8335 982.053 79.3103 982.053C80.7849 982.053 81.983 980.889 81.983 979.452C81.983 978.015 80.7872 976.851 79.3103 976.851Z" fill="#DADDF1"/>
<path d="M94.6394 976.851C93.1649 976.851 91.9668 978.015 91.9668 979.452C91.9668 980.887 93.1626 982.053 94.6394 982.053C96.114 982.053 97.3121 980.889 97.3121 979.452C97.3098 978.015 96.114 976.851 94.6394 976.851Z" fill="#DADDF1"/>
<path d="M109.966 976.851C108.491 976.851 107.293 978.015 107.293 979.452C107.293 980.887 108.489 982.053 109.966 982.053C111.44 982.053 112.638 980.889 112.638 979.452C112.638 978.015 111.442 976.851 109.966 976.851Z" fill="#DADDF1"/>
<path d="M125.294 976.851C123.819 976.851 122.621 978.015 122.621 979.452C122.621 980.887 123.817 982.053 125.294 982.053C126.768 982.053 127.966 980.889 127.966 979.452C127.966 978.015 126.771 976.851 125.294 976.851Z" fill="#DADDF1"/>
<path d="M140.622 976.851C139.145 976.851 137.949 978.015 137.949 979.452C137.949 980.887 139.145 982.053 140.622 982.053C142.096 982.053 143.295 980.889 143.295 979.452C143.295 978.015 142.096 976.851 140.622 976.851Z" fill="#DADDF1"/>
<path d="M155.951 976.851C154.474 976.851 153.278 978.015 153.278 979.452C153.278 980.887 154.474 982.053 155.951 982.053C157.426 982.053 158.624 980.889 158.624 979.452C158.621 978.015 157.426 976.851 155.951 976.851Z" fill="#DADDF1"/>
<path d="M171.277 976.851C169.803 976.851 168.604 978.015 168.604 979.452C168.604 980.887 169.8 982.053 171.277 982.053C172.752 982.053 173.95 980.889 173.95 979.452C173.95 978.015 172.754 976.851 171.277 976.851Z" fill="#DADDF1"/>
<path d="M186.605 976.851C185.131 976.851 183.933 978.015 183.933 979.452C183.933 980.887 185.128 982.053 186.605 982.053C188.08 982.053 189.278 980.889 189.278 979.452C189.276 978.015 188.08 976.851 186.605 976.851Z" fill="#DADDF1"/>
<path d="M201.931 976.851C200.457 976.851 199.259 978.015 199.259 979.452C199.259 980.887 200.455 982.053 201.931 982.053C203.408 982.053 204.604 980.889 204.604 979.452C204.604 978.015 203.408 976.851 201.931 976.851Z" fill="#DADDF1"/>
<path d="M217.261 976.851C215.786 976.851 214.588 978.015 214.588 979.452C214.588 980.887 215.784 982.053 217.261 982.053C218.735 982.053 219.933 980.889 219.933 979.452C219.933 978.015 218.737 976.851 217.261 976.851Z" fill="#DADDF1"/>
<path d="M232.589 976.851C231.114 976.851 229.916 978.015 229.916 979.452C229.916 980.887 231.112 982.053 232.589 982.053C234.063 982.053 235.261 980.889 235.261 979.452C235.261 978.015 234.063 976.851 232.589 976.851Z" fill="#DADDF1"/>
<path d="M247.918 976.851C246.443 976.851 245.245 978.015 245.245 979.452C245.245 980.887 246.441 982.053 247.918 982.053C249.395 982.053 250.59 980.889 250.59 979.452C250.588 978.015 249.392 976.851 247.918 976.851Z" fill="#DADDF1"/>
<path d="M263.244 982.05C264.718 982.05 265.917 980.886 265.917 979.449C265.917 978.014 264.721 976.849 263.244 976.849C261.769 976.849 260.571 978.012 260.571 979.449C260.574 980.886 261.769 982.05 263.244 982.05Z" fill="#DADDF1"/>
<path d="M2.67265 990.944C1.19809 990.944 0 992.108 0 993.545C0 994.98 1.19578 996.146 2.67265 996.146C4.14721 996.146 5.34529 994.982 5.34529 993.545C5.34298 992.108 4.14721 990.944 2.67265 990.944Z" fill="#DADDF1"/>
<path d="M17.9988 990.944C16.5243 990.944 15.3262 992.108 15.3262 993.545C15.3262 994.98 16.5219 996.146 17.9988 996.146C19.4734 996.146 20.6715 994.982 20.6715 993.545C20.6715 992.108 19.4757 990.944 17.9988 990.944Z" fill="#DADDF1"/>
<path d="M33.3269 990.944C31.8524 990.944 30.6543 992.108 30.6543 993.545C30.6543 994.98 31.8501 996.146 33.3269 996.146C34.8038 996.146 35.9996 994.982 35.9996 993.545C35.9996 992.108 34.8015 990.944 33.3269 990.944Z" fill="#DADDF1"/>
<path d="M48.656 990.944C47.1792 990.944 45.9834 992.108 45.9834 993.545C45.9834 994.98 47.1792 996.146 48.656 996.146C50.1306 996.146 51.3287 994.982 51.3287 993.545C51.3264 992.108 50.1306 990.944 48.656 990.944Z" fill="#DADDF1"/>
<path d="M63.9822 990.944C62.5076 990.944 61.3096 992.108 61.3096 993.545C61.3096 994.98 62.5053 996.146 63.9822 996.146C65.4568 996.146 66.6548 994.982 66.6548 993.545C66.6548 992.108 65.4591 990.944 63.9822 990.944Z" fill="#DADDF1"/>
<path d="M79.3103 990.944C77.8358 990.944 76.6377 992.108 76.6377 993.545C76.6377 994.98 77.8335 996.146 79.3103 996.146C80.7849 996.146 81.983 994.982 81.983 993.545C81.983 992.108 80.7872 990.944 79.3103 990.944Z" fill="#DADDF1"/>
<path d="M94.6394 990.944C93.1649 990.944 91.9668 992.108 91.9668 993.545C91.9668 994.98 93.1626 996.146 94.6394 996.146C96.114 996.146 97.3121 994.982 97.3121 993.545C97.3098 992.108 96.114 990.944 94.6394 990.944Z" fill="#DADDF1"/>
<path d="M109.966 990.944C108.491 990.944 107.293 992.108 107.293 993.545C107.293 994.98 108.489 996.146 109.966 996.146C111.44 996.146 112.638 994.982 112.638 993.545C112.638 992.108 111.442 990.944 109.966 990.944Z" fill="#DADDF1"/>
<path d="M125.294 990.944C123.819 990.944 122.621 992.108 122.621 993.545C122.621 994.98 123.817 996.146 125.294 996.146C126.768 996.146 127.966 994.982 127.966 993.545C127.966 992.108 126.771 990.944 125.294 990.944Z" fill="#DADDF1"/>
<path d="M140.622 990.944C139.145 990.944 137.949 992.108 137.949 993.545C137.949 994.98 139.145 996.146 140.622 996.146C142.096 996.146 143.295 994.982 143.295 993.545C143.295 992.108 142.096 990.944 140.622 990.944Z" fill="#DADDF1"/>
<path d="M155.951 990.944C154.474 990.944 153.278 992.108 153.278 993.545C153.278 994.98 154.474 996.146 155.951 996.146C157.426 996.146 158.624 994.982 158.624 993.545C158.621 992.108 157.426 990.944 155.951 990.944Z" fill="#DADDF1"/>
<path d="M171.277 990.944C169.803 990.944 168.604 992.108 168.604 993.545C168.604 994.98 169.8 996.146 171.277 996.146C172.752 996.146 173.95 994.982 173.95 993.545C173.95 992.108 172.754 990.944 171.277 990.944Z" fill="#DADDF1"/>
<path d="M186.605 990.944C185.131 990.944 183.933 992.108 183.933 993.545C183.933 994.98 185.128 996.146 186.605 996.146C188.08 996.146 189.278 994.982 189.278 993.545C189.276 992.108 188.08 990.944 186.605 990.944Z" fill="#DADDF1"/>
<path d="M201.931 990.944C200.457 990.944 199.259 992.108 199.259 993.545C199.259 994.98 200.455 996.146 201.931 996.146C203.408 996.146 204.604 994.982 204.604 993.545C204.604 992.108 203.408 990.944 201.931 990.944Z" fill="#DADDF1"/>
<path d="M217.261 990.944C215.786 990.944 214.588 992.108 214.588 993.545C214.588 994.98 215.784 996.146 217.261 996.146C218.735 996.146 219.933 994.982 219.933 993.545C219.933 992.108 218.737 990.944 217.261 990.944Z" fill="#DADDF1"/>
<path d="M232.589 990.944C231.114 990.944 229.916 992.108 229.916 993.545C229.916 994.98 231.112 996.146 232.589 996.146C234.063 996.146 235.261 994.982 235.261 993.545C235.261 992.108 234.063 990.944 232.589 990.944Z" fill="#DADDF1"/>
<path d="M247.918 990.944C246.443 990.944 245.245 992.108 245.245 993.545C245.245 994.98 246.441 996.146 247.918 996.146C249.395 996.146 250.59 994.982 250.59 993.545C250.588 992.108 249.392 990.944 247.918 990.944Z" fill="#DADDF1"/>
<path d="M263.244 990.944C261.769 990.944 260.571 992.108 260.571 993.545C260.571 994.98 261.767 996.146 263.244 996.146C264.718 996.146 265.917 994.982 265.917 993.545C265.917 992.108 264.721 990.944 263.244 990.944Z" fill="#DADDF1"/>
<path d="M2.67265 1005.04C1.19809 1005.04 0 1006.2 0 1007.64C0 1009.08 1.19578 1010.24 2.67265 1010.24C4.14721 1010.24 5.34529 1009.08 5.34529 1007.64C5.34529 1006.2 4.14721 1005.04 2.67265 1005.04Z" fill="#DADDF1"/>
<path d="M17.9988 1005.04C16.5243 1005.04 15.3262 1006.2 15.3262 1007.64C15.3262 1009.08 16.5219 1010.24 17.9988 1010.24C19.4734 1010.24 20.6715 1009.08 20.6715 1007.64C20.6715 1006.2 19.4757 1005.04 17.9988 1005.04Z" fill="#DADDF1"/>
<path d="M33.3269 1005.04C31.8524 1005.04 30.6543 1006.2 30.6543 1007.64C30.6543 1009.08 31.8501 1010.24 33.3269 1010.24C34.8038 1010.24 35.9996 1009.08 35.9996 1007.64C35.9996 1006.2 34.8015 1005.04 33.3269 1005.04Z" fill="#DADDF1"/>
<path d="M48.656 1005.04C47.1792 1005.04 45.9834 1006.2 45.9834 1007.64C45.9834 1009.08 47.1792 1010.24 48.656 1010.24C50.1306 1010.24 51.3287 1009.08 51.3287 1007.64C51.3287 1006.2 50.1306 1005.04 48.656 1005.04Z" fill="#DADDF1"/>
<path d="M63.9822 1005.04C62.5076 1005.04 61.3096 1006.2 61.3096 1007.64C61.3096 1009.08 62.5053 1010.24 63.9822 1010.24C65.4568 1010.24 66.6548 1009.08 66.6548 1007.64C66.6548 1006.2 65.4591 1005.04 63.9822 1005.04Z" fill="#DADDF1"/>
<path d="M79.3103 1005.04C77.8358 1005.04 76.6377 1006.2 76.6377 1007.64C76.6377 1009.08 77.8335 1010.24 79.3103 1010.24C80.7849 1010.24 81.983 1009.08 81.983 1007.64C81.983 1006.2 80.7872 1005.04 79.3103 1005.04Z" fill="#DADDF1"/>
<path d="M94.6394 1005.04C93.1649 1005.04 91.9668 1006.2 91.9668 1007.64C91.9668 1009.08 93.1626 1010.24 94.6394 1010.24C96.114 1010.24 97.3121 1009.08 97.3121 1007.64C97.3121 1006.2 96.114 1005.04 94.6394 1005.04Z" fill="#DADDF1"/>
<path d="M109.966 1005.04C108.491 1005.04 107.293 1006.2 107.293 1007.64C107.293 1009.08 108.489 1010.24 109.966 1010.24C111.44 1010.24 112.638 1009.08 112.638 1007.64C112.638 1006.2 111.442 1005.04 109.966 1005.04Z" fill="#DADDF1"/>
<path d="M125.294 1005.04C123.819 1005.04 122.621 1006.2 122.621 1007.64C122.621 1009.08 123.817 1010.24 125.294 1010.24C126.768 1010.24 127.966 1009.08 127.966 1007.64C127.966 1006.2 126.771 1005.04 125.294 1005.04Z" fill="#DADDF1"/>
<path d="M140.622 1005.04C139.145 1005.04 137.949 1006.2 137.949 1007.64C137.949 1009.08 139.145 1010.24 140.622 1010.24C142.096 1010.24 143.295 1009.08 143.295 1007.64C143.295 1006.2 142.096 1005.04 140.622 1005.04Z" fill="#DADDF1"/>
<path d="M155.951 1005.04C154.474 1005.04 153.278 1006.2 153.278 1007.64C153.278 1009.08 154.474 1010.24 155.951 1010.24C157.426 1010.24 158.624 1009.08 158.624 1007.64C158.624 1006.2 157.426 1005.04 155.951 1005.04Z" fill="#DADDF1"/>
<path d="M171.277 1005.04C169.803 1005.04 168.604 1006.2 168.604 1007.64C168.604 1009.08 169.8 1010.24 171.277 1010.24C172.752 1010.24 173.95 1009.08 173.95 1007.64C173.95 1006.2 172.754 1005.04 171.277 1005.04Z" fill="#DADDF1"/>
<path d="M186.605 1005.04C185.131 1005.04 183.933 1006.2 183.933 1007.64C183.933 1009.08 185.128 1010.24 186.605 1010.24C188.08 1010.24 189.278 1009.08 189.278 1007.64C189.278 1006.2 188.08 1005.04 186.605 1005.04Z" fill="#DADDF1"/>
<path d="M201.931 1005.04C200.457 1005.04 199.259 1006.2 199.259 1007.64C199.259 1009.08 200.455 1010.24 201.931 1010.24C203.408 1010.24 204.604 1009.08 204.604 1007.64C204.604 1006.2 203.408 1005.04 201.931 1005.04Z" fill="#DADDF1"/>
<path d="M217.261 1005.04C215.786 1005.04 214.588 1006.2 214.588 1007.64C214.588 1009.08 215.784 1010.24 217.261 1010.24C218.735 1010.24 219.933 1009.08 219.933 1007.64C219.933 1006.2 218.737 1005.04 217.261 1005.04Z" fill="#DADDF1"/>
<path d="M232.589 1005.04C231.114 1005.04 229.916 1006.2 229.916 1007.64C229.916 1009.08 231.112 1010.24 232.589 1010.24C234.063 1010.24 235.261 1009.08 235.261 1007.64C235.261 1006.2 234.063 1005.04 232.589 1005.04Z" fill="#DADDF1"/>
<path d="M247.918 1005.04C246.443 1005.04 245.245 1006.2 245.245 1007.64C245.245 1009.08 246.441 1010.24 247.918 1010.24C249.395 1010.24 250.59 1009.08 250.59 1007.64C250.59 1006.2 249.392 1005.04 247.918 1005.04Z" fill="#DADDF1"/>
<path d="M263.244 1005.04C261.769 1005.04 260.571 1006.2 260.571 1007.64C260.571 1009.08 261.767 1010.24 263.244 1010.24C264.718 1010.24 265.917 1009.08 265.917 1007.64C265.917 1006.2 264.721 1005.04 263.244 1005.04Z" fill="#DADDF1"/>
<path d="M1636.23 91.7539C1634.76 91.7539 1633.56 92.9175 1633.56 94.3546C1633.56 95.7895 1634.76 96.9553 1636.23 96.9553C1637.71 96.9553 1638.91 95.7917 1638.91 94.3546C1638.9 92.9175 1637.71 91.7539 1636.23 91.7539Z" fill="#DADDF1"/>
<path d="M1651.56 91.7539C1650.09 91.7539 1648.89 92.9175 1648.89 94.3546C1648.89 95.7895 1650.09 96.9553 1651.56 96.9553C1653.04 96.9553 1654.23 95.7917 1654.23 94.3546C1654.23 92.9175 1653.04 91.7539 1651.56 91.7539Z" fill="#DADDF1"/>
<path d="M1666.89 91.7539C1665.41 91.7539 1664.22 92.9175 1664.22 94.3546C1664.22 95.7895 1665.41 96.9553 1666.89 96.9553C1668.36 96.9553 1669.56 95.7917 1669.56 94.3546C1669.56 92.9175 1668.37 91.7539 1666.89 91.7539Z" fill="#DADDF1"/>
<path d="M1682.22 91.7539C1680.74 91.7539 1679.54 92.9175 1679.54 94.3546C1679.54 95.7895 1680.74 96.9553 1682.22 96.9553C1683.69 96.9553 1684.89 95.7917 1684.89 94.3546C1684.89 92.9175 1683.69 91.7539 1682.22 91.7539Z" fill="#DADDF1"/>
<path d="M1697.54 91.7539C1696.07 91.7539 1694.87 92.9175 1694.87 94.3546C1694.87 95.7895 1696.07 96.9553 1697.54 96.9553C1699.02 96.9553 1700.22 95.7917 1700.22 94.3546C1700.22 92.9175 1699.02 91.7539 1697.54 91.7539Z" fill="#DADDF1"/>
<path d="M1712.87 91.7539C1711.4 91.7539 1710.2 92.9175 1710.2 94.3546C1710.2 95.7895 1711.39 96.9553 1712.87 96.9553C1714.35 96.9553 1715.54 95.7917 1715.54 94.3546C1715.54 92.9175 1714.35 91.7539 1712.87 91.7539Z" fill="#DADDF1"/>
<path d="M1728.2 91.7539C1726.73 91.7539 1725.53 92.9175 1725.53 94.3546C1725.53 95.7895 1726.72 96.9553 1728.2 96.9553C1729.68 96.9553 1730.87 95.7917 1730.87 94.3546C1730.87 92.9175 1729.68 91.7539 1728.2 91.7539Z" fill="#DADDF1"/>
<path d="M1743.53 91.7539C1742.05 91.7539 1740.86 92.9175 1740.86 94.3546C1740.86 95.7895 1742.05 96.9553 1743.53 96.9553C1745.01 96.9553 1746.2 95.7917 1746.2 94.3546C1746.2 92.9175 1745 91.7539 1743.53 91.7539Z" fill="#DADDF1"/>
<path d="M1758.86 91.7539C1757.38 91.7539 1756.18 92.9175 1756.18 94.3546C1756.18 95.7895 1757.38 96.9553 1758.86 96.9553C1760.33 96.9553 1761.53 95.7917 1761.53 94.3546C1761.53 92.9175 1760.33 91.7539 1758.86 91.7539Z" fill="#DADDF1"/>
<path d="M1774.18 91.7539C1772.71 91.7539 1771.51 92.9175 1771.51 94.3546C1771.51 95.7895 1772.71 96.9553 1774.18 96.9553C1775.66 96.9553 1776.86 95.7917 1776.86 94.3546C1776.86 92.9175 1775.66 91.7539 1774.18 91.7539Z" fill="#DADDF1"/>
<path d="M1789.51 91.7539C1788.04 91.7539 1786.84 92.9175 1786.84 94.3546C1786.84 95.7895 1788.04 96.9553 1789.51 96.9553C1790.99 96.9553 1792.19 95.7917 1792.19 94.3546C1792.18 92.9175 1790.99 91.7539 1789.51 91.7539Z" fill="#DADDF1"/>
<path d="M1804.84 91.7539C1803.36 91.7539 1802.17 92.9175 1802.17 94.3546C1802.17 95.7895 1803.36 96.9553 1804.84 96.9553C1806.31 96.9553 1807.51 95.7917 1807.51 94.3546C1807.51 92.9175 1806.32 91.7539 1804.84 91.7539Z" fill="#DADDF1"/>
<path d="M1820.17 91.7539C1818.69 91.7539 1817.49 92.9175 1817.49 94.3546C1817.49 95.7895 1818.69 96.9553 1820.17 96.9553C1821.64 96.9553 1822.84 95.7917 1822.84 94.3546C1822.84 92.9175 1821.64 91.7539 1820.17 91.7539Z" fill="#DADDF1"/>
<path d="M1835.5 91.7539C1834.02 91.7539 1832.82 92.9175 1832.82 94.3546C1832.82 95.7895 1834.02 96.9553 1835.5 96.9553C1836.97 96.9553 1838.17 95.7917 1838.17 94.3546C1838.17 92.9175 1836.97 91.7539 1835.5 91.7539Z" fill="#DADDF1"/>
<path d="M1850.82 91.7539C1849.35 91.7539 1848.15 92.9175 1848.15 94.3546C1848.15 95.7895 1849.35 96.9553 1850.82 96.9553C1852.3 96.9553 1853.49 95.7917 1853.49 94.3546C1853.49 92.9175 1852.3 91.7539 1850.82 91.7539Z" fill="#DADDF1"/>
<path d="M1866.15 91.7539C1864.67 91.7539 1863.48 92.9175 1863.48 94.3546C1863.48 95.7895 1864.67 96.9553 1866.15 96.9553C1867.63 96.9553 1868.82 95.7917 1868.82 94.3546C1868.82 92.9175 1867.63 91.7539 1866.15 91.7539Z" fill="#DADDF1"/>
<path d="M1881.48 91.7539C1880 91.7539 1878.81 92.9175 1878.81 94.3546C1878.81 95.7895 1880 96.9553 1881.48 96.9553C1882.95 96.9553 1884.15 95.7917 1884.15 94.3546C1884.15 92.9175 1882.95 91.7539 1881.48 91.7539Z" fill="#DADDF1"/>
<path d="M1896.81 96.9529C1898.28 96.9529 1899.48 95.7893 1899.48 94.3522C1899.48 92.9173 1898.28 91.7515 1896.81 91.7515C1895.33 91.7515 1894.13 92.9151 1894.13 94.3522C1894.13 95.7893 1895.33 96.9529 1896.81 96.9529Z" fill="#DADDF1"/>
<path d="M1636.23 105.847C1634.76 105.847 1633.56 107.01 1633.56 108.447C1633.56 109.885 1634.76 111.048 1636.23 111.048C1637.71 111.048 1638.91 109.885 1638.91 108.447C1638.9 107.01 1637.71 105.847 1636.23 105.847Z" fill="#DADDF1"/>
<path d="M1651.56 105.847C1650.09 105.847 1648.89 107.01 1648.89 108.447C1648.89 109.885 1650.09 111.048 1651.56 111.048C1653.04 111.048 1654.23 109.885 1654.23 108.447C1654.23 107.01 1653.04 105.847 1651.56 105.847Z" fill="#DADDF1"/>
<path d="M1666.89 105.847C1665.41 105.847 1664.22 107.01 1664.22 108.447C1664.22 109.885 1665.41 111.048 1666.89 111.048C1668.36 111.048 1669.56 109.885 1669.56 108.447C1669.56 107.01 1668.37 105.847 1666.89 105.847Z" fill="#DADDF1"/>
<path d="M1682.22 105.847C1680.74 105.847 1679.54 107.01 1679.54 108.447C1679.54 109.885 1680.74 111.048 1682.22 111.048C1683.69 111.048 1684.89 109.885 1684.89 108.447C1684.89 107.01 1683.69 105.847 1682.22 105.847Z" fill="#DADDF1"/>
<path d="M1697.54 105.847C1696.07 105.847 1694.87 107.01 1694.87 108.447C1694.87 109.885 1696.07 111.048 1697.54 111.048C1699.02 111.048 1700.22 109.885 1700.22 108.447C1700.22 107.01 1699.02 105.847 1697.54 105.847Z" fill="#DADDF1"/>
<path d="M1712.87 105.847C1711.4 105.847 1710.2 107.01 1710.2 108.447C1710.2 109.885 1711.39 111.048 1712.87 111.048C1714.35 111.048 1715.54 109.885 1715.54 108.447C1715.54 107.01 1714.35 105.847 1712.87 105.847Z" fill="#DADDF1"/>
<path d="M1728.2 105.847C1726.73 105.847 1725.53 107.01 1725.53 108.447C1725.53 109.885 1726.72 111.048 1728.2 111.048C1729.68 111.048 1730.87 109.885 1730.87 108.447C1730.87 107.01 1729.68 105.847 1728.2 105.847Z" fill="#DADDF1"/>
<path d="M1743.53 105.847C1742.05 105.847 1740.86 107.01 1740.86 108.447C1740.86 109.885 1742.05 111.048 1743.53 111.048C1745.01 111.048 1746.2 109.885 1746.2 108.447C1746.2 107.01 1745 105.847 1743.53 105.847Z" fill="#DADDF1"/>
<path d="M1758.86 105.847C1757.38 105.847 1756.18 107.01 1756.18 108.447C1756.18 109.885 1757.38 111.048 1758.86 111.048C1760.33 111.048 1761.53 109.885 1761.53 108.447C1761.53 107.01 1760.33 105.847 1758.86 105.847Z" fill="#DADDF1"/>
<path d="M1774.18 105.847C1772.71 105.847 1771.51 107.01 1771.51 108.447C1771.51 109.885 1772.71 111.048 1774.18 111.048C1775.66 111.048 1776.86 109.885 1776.86 108.447C1776.86 107.01 1775.66 105.847 1774.18 105.847Z" fill="#DADDF1"/>
<path d="M1789.51 105.847C1788.04 105.847 1786.84 107.01 1786.84 108.447C1786.84 109.885 1788.04 111.048 1789.51 111.048C1790.99 111.048 1792.19 109.885 1792.19 108.447C1792.18 107.01 1790.99 105.847 1789.51 105.847Z" fill="#DADDF1"/>
<path d="M1804.84 105.847C1803.36 105.847 1802.17 107.01 1802.17 108.447C1802.17 109.885 1803.36 111.048 1804.84 111.048C1806.31 111.048 1807.51 109.885 1807.51 108.447C1807.51 107.01 1806.32 105.847 1804.84 105.847Z" fill="#DADDF1"/>
<path d="M1820.17 105.847C1818.69 105.847 1817.49 107.01 1817.49 108.447C1817.49 109.885 1818.69 111.048 1820.17 111.048C1821.64 111.048 1822.84 109.885 1822.84 108.447C1822.84 107.01 1821.64 105.847 1820.17 105.847Z" fill="#DADDF1"/>
<path d="M1835.5 105.847C1834.02 105.847 1832.82 107.01 1832.82 108.447C1832.82 109.885 1834.02 111.048 1835.5 111.048C1836.97 111.048 1838.17 109.885 1838.17 108.447C1838.17 107.01 1836.97 105.847 1835.5 105.847Z" fill="#DADDF1"/>
<path d="M1850.82 105.847C1849.35 105.847 1848.15 107.01 1848.15 108.447C1848.15 109.885 1849.35 111.048 1850.82 111.048C1852.3 111.048 1853.49 109.885 1853.49 108.447C1853.49 107.01 1852.3 105.847 1850.82 105.847Z" fill="#DADDF1"/>
<path d="M1866.15 105.847C1864.67 105.847 1863.48 107.01 1863.48 108.447C1863.48 109.885 1864.67 111.048 1866.15 111.048C1867.63 111.048 1868.82 109.885 1868.82 108.447C1868.82 107.01 1867.63 105.847 1866.15 105.847Z" fill="#DADDF1"/>
<path d="M1881.48 105.847C1880 105.847 1878.81 107.01 1878.81 108.447C1878.81 109.885 1880 111.048 1881.48 111.048C1882.95 111.048 1884.15 109.885 1884.15 108.447C1884.15 107.01 1882.95 105.847 1881.48 105.847Z" fill="#DADDF1"/>
<path d="M1896.81 105.847C1895.33 105.847 1894.13 107.01 1894.13 108.447C1894.13 109.885 1895.33 111.048 1896.81 111.048C1898.28 111.048 1899.48 109.885 1899.48 108.447C1899.48 107.01 1898.28 105.847 1896.81 105.847Z" fill="#DADDF1"/>
<path d="M1636.23 119.942C1634.76 119.942 1633.56 121.106 1633.56 122.543C1633.56 123.978 1634.76 125.144 1636.23 125.144C1637.71 125.144 1638.91 123.98 1638.91 122.543C1638.9 121.106 1637.71 119.942 1636.23 119.942Z" fill="#DADDF1"/>
<path d="M1651.56 119.942C1650.09 119.942 1648.89 121.106 1648.89 122.543C1648.89 123.978 1650.09 125.144 1651.56 125.144C1653.04 125.144 1654.23 123.98 1654.23 122.543C1654.23 121.106 1653.04 119.942 1651.56 119.942Z" fill="#DADDF1"/>
<path d="M1666.89 119.942C1665.41 119.942 1664.22 121.106 1664.22 122.543C1664.22 123.978 1665.41 125.144 1666.89 125.144C1668.36 125.144 1669.56 123.98 1669.56 122.543C1669.56 121.106 1668.37 119.942 1666.89 119.942Z" fill="#DADDF1"/>
<path d="M1682.22 119.942C1680.74 119.942 1679.54 121.106 1679.54 122.543C1679.54 123.978 1680.74 125.144 1682.22 125.144C1683.69 125.144 1684.89 123.98 1684.89 122.543C1684.89 121.106 1683.69 119.942 1682.22 119.942Z" fill="#DADDF1"/>
<path d="M1697.54 119.942C1696.07 119.942 1694.87 121.106 1694.87 122.543C1694.87 123.978 1696.07 125.144 1697.54 125.144C1699.02 125.144 1700.22 123.98 1700.22 122.543C1700.22 121.106 1699.02 119.942 1697.54 119.942Z" fill="#DADDF1"/>
<path d="M1712.87 119.942C1711.4 119.942 1710.2 121.106 1710.2 122.543C1710.2 123.978 1711.39 125.144 1712.87 125.144C1714.35 125.144 1715.54 123.98 1715.54 122.543C1715.54 121.106 1714.35 119.942 1712.87 119.942Z" fill="#DADDF1"/>
<path d="M1728.2 119.942C1726.73 119.942 1725.53 121.106 1725.53 122.543C1725.53 123.978 1726.72 125.144 1728.2 125.144C1729.68 125.144 1730.87 123.98 1730.87 122.543C1730.87 121.106 1729.68 119.942 1728.2 119.942Z" fill="#DADDF1"/>
<path d="M1743.53 119.942C1742.05 119.942 1740.86 121.106 1740.86 122.543C1740.86 123.978 1742.05 125.144 1743.53 125.144C1745.01 125.144 1746.2 123.98 1746.2 122.543C1746.2 121.106 1745 119.942 1743.53 119.942Z" fill="#DADDF1"/>
<path d="M1758.86 119.942C1757.38 119.942 1756.18 121.106 1756.18 122.543C1756.18 123.978 1757.38 125.144 1758.86 125.144C1760.33 125.144 1761.53 123.98 1761.53 122.543C1761.53 121.106 1760.33 119.942 1758.86 119.942Z" fill="#DADDF1"/>
<path d="M1774.18 119.942C1772.71 119.942 1771.51 121.106 1771.51 122.543C1771.51 123.978 1772.71 125.144 1774.18 125.144C1775.66 125.144 1776.86 123.98 1776.86 122.543C1776.86 121.106 1775.66 119.942 1774.18 119.942Z" fill="#DADDF1"/>
<path d="M1789.51 119.942C1788.04 119.942 1786.84 121.106 1786.84 122.543C1786.84 123.978 1788.04 125.144 1789.51 125.144C1790.99 125.144 1792.19 123.98 1792.19 122.543C1792.18 121.106 1790.99 119.942 1789.51 119.942Z" fill="#DADDF1"/>
<path d="M1804.84 119.942C1803.36 119.942 1802.17 121.106 1802.17 122.543C1802.17 123.978 1803.36 125.144 1804.84 125.144C1806.31 125.144 1807.51 123.98 1807.51 122.543C1807.51 121.106 1806.32 119.942 1804.84 119.942Z" fill="#DADDF1"/>
<path d="M1820.17 119.942C1818.69 119.942 1817.49 121.106 1817.49 122.543C1817.49 123.978 1818.69 125.144 1820.17 125.144C1821.64 125.144 1822.84 123.98 1822.84 122.543C1822.84 121.106 1821.64 119.942 1820.17 119.942Z" fill="#DADDF1"/>
<path d="M1835.5 119.942C1834.02 119.942 1832.82 121.106 1832.82 122.543C1832.82 123.978 1834.02 125.144 1835.5 125.144C1836.97 125.144 1838.17 123.98 1838.17 122.543C1838.17 121.106 1836.97 119.942 1835.5 119.942Z" fill="#DADDF1"/>
<path d="M1850.82 119.942C1849.35 119.942 1848.15 121.106 1848.15 122.543C1848.15 123.978 1849.35 125.144 1850.82 125.144C1852.3 125.144 1853.49 123.98 1853.49 122.543C1853.49 121.106 1852.3 119.942 1850.82 119.942Z" fill="#DADDF1"/>
<path d="M1866.15 119.942C1864.67 119.942 1863.48 121.106 1863.48 122.543C1863.48 123.978 1864.67 125.144 1866.15 125.144C1867.63 125.144 1868.82 123.98 1868.82 122.543C1868.82 121.106 1867.63 119.942 1866.15 119.942Z" fill="#DADDF1"/>
<path d="M1881.48 119.942C1880 119.942 1878.81 121.106 1878.81 122.543C1878.81 123.978 1880 125.144 1881.48 125.144C1882.95 125.144 1884.15 123.98 1884.15 122.543C1884.15 121.106 1882.95 119.942 1881.48 119.942Z" fill="#DADDF1"/>
<path d="M1896.81 119.942C1895.33 119.942 1894.13 121.106 1894.13 122.543C1894.13 123.978 1895.33 125.144 1896.81 125.144C1898.28 125.144 1899.48 123.98 1899.48 122.543C1899.48 121.106 1898.28 119.942 1896.81 119.942Z" fill="#DADDF1"/>
<path d="M431.127 2.60072C431.127 1.16584 429.931 0 428.454 0C426.977 0 425.781 1.1636 425.781 2.60072C425.781 4.0356 426.977 5.20144 428.454 5.20144C429.931 5.20144 431.127 4.03784 431.127 2.60072Z" fill="#DADDF1"/>
<path d="M431.127 17.5167C431.127 16.0819 429.931 14.916 428.454 14.916C426.977 14.916 425.781 16.0796 425.781 17.5167C425.781 18.9516 426.977 20.1175 428.454 20.1175C429.931 20.1152 431.127 18.9516 431.127 17.5167Z" fill="#DADDF1"/>
<path d="M431.127 32.4328C431.127 30.9979 429.931 29.832 428.454 29.832C426.977 29.832 425.781 30.9956 425.781 32.4328C425.781 33.8676 426.977 35.0335 428.454 35.0335C429.931 35.0312 431.127 33.8676 431.127 32.4328Z" fill="#DADDF1"/>
<path d="M431.127 47.3463C431.127 45.9114 429.931 44.7456 428.454 44.7456C426.977 44.7456 425.781 45.9092 425.781 47.3463C425.781 48.7834 426.977 49.947 428.454 49.947C429.931 49.947 431.127 48.7834 431.127 47.3463Z" fill="#DADDF1"/>
<path d="M431.127 62.2628C431.127 60.8279 429.931 59.6621 428.454 59.6621C426.977 59.6621 425.781 60.8257 425.781 62.2628C425.781 63.6977 426.977 64.8635 428.454 64.8635C429.931 64.8635 431.127 63.6977 431.127 62.2628Z" fill="#DADDF1"/>
<path d="M431.127 77.1788C431.127 75.744 429.931 74.5781 428.454 74.5781C426.977 74.5781 425.781 75.7417 425.781 77.1788C425.781 78.616 426.977 79.7796 428.454 79.7796C429.931 79.7773 431.127 78.6137 431.127 77.1788Z" fill="#DADDF1"/>
<path d="M431.127 92.0924C431.127 90.6575 429.931 89.4917 428.454 89.4917C426.977 89.4917 425.781 90.6553 425.781 92.0924C425.781 93.5295 426.977 94.6931 428.454 94.6931C429.931 94.6931 431.127 93.5295 431.127 92.0924Z" fill="#DADDF1"/>
<path d="M431.127 107.008C431.127 105.574 429.931 104.408 428.454 104.408C426.977 104.408 425.781 105.571 425.781 107.008C425.781 108.443 426.977 109.609 428.454 109.609C429.931 109.609 431.127 108.443 431.127 107.008Z" fill="#DADDF1"/>
<path d="M431.127 121.924C431.127 120.49 429.931 119.324 428.454 119.324C426.977 119.324 425.781 120.487 425.781 121.924C425.781 123.359 426.977 124.525 428.454 124.525C429.931 124.523 431.127 123.359 431.127 121.924Z" fill="#DADDF1"/>
<path d="M431.127 136.838C431.127 135.403 429.931 134.237 428.454 134.237C426.977 134.237 425.781 135.401 425.781 136.838C425.781 138.273 426.977 139.439 428.454 139.439C429.931 139.439 431.127 138.275 431.127 136.838Z" fill="#DADDF1"/>
<path d="M431.127 151.754C431.127 150.317 429.931 149.153 428.454 149.153C426.977 149.153 425.781 150.317 425.781 151.754C425.781 153.189 426.977 154.355 428.454 154.355C429.931 154.355 431.127 153.191 431.127 151.754Z" fill="#DADDF1"/>
<path d="M431.127 166.67C431.127 165.233 429.931 164.069 428.454 164.069C426.977 164.069 425.781 165.233 425.781 166.67C425.781 168.105 426.977 169.271 428.454 169.271C429.931 169.269 431.127 168.105 431.127 166.67Z" fill="#DADDF1"/>
<path d="M431.127 181.584C431.127 180.149 429.931 178.983 428.454 178.983C426.977 178.983 425.781 180.147 425.781 181.584C425.781 183.019 426.977 184.185 428.454 184.185C429.931 184.185 431.127 183.021 431.127 181.584Z" fill="#DADDF1"/>
<path d="M431.127 196.5C431.127 195.065 429.931 193.899 428.454 193.899C426.977 193.899 425.781 195.063 425.781 196.5C425.781 197.937 426.977 199.101 428.454 199.101C429.931 199.101 431.127 197.937 431.127 196.5Z" fill="#DADDF1"/>
<path d="M431.127 211.416C431.127 209.979 429.931 208.815 428.454 208.815C426.977 208.815 425.781 209.979 425.781 211.416C425.781 212.853 426.977 214.017 428.454 214.017C429.931 214.015 431.127 212.851 431.127 211.416Z" fill="#DADDF1"/>
<path d="M431.127 226.332C431.127 224.895 429.931 223.731 428.454 223.731C426.977 223.731 425.781 224.895 425.781 226.332C425.781 227.767 426.977 228.933 428.454 228.933C429.931 228.931 431.127 227.767 431.127 226.332Z" fill="#DADDF1"/>
<path d="M431.127 241.246C431.127 239.811 429.931 238.645 428.454 238.645C426.977 238.645 425.781 239.809 425.781 241.246C425.781 242.681 426.977 243.846 428.454 243.846C429.931 243.846 431.127 242.683 431.127 241.246Z" fill="#DADDF1"/>
<path d="M425.784 256.162C425.784 257.597 426.98 258.762 428.457 258.762C429.931 258.762 431.129 257.599 431.129 256.162C431.129 254.725 429.934 253.561 428.457 253.561C426.98 253.561 425.784 254.725 425.784 256.162Z" fill="#DADDF1"/>
<path d="M416.644 2.60072C416.644 1.16584 415.448 0 413.971 0C412.497 0 411.299 1.1636 411.299 2.60072C411.299 4.0356 412.495 5.20144 413.971 5.20144C415.448 5.20144 416.644 4.03784 416.644 2.60072Z" fill="#DADDF1"/>
<path d="M416.644 17.5167C416.644 16.0819 415.448 14.916 413.971 14.916C412.497 14.916 411.299 16.0796 411.299 17.5167C411.299 18.9516 412.495 20.1175 413.971 20.1175C415.448 20.1152 416.644 18.9516 416.644 17.5167Z" fill="#DADDF1"/>
<path d="M416.644 32.4328C416.644 30.9979 415.448 29.832 413.971 29.832C412.497 29.832 411.299 30.9956 411.299 32.4328C411.299 33.8676 412.495 35.0335 413.971 35.0335C415.448 35.0312 416.644 33.8676 416.644 32.4328Z" fill="#DADDF1"/>
<path d="M416.644 47.3463C416.644 45.9114 415.448 44.7456 413.971 44.7456C412.497 44.7456 411.299 45.9092 411.299 47.3463C411.299 48.7834 412.495 49.947 413.971 49.947C415.448 49.947 416.644 48.7834 416.644 47.3463Z" fill="#DADDF1"/>
<path d="M416.644 62.2623C416.644 60.8275 415.448 59.6616 413.971 59.6616C412.497 59.6616 411.299 60.8252 411.299 62.2623C411.299 63.6972 412.495 64.8631 413.971 64.8631C415.448 64.8631 416.644 63.6972 416.644 62.2623Z" fill="#DADDF1"/>
<path d="M416.644 77.1788C416.644 75.744 415.448 74.5781 413.971 74.5781C412.497 74.5781 411.299 75.7417 411.299 77.1788C411.299 78.616 412.495 79.7796 413.971 79.7796C415.448 79.7773 416.644 78.6137 416.644 77.1788Z" fill="#DADDF1"/>
<path d="M416.644 92.0924C416.644 90.6575 415.448 89.4917 413.971 89.4917C412.497 89.4917 411.299 90.6553 411.299 92.0924C411.299 93.5295 412.495 94.6931 413.971 94.6931C415.448 94.6931 416.644 93.5295 416.644 92.0924Z" fill="#DADDF1"/>
<path d="M416.644 107.008C416.644 105.574 415.448 104.408 413.971 104.408C412.497 104.408 411.299 105.571 411.299 107.008C411.299 108.443 412.495 109.609 413.971 109.609C415.448 109.609 416.644 108.443 416.644 107.008Z" fill="#DADDF1"/>
<path d="M416.644 121.924C416.644 120.49 415.448 119.324 413.971 119.324C412.497 119.324 411.299 120.487 411.299 121.924C411.299 123.359 412.495 124.525 413.971 124.525C415.448 124.523 416.644 123.359 416.644 121.924Z" fill="#DADDF1"/>
<path d="M416.644 136.838C416.644 135.403 415.448 134.237 413.971 134.237C412.497 134.237 411.299 135.401 411.299 136.838C411.299 138.273 412.495 139.439 413.971 139.439C415.448 139.439 416.644 138.275 416.644 136.838Z" fill="#DADDF1"/>
<path d="M416.644 151.754C416.644 150.317 415.448 149.153 413.971 149.153C412.497 149.153 411.299 150.317 411.299 151.754C411.299 153.189 412.495 154.355 413.971 154.355C415.448 154.355 416.644 153.191 416.644 151.754Z" fill="#DADDF1"/>
<path d="M416.644 166.67C416.644 165.233 415.448 164.069 413.971 164.069C412.497 164.069 411.299 165.233 411.299 166.67C411.299 168.105 412.495 169.271 413.971 169.271C415.448 169.269 416.644 168.105 416.644 166.67Z" fill="#DADDF1"/>
<path d="M416.644 181.584C416.644 180.149 415.448 178.983 413.971 178.983C412.497 178.983 411.299 180.147 411.299 181.584C411.299 183.019 412.495 184.185 413.971 184.185C415.448 184.185 416.644 183.021 416.644 181.584Z" fill="#DADDF1"/>
<path d="M416.644 196.5C416.644 195.065 415.448 193.899 413.971 193.899C412.497 193.899 411.299 195.063 411.299 196.5C411.299 197.937 412.495 199.101 413.971 199.101C415.448 199.101 416.644 197.937 416.644 196.5Z" fill="#DADDF1"/>
<path d="M416.644 211.416C416.644 209.979 415.448 208.815 413.971 208.815C412.497 208.815 411.299 209.979 411.299 211.416C411.299 212.853 412.495 214.017 413.971 214.017C415.448 214.015 416.644 212.851 416.644 211.416Z" fill="#DADDF1"/>
<path d="M416.644 226.332C416.644 224.895 415.448 223.731 413.971 223.731C412.497 223.731 411.299 224.895 411.299 226.332C411.299 227.767 412.495 228.933 413.971 228.933C415.448 228.931 416.644 227.767 416.644 226.332Z" fill="#DADDF1"/>
<path d="M416.644 241.246C416.644 239.811 415.448 238.645 413.971 238.645C412.497 238.645 411.299 239.809 411.299 241.246C411.299 242.681 412.495 243.846 413.971 243.846C415.448 243.846 416.644 242.683 416.644 241.246Z" fill="#DADDF1"/>
<path d="M416.644 256.162C416.644 254.725 415.448 253.561 413.971 253.561C412.497 253.561 411.299 254.725 411.299 256.162C411.299 257.597 412.495 258.762 413.971 258.762C415.448 258.76 416.644 257.597 416.644 256.162Z" fill="#DADDF1"/>
<path d="M402.159 2.60072C402.159 1.16584 400.963 0 399.486 0C398.009 0 396.813 1.1636 396.813 2.60072C396.813 4.0356 398.009 5.20144 399.486 5.20144C400.963 5.20144 402.159 4.03784 402.159 2.60072Z" fill="#DADDF1"/>
<path d="M402.159 17.5167C402.159 16.0819 400.963 14.916 399.486 14.916C398.009 14.916 396.813 16.0796 396.813 17.5167C396.813 18.9516 398.009 20.1175 399.486 20.1175C400.963 20.1152 402.159 18.9516 402.159 17.5167Z" fill="#DADDF1"/>
<path d="M402.159 32.4328C402.159 30.9979 400.963 29.832 399.486 29.832C398.009 29.832 396.813 30.9956 396.813 32.4328C396.813 33.8676 398.009 35.0335 399.486 35.0335C400.963 35.0312 402.159 33.8676 402.159 32.4328Z" fill="#DADDF1"/>
<path d="M402.159 47.3463C402.159 45.9114 400.963 44.7456 399.486 44.7456C398.009 44.7456 396.813 45.9092 396.813 47.3463C396.813 48.7834 398.009 49.947 399.486 49.947C400.963 49.947 402.159 48.7834 402.159 47.3463Z" fill="#DADDF1"/>
<path d="M402.159 62.2623C402.159 60.8275 400.963 59.6616 399.486 59.6616C398.009 59.6616 396.813 60.8252 396.813 62.2623C396.813 63.6972 398.009 64.8631 399.486 64.8631C400.963 64.8631 402.159 63.6972 402.159 62.2623Z" fill="#DADDF1"/>
<path d="M402.159 77.1788C402.159 75.744 400.963 74.5781 399.486 74.5781C398.009 74.5781 396.813 75.7417 396.813 77.1788C396.813 78.616 398.009 79.7796 399.486 79.7796C400.963 79.7773 402.159 78.6137 402.159 77.1788Z" fill="#DADDF1"/>
<path d="M402.159 92.0924C402.159 90.6575 400.963 89.4917 399.486 89.4917C398.009 89.4917 396.813 90.6553 396.813 92.0924C396.813 93.5295 398.009 94.6931 399.486 94.6931C400.963 94.6931 402.159 93.5295 402.159 92.0924Z" fill="#DADDF1"/>
<path d="M402.159 107.008C402.159 105.574 400.963 104.408 399.486 104.408C398.009 104.408 396.813 105.571 396.813 107.008C396.813 108.443 398.009 109.609 399.486 109.609C400.963 109.609 402.159 108.443 402.159 107.008Z" fill="#DADDF1"/>
<path d="M402.159 121.924C402.159 120.49 400.963 119.324 399.486 119.324C398.009 119.324 396.813 120.487 396.813 121.924C396.813 123.359 398.009 124.525 399.486 124.525C400.963 124.523 402.159 123.359 402.159 121.924Z" fill="#DADDF1"/>
<path d="M402.159 136.838C402.159 135.403 400.963 134.237 399.486 134.237C398.009 134.237 396.813 135.401 396.813 136.838C396.813 138.273 398.009 139.439 399.486 139.439C400.963 139.439 402.159 138.275 402.159 136.838Z" fill="#DADDF1"/>
<path d="M402.159 151.754C402.159 150.317 400.963 149.153 399.486 149.153C398.009 149.153 396.813 150.317 396.813 151.754C396.813 153.189 398.009 154.355 399.486 154.355C400.963 154.355 402.159 153.191 402.159 151.754Z" fill="#DADDF1"/>
<path d="M402.159 166.67C402.159 165.233 400.963 164.069 399.486 164.069C398.009 164.069 396.813 165.233 396.813 166.67C396.813 168.105 398.009 169.271 399.486 169.271C400.963 169.269 402.159 168.105 402.159 166.67Z" fill="#DADDF1"/>
<path d="M402.159 181.584C402.159 180.149 400.963 178.983 399.486 178.983C398.009 178.983 396.813 180.147 396.813 181.584C396.813 183.019 398.009 184.185 399.486 184.185C400.963 184.185 402.159 183.021 402.159 181.584Z" fill="#DADDF1"/>
<path d="M402.159 196.5C402.159 195.065 400.963 193.899 399.486 193.899C398.009 193.899 396.813 195.063 396.813 196.5C396.813 197.937 398.009 199.101 399.486 199.101C400.963 199.101 402.159 197.937 402.159 196.5Z" fill="#DADDF1"/>
<path d="M402.159 211.416C402.159 209.979 400.963 208.815 399.486 208.815C398.009 208.815 396.813 209.979 396.813 211.416C396.813 212.853 398.009 214.017 399.486 214.017C400.963 214.015 402.159 212.851 402.159 211.416Z" fill="#DADDF1"/>
<path d="M402.159 226.332C402.159 224.895 400.963 223.731 399.486 223.731C398.009 223.731 396.813 224.895 396.813 226.332C396.813 227.767 398.009 228.933 399.486 228.933C400.963 228.931 402.159 227.767 402.159 226.332Z" fill="#DADDF1"/>
<path d="M402.159 241.246C402.159 239.811 400.963 238.645 399.486 238.645C398.009 238.645 396.813 239.809 396.813 241.246C396.813 242.681 398.009 243.846 399.486 243.846C400.963 243.846 402.159 242.683 402.159 241.246Z" fill="#DADDF1"/>
<path d="M402.159 256.162C402.159 254.725 400.963 253.561 399.486 253.561C398.009 253.561 396.813 254.725 396.813 256.162C396.813 257.597 398.009 258.762 399.486 258.762C400.963 258.76 402.159 257.597 402.159 256.162Z" fill="#DADDF1"/>
<path d="M356.006 138.941C361.436 125.932 355 111.102 341.631 105.818C328.262 100.534 313.022 106.797 307.592 119.807C302.163 132.816 308.599 147.646 321.968 152.929C335.337 158.213 350.577 151.95 356.006 138.941Z" fill="#DADDF1"/>
<path d="M331.806 259.971C346.236 259.971 357.933 248.588 357.933 234.547C357.933 220.505 346.236 209.123 331.806 209.123C317.376 209.123 305.679 220.505 305.679 234.547C305.679 248.588 317.376 259.971 331.806 259.971Z" fill="#DADDF1"/>
<path d="M331.806 510.506C315.494 510.506 302.223 497.589 302.223 481.716C302.223 465.843 315.494 452.929 331.806 452.929C348.118 452.929 361.389 465.843 361.389 481.716C361.389 497.589 348.118 510.506 331.806 510.506ZM331.806 459.655C319.305 459.655 309.135 469.551 309.135 481.716C309.135 493.881 319.307 503.78 331.806 503.78C344.308 503.78 354.477 493.881 354.477 481.716C354.477 469.551 344.308 459.655 331.806 459.655Z" fill="#F0FFF0"/>
<path d="M1530.42 988.514C1544.6 985.874 1553.89 972.554 1551.17 958.763C1548.46 944.971 1534.77 935.931 1520.6 938.571C1506.43 941.211 1497.14 954.531 1499.85 968.322C1502.56 982.114 1516.25 991.154 1530.42 988.514Z" fill="#DADDF1"/>
<path d="M1637.6 988.582C1651.85 986.38 1661.56 973.354 1659.3 959.487C1657.04 945.619 1643.65 936.162 1629.4 938.364C1615.15 940.566 1605.43 953.592 1607.7 967.46C1609.96 981.327 1623.34 990.784 1637.6 988.582Z" fill="#DADDF1"/>
<path d="M1663.14 596.592C1663.14 612.465 1649.87 625.379 1633.56 625.379C1617.25 625.379 1603.97 612.465 1603.97 596.592C1603.97 580.719 1617.25 567.805 1633.56 567.805C1649.87 567.805 1663.14 580.719 1663.14 596.592ZM1610.89 596.592C1610.89 608.757 1621.06 618.653 1633.56 618.653C1646.06 618.653 1656.23 608.757 1656.23 596.592C1656.23 584.427 1646.06 574.531 1633.56 574.531C1621.06 574.531 1610.89 584.427 1610.89 596.592Z" fill="#F0FFF0"/>
</svg>
