<svg width="693" height="702" viewBox="0 0 693 702" fill="none" xmlns="http://www.w3.org/2000/svg">
<g opacity="0.7">
<ellipse cx="355.267" cy="364.049" rx="152.606" ry="152.705" stroke="url(#paint0_linear_89_989)" stroke-width="4"/>
<ellipse cx="355.266" cy="364.049" rx="91.5636" ry="91.623" stroke="url(#paint1_linear_89_989)" stroke-width="4"/>
<ellipse cx="355.266" cy="364.049" rx="213.648" ry="213.787" stroke="url(#paint2_linear_89_989)" stroke-width="4"/>
<ellipse cx="355.267" cy="364.049" rx="274.691" ry="274.869" stroke="url(#paint3_linear_89_989)" stroke-width="4"/>
<ellipse cx="355.267" cy="364.049" rx="335.733" ry="335.951" stroke="url(#paint4_linear_89_989)" stroke-width="4"/>
<path d="M665.553 501.47C664.847 502.132 663.904 502.501 662.922 502.501C661.94 502.501 660.996 502.132 660.29 501.47C653.825 495.377 645.162 488.57 649.387 478.687C651.671 473.344 657.155 469.924 662.922 469.924C668.689 469.924 674.172 473.344 676.457 478.687C680.676 488.557 672.034 495.398 665.553 501.47Z" fill="#6E6CDF" stroke="white" stroke-width="2.44328"/>
<path d="M662.92 480.41C665.222 480.41 667.09 482.278 667.09 484.584C667.09 486.89 665.222 488.758 662.92 488.758C660.618 488.758 658.75 486.89 658.75 484.584C658.75 482.278 660.618 480.41 662.92 480.41Z" fill="#6E6CDF" stroke="white" stroke-width="3.0541"/>
<path d="M294.416 299.9C293.711 300.561 292.767 300.931 291.785 300.931C290.803 300.931 289.859 300.561 289.153 299.9C282.689 293.806 274.025 286.999 278.25 277.116C280.534 271.773 286.018 268.354 291.785 268.354C297.552 268.354 303.035 271.773 305.32 277.116C309.539 286.987 300.897 293.827 294.416 299.9Z" fill="#6E6CDF" stroke="white" stroke-width="2.44328"/>
<path d="M291.783 278.84C294.086 278.84 295.953 280.707 295.953 283.014C295.953 285.32 294.085 287.187 291.783 287.187C289.481 287.187 287.614 285.32 287.613 283.014C287.613 280.707 289.481 278.84 291.783 278.84Z" fill="#6E6CDF" stroke="white" stroke-width="3.0541"/>
<path d="M143.971 402.098C143.265 402.759 142.321 403.129 141.339 403.129C140.357 403.129 139.414 402.759 138.708 402.098C132.243 396.004 123.58 389.197 127.804 379.315C130.089 373.971 135.572 370.552 141.339 370.552C147.106 370.552 152.59 373.971 154.874 379.315C159.094 389.185 150.452 396.025 143.971 402.098Z" fill="#6E6CDF" stroke="white" stroke-width="2.44328"/>
<path d="M141.337 381.038C143.639 381.038 145.507 382.906 145.507 385.212C145.507 387.518 143.639 389.386 141.337 389.386C139.035 389.386 137.167 387.518 137.167 385.212C137.167 382.906 139.035 381.038 141.337 381.038Z" fill="#6E6CDF" stroke="white" stroke-width="3.0541"/>
<path d="M634.475 381.51C633.769 382.171 632.826 382.541 631.843 382.541C630.861 382.541 629.918 382.171 629.212 381.51C622.747 375.416 614.084 368.609 618.309 358.726C620.593 353.383 626.077 349.964 631.843 349.964C637.61 349.964 643.094 353.383 645.378 358.726C649.598 368.597 640.956 375.437 634.475 381.51Z" fill="#6E6CDF" stroke="white" stroke-width="2.44328"/>
<path d="M631.842 360.45C634.144 360.45 636.012 362.317 636.012 364.623C636.012 366.929 634.144 368.797 631.842 368.797C629.54 368.797 627.672 366.929 627.672 364.623C627.672 362.317 629.54 360.45 631.842 360.45Z" fill="#6E6CDF" stroke="white" stroke-width="3.0541"/>
<path d="M285.87 34.8037C285.164 35.465 284.221 35.8348 283.239 35.8348C282.257 35.8348 281.313 35.465 280.607 34.8037C274.142 28.7102 265.479 21.903 269.704 12.0204C271.988 6.67692 277.472 3.25769 283.239 3.25769C289.006 3.25769 294.489 6.67692 296.774 12.0204C300.993 21.8906 292.351 28.7312 285.87 34.8037Z" fill="#6E6CDF" stroke="white" stroke-width="2.44328"/>
<path d="M283.237 13.7438C285.539 13.7438 287.407 15.6115 287.407 17.9176C287.407 20.2237 285.539 22.0914 283.237 22.0914C280.935 22.0914 279.067 20.2237 279.067 17.9176C279.067 15.6115 280.935 13.7438 283.237 13.7438Z" fill="#6E6CDF" stroke="white" stroke-width="3.0541"/>
<path d="M22.1663 299.9C21.4605 300.561 20.5168 300.931 19.5348 300.931C18.5527 300.931 17.6093 300.561 16.9033 299.9C10.4385 293.806 1.77496 286.999 5.99992 277.116C8.28431 271.773 13.7679 268.354 19.5348 268.354C25.3017 268.354 30.7853 271.773 33.0697 277.116C37.2893 286.987 28.647 293.827 22.1663 299.9Z" fill="#6E6CDF" stroke="white" stroke-width="2.44328"/>
<path d="M19.5332 278.84C21.8354 278.84 23.7031 280.707 23.7031 283.014C23.703 285.32 21.8354 287.187 19.5332 287.187C17.231 287.187 15.3634 285.32 15.3633 283.014C15.3633 280.707 17.231 278.84 19.5332 278.84Z" fill="#6E6CDF" stroke="white" stroke-width="3.0541"/>
<path d="M468.996 470.929C468.291 471.591 467.347 471.96 466.365 471.96C465.383 471.96 464.439 471.591 463.733 470.929C457.269 464.836 448.605 458.029 452.83 448.146C455.114 442.803 460.598 439.383 466.365 439.383C472.132 439.383 477.615 442.803 479.9 448.146C484.119 458.016 475.477 464.857 468.996 470.929Z" fill="#6E6CDF" stroke="white" stroke-width="2.44328"/>
<path d="M466.364 449.869C468.666 449.869 470.534 451.737 470.534 454.043C470.534 456.349 468.666 458.217 466.364 458.217C464.062 458.217 462.194 456.349 462.194 454.043C462.194 451.737 464.062 449.869 466.364 449.869Z" fill="#6E6CDF" stroke="white" stroke-width="3.0541"/>
<path d="M293.196 693.268C292.49 693.929 291.546 694.299 290.564 694.299C289.582 694.299 288.639 693.929 287.933 693.268C281.468 687.174 272.804 680.367 277.029 670.485C279.314 665.141 284.797 661.722 290.564 661.722C296.331 661.722 301.815 665.141 304.099 670.485C308.319 680.355 299.676 687.195 293.196 693.268Z" fill="#6E6CDF" stroke="white" stroke-width="2.44328"/>
<path d="M290.562 672.208C292.865 672.208 294.732 674.076 294.732 676.382C294.732 678.688 292.865 680.556 290.562 680.556C288.26 680.556 286.393 678.688 286.393 676.382C286.393 674.076 288.26 672.208 290.562 672.208Z" fill="#6E6CDF" stroke="white" stroke-width="3.0541"/>
<path d="M552.016 93.4425C551.31 94.1038 550.366 94.4736 549.384 94.4736C548.402 94.4736 547.459 94.1038 546.753 93.4425C540.288 87.349 531.625 80.5418 535.85 70.6592C538.134 65.3157 543.617 61.8965 549.384 61.8965C555.151 61.8965 560.635 65.3157 562.919 70.6592C567.139 80.5294 558.497 87.37 552.016 93.4425Z" fill="#6E6CDF" stroke="white" stroke-width="2.44328"/>
<path d="M549.382 72.3826C551.684 72.3826 553.552 74.2503 553.552 76.5564C553.552 78.8625 551.684 80.7302 549.382 80.7302C547.08 80.7302 545.212 78.8624 545.212 76.5564C545.212 74.2503 547.08 72.3826 549.382 72.3826Z" fill="#6E6CDF" stroke="white" stroke-width="3.0541"/>
</g>
<defs>
<linearGradient id="paint0_linear_89_989" x1="223.106" y1="440.401" x2="487.513" y2="287.845" gradientUnits="userSpaceOnUse">
<stop stop-color="#3D73EB"/>
<stop offset="1" stop-color="#DE8FFF"/>
</linearGradient>
<linearGradient id="paint1_linear_89_989" x1="275.97" y1="409.86" x2="434.614" y2="318.326" gradientUnits="userSpaceOnUse">
<stop stop-color="#3D73EB"/>
<stop offset="1" stop-color="#DE8FFF"/>
</linearGradient>
<linearGradient id="paint2_linear_89_989" x1="170.242" y1="470.942" x2="540.411" y2="257.364" gradientUnits="userSpaceOnUse">
<stop stop-color="#3D73EB"/>
<stop offset="1" stop-color="#DE8FFF"/>
</linearGradient>
<linearGradient id="paint3_linear_89_989" x1="117.378" y1="501.483" x2="593.311" y2="226.882" gradientUnits="userSpaceOnUse">
<stop stop-color="#3D73EB"/>
<stop offset="1" stop-color="#DE8FFF"/>
</linearGradient>
<linearGradient id="paint4_linear_89_989" x1="64.5136" y1="532.025" x2="646.209" y2="196.4" gradientUnits="userSpaceOnUse">
<stop stop-color="#3D73EB"/>
<stop offset="1" stop-color="#DE8FFF"/>
</linearGradient>
</defs>
</svg>
