<svg width="130" height="36" viewBox="0 0 130 36" fill="none" xmlns="http://www.w3.org/2000/svg">
<path fill-rule="evenodd" clip-rule="evenodd" d="M18 0C6.1875 0 0 6.1875 0 18C0 29.8125 6.1875 36 18 36C29.8125 36 36 29.8125 36 18C36 6.1875 29.8125 0 18 0ZM25.2853 3.97222C29.2491 3.61222 32.2555 6.07597 32.0528 10.2272C31.9624 11.3623 31.7462 12.5131 31.5286 13.6714C31.2588 15.1079 30.9866 16.5562 30.9494 18.0009C30.9863 19.4321 31.257 20.8667 31.5256 22.2898C31.7466 23.4619 31.9664 24.6263 32.0528 25.7747C32.2443 29.9259 29.2378 32.4009 25.2742 32.0297C24.41 31.9235 23.3588 31.7151 22.3277 31.5106C21.7197 31.3898 21.1187 31.2707 20.5673 31.1747C19.7341 31.0059 18.8671 30.9497 18 30.9497C17.1329 30.9384 16.2659 31.0059 15.4327 31.1747C14.8882 31.2694 14.2954 31.3884 13.6953 31.5088C12.6571 31.7171 11.5965 31.9298 10.7258 32.0297C6.7622 32.3897 3.74445 29.9259 3.94715 25.7747C4.03762 24.6397 4.25378 23.4889 4.47138 22.3306C4.7412 20.894 5.01325 19.4458 5.05066 18.0009C5.01359 16.5699 4.74295 15.1353 4.47446 13.7122C4.25329 12.5401 4.0336 11.3756 3.94715 10.2272C3.75572 6.07597 6.77347 3.61222 10.7372 3.97222C11.6012 4.07837 12.6526 4.2869 13.6834 4.49141C14.2915 4.61201 14.8925 4.73123 15.4438 4.82722C16.2772 4.99597 17.1443 5.05222 18.0112 5.05222C18.8782 5.06347 19.7453 4.99597 20.5787 4.82722C21.123 4.73245 21.7157 4.61354 22.3159 4.49314C23.3543 4.28481 24.4148 4.07203 25.2853 3.97222Z" fill="#353544"/>
<path d="M117.25 11.3875C117.25 9.5233 118.644 8.25 120.379 8.25C122.106 8.25 123.5 9.5233 123.5 11.3875C123.5 13.235 122.106 14.5 120.379 14.5C118.644 14.5 117.25 13.235 117.25 11.3875ZM117.893 11.3875C117.893 12.8938 118.977 13.9258 120.379 13.9258C121.806 13.9258 122.866 12.8938 122.866 11.3875C122.866 9.85619 121.806 8.83256 120.379 8.83256C118.977 8.83256 117.893 9.85619 117.893 11.3875ZM121.122 12.9271L120.438 11.6871H119.845V12.9271H119.102V9.60652H120.212C121.172 9.60652 121.764 9.78961 121.764 10.6551C121.764 11.0796 121.564 11.3708 121.164 11.5456L121.948 12.9271H121.122ZM121.022 10.6635C121.022 10.3306 120.763 10.1974 120.354 10.1974H119.845V11.1129H120.379C120.846 11.1129 121.022 10.9547 121.022 10.6635Z" fill="#353544"/>
<path d="M44.1521 23.2427V13.2122C44.1521 13.0027 44.2246 12.8228 44.3696 12.6724C44.5146 12.522 44.6919 12.4468 44.9014 12.4468H47.27C47.458 12.4468 47.6567 12.522 47.8662 12.6724C48.0757 12.8228 48.2476 13.0027 48.3818 13.2122L53.248 20.6968V13.196C53.248 12.9866 53.3206 12.8093 53.4656 12.6643C53.616 12.5193 53.7959 12.4468 54.0054 12.4468H55.3911C55.6006 12.4468 55.7778 12.5193 55.9229 12.6643C56.0732 12.8093 56.1484 12.9919 56.1484 13.2122V23.2427C56.1484 23.4521 56.0732 23.6321 55.9229 23.7825C55.7778 23.9275 55.6006 24 55.3911 24H52.7163C52.5068 24 52.292 23.9275 52.0718 23.7825C51.8516 23.6321 51.677 23.4521 51.5481 23.2427L47.0928 16.3301V23.2427C47.0928 23.4521 47.0176 23.6321 46.8672 23.7825C46.7222 23.9275 46.5449 24 46.3354 24H44.9175C44.708 24 44.5281 23.9275 44.3777 23.7825C44.2273 23.6321 44.1521 23.4521 44.1521 23.2427ZM60.0408 22.9849C59.2136 22.2007 58.8 21.0728 58.8 19.6011C58.8 18.124 59.2163 16.9907 60.0488 16.2012C60.8813 15.4062 62.0361 15.0088 63.5132 15.0088C64.9902 15.0088 66.1423 15.3955 66.9695 16.1689C67.7966 16.937 68.2102 18.0408 68.2102 19.4802V19.9395C68.2102 20.0845 68.1619 20.2053 68.0652 20.302C67.9739 20.3933 67.8557 20.439 67.7107 20.439H61.644C61.6978 21.0996 61.8857 21.5803 62.208 21.8811C62.5356 22.1819 63.0566 22.3323 63.771 22.3323C64.4854 22.3323 64.9741 22.1711 65.2373 21.8489C65.5005 21.5266 65.8254 21.3628 66.2122 21.3574H67.4126C67.5576 21.3574 67.6758 21.4058 67.7671 21.5024C67.8638 21.5938 67.9121 21.7119 67.9121 21.8569C67.9121 23.3984 66.4431 24.1665 63.5051 24.1611C62.0227 24.1611 60.8679 23.769 60.0408 22.9849ZM61.6279 18.739H65.3743C65.3206 17.4714 64.6975 16.8376 63.5051 16.8376C62.3181 16.8376 61.6924 17.4714 61.6279 18.739ZM70.6926 20.2859V15.6694C70.6926 15.5244 70.7383 15.4062 70.8296 15.3149C70.9263 15.2183 71.0444 15.1699 71.1841 15.1699H72.9888C73.1284 15.1699 73.2439 15.2183 73.3352 15.3149C73.4319 15.4062 73.4802 15.5244 73.4802 15.6694V20.2859C73.4802 21.575 73.9905 22.2195 75.011 22.2195C75.6824 22.2195 76.4048 21.8328 77.1782 21.0593V15.6694C77.1782 15.5244 77.2239 15.4062 77.3152 15.3149C77.4119 15.2183 77.53 15.1699 77.6697 15.1699H79.4663C79.6113 15.1699 79.7295 15.2183 79.8208 15.3149C79.9175 15.4062 79.9658 15.5244 79.9658 15.6694V23.5085C79.9658 23.6482 79.9175 23.7664 79.8208 23.863C79.7295 23.9543 79.6113 24 79.4663 24H77.6697C77.53 24 77.4119 23.9543 77.3152 23.863C77.2239 23.7664 77.1782 23.6482 77.1782 23.5085V22.9929C76.2544 23.7717 75.2688 24.1611 74.2214 24.1611C73.1794 24.1611 72.3308 23.8442 71.6755 23.2104C71.0203 22.5713 70.6926 21.5964 70.6926 20.2859ZM87.1614 22.2517L88.2651 22.155H88.5632C88.7083 22.155 88.8264 22.2007 88.9177 22.292C89.0144 22.3833 89.0627 22.5015 89.0627 22.6465V23.5085C89.0627 23.6267 89.0144 23.7341 88.9177 23.8308C88.8264 23.9221 88.7083 23.9785 88.5632 24C88.0154 24.1074 87.301 24.1611 86.4202 24.1611C84.1106 24.1611 82.9558 22.9526 82.9558 20.5356V12.9463C82.9558 12.8013 83.0015 12.6831 83.0928 12.5918C83.1895 12.4951 83.3076 12.4468 83.4473 12.4468H85.252C85.3916 12.4468 85.5071 12.4951 85.5984 12.5918C85.6951 12.6831 85.7434 12.8013 85.7434 12.9463V15.6372H87.9912C88.1309 15.6372 88.2463 15.6829 88.3376 15.7742C88.4343 15.8655 88.4827 15.9836 88.4827 16.1287V17.0874C88.4827 17.2324 88.4343 17.3506 88.3376 17.4419C88.2463 17.5332 88.1309 17.5789 87.9912 17.5789H85.7434V20.5356C85.7434 21.0835 85.8723 21.5078 86.1301 21.8086C86.3879 22.104 86.7317 22.2517 87.1614 22.2517ZM92.939 24.8379L93.9944 24.9749C94.7517 24.9749 95.2808 24.4189 95.5815 23.3071C94.6685 23.3071 93.9058 23.0332 93.2935 22.4854C92.6812 21.9321 92.1548 20.9519 91.7144 19.5447L90.5139 15.6533C90.4978 15.6104 90.4897 15.562 90.4897 15.5083C90.4897 15.4492 90.522 15.3794 90.5864 15.2988C90.6562 15.2183 90.7583 15.1753 90.8926 15.1699H92.5764C92.7322 15.1699 92.8799 15.2236 93.0195 15.3311C93.1646 15.4331 93.2585 15.562 93.3015 15.7178L94.3569 19.1338C94.6201 19.9717 94.886 20.5518 95.1545 20.874C95.4285 21.1963 95.7507 21.3574 96.1213 21.3574L97.7246 15.7178C97.7676 15.562 97.8508 15.4331 97.9744 15.3311C98.1033 15.2236 98.2456 15.1699 98.4014 15.1699H100.101C100.236 15.1699 100.335 15.2129 100.399 15.2988C100.464 15.3848 100.496 15.4573 100.496 15.5164C100.496 15.5701 100.491 15.6157 100.48 15.6533L98.3691 23.1782C97.9932 24.5103 97.5259 25.4609 96.9673 26.0303C96.4141 26.5996 95.6997 26.8843 94.8242 26.8843C93.9487 26.8843 93.3284 26.8521 92.9631 26.7876C92.6033 26.7231 92.3777 26.6426 92.2864 26.5459C92.1951 26.4546 92.1494 26.3472 92.1494 26.2236V25.3374C92.1494 25.1924 92.1951 25.0715 92.2864 24.9749C92.3777 24.8835 92.4958 24.8379 92.6409 24.8379H92.939ZM102.149 17.6111C102.149 15.8762 103.548 15.0088 106.346 15.0088C109.29 15.0088 110.761 15.7795 110.761 17.321C110.761 17.4607 110.716 17.5789 110.624 17.6755C110.533 17.7668 110.415 17.8125 110.27 17.8125H109.069C108.683 17.8125 108.358 17.6514 108.094 17.3291C107.831 17.0015 107.313 16.8376 106.54 16.8376C105.476 16.8376 104.944 17.0955 104.944 17.6111C104.944 17.8528 105.151 18.0542 105.565 18.2153C105.984 18.3765 106.491 18.5188 107.087 18.6423C107.689 18.7605 108.288 18.9136 108.884 19.1016C109.48 19.2896 109.985 19.5903 110.399 20.0039C110.818 20.4121 111.027 20.9304 111.027 21.5588C111.027 23.2937 109.55 24.1611 106.596 24.1611C103.642 24.1611 102.165 23.3931 102.165 21.8569C102.165 21.7119 102.21 21.5938 102.302 21.5024C102.398 21.4058 102.519 21.3574 102.664 21.3574H103.865C104.251 21.3574 104.576 21.5212 104.84 21.8489C105.103 22.1711 105.621 22.3323 106.395 22.3323C107.625 22.3323 108.24 22.0745 108.24 21.5588C108.24 21.3171 108.03 21.1157 107.611 20.9546C107.198 20.7935 106.69 20.6511 106.088 20.5276C105.487 20.3987 104.888 20.2429 104.292 20.0603C103.701 19.8723 103.196 19.5715 102.777 19.158C102.358 18.7444 102.149 18.2288 102.149 17.6111Z" fill="#353544"/>
<path d="M10.8029 13.4983V26.3727L8.01921 23.676C8.00471 20.9504 7.98442 15.0815 8.01921 13.4113C8.05401 11.7411 9.16094 10.5732 9.62852 10.1057C9.759 9.97523 10.647 9.10677 12.1947 9.01834C13.9345 8.91894 14.8914 9.23584 15.4568 9.67076L21.5461 15.499V19.3266L14.1085 12.2369C13.949 12.034 13.343 11.6715 12.1947 11.8455C11.0464 12.0195 10.7884 13.0198 10.8029 13.4983Z" fill="#353546" stroke="#353546"/>
<path d="M24.7206 22.5017L24.7206 9.6273L27.5042 12.324C27.5187 15.0496 27.539 20.9185 27.5042 22.5887C27.4694 24.2589 26.3625 25.4268 25.8949 25.8943C25.7644 26.0248 24.8765 26.8932 23.3287 26.9817C21.5889 27.0811 20.6321 26.7642 20.0666 26.3292L13.9774 20.501L13.9774 16.6734L21.415 23.7631C21.5745 23.966 22.1805 24.3285 23.3287 24.1545C24.477 23.9805 24.7351 22.9802 24.7206 22.5017Z" fill="#353546" stroke="#353546"/>
</svg>
