<svg width="36" height="36" viewBox="0 0 36 36" fill="none" xmlns="http://www.w3.org/2000/svg">
<g clip-path="url(#clip0_1_7)">
<path fill-rule="evenodd" clip-rule="evenodd" d="M18 0C6.1875 0 0 6.1875 0 18C0 29.8125 6.1875 36 18 36C29.8125 36 36 29.8125 36 18C36 6.1875 29.8125 0 18 0ZM25.2853 3.97222C29.2491 3.61222 32.2555 6.07597 32.0528 10.2272C31.9624 11.3623 31.7462 12.5131 31.5286 13.6714C31.2588 15.1079 30.9866 16.5562 30.9494 18.0009C30.9863 19.4321 31.257 20.8667 31.5256 22.2898C31.7466 23.4619 31.9664 24.6263 32.0528 25.7747C32.2443 29.9259 29.2378 32.4009 25.2742 32.0297C24.41 31.9235 23.3588 31.7151 22.3277 31.5106C21.7197 31.3898 21.1187 31.2707 20.5673 31.1747C19.7341 31.0059 18.8671 30.9497 18 30.9497C17.1329 30.9384 16.2659 31.0059 15.4327 31.1747C14.8882 31.2694 14.2954 31.3884 13.6953 31.5088C12.6571 31.7171 11.5965 31.9298 10.7258 32.0297C6.7622 32.3897 3.74445 29.9259 3.94715 25.7747C4.03762 24.6397 4.25378 23.4889 4.47138 22.3306C4.7412 20.894 5.01325 19.4458 5.05066 18.0009C5.01359 16.5699 4.74295 15.1353 4.47446 13.7122C4.25329 12.5401 4.0336 11.3756 3.94715 10.2272C3.75572 6.07597 6.77347 3.61222 10.7372 3.97222C11.6012 4.07837 12.6526 4.2869 13.6834 4.49141C14.2915 4.61201 14.8925 4.73123 15.4438 4.82722C16.2772 4.99597 17.1443 5.05222 18.0112 5.05222C18.8782 5.06347 19.7453 4.99597 20.5787 4.82722C21.123 4.73245 21.7157 4.61354 22.3159 4.49314C23.3543 4.28481 24.4148 4.07203 25.2853 3.97222Z" fill="#353544"/>
<g clip-path="url(#clip1_1_7)">
<path d="M10.8029 13.4983V26.3727L8.01921 23.676C8.00471 20.9504 7.98442 15.0815 8.01921 13.4113C8.05401 11.7411 9.16094 10.5732 9.62852 10.1057C9.759 9.97523 10.647 9.10677 12.1947 9.01834C13.9345 8.91894 14.8914 9.23584 15.4568 9.67076L21.5461 15.499V19.3266L14.1085 12.2369C13.949 12.034 13.343 11.6715 12.1947 11.8455C11.0464 12.0195 10.7884 13.0198 10.8029 13.4983Z" fill="#353546" stroke="#353546"/>
<path d="M24.7215 22.5017V9.6273L27.5052 12.324C27.5197 15.0496 27.54 20.9185 27.5052 22.5887C27.4704 24.2589 26.3635 25.4268 25.8959 25.8943C25.7654 26.0248 24.8775 26.8932 23.3297 26.9817C21.5899 27.0811 20.633 26.7642 20.0676 26.3292L13.9784 20.501V16.6734L21.4159 23.7631C21.5754 23.966 22.1815 24.3285 23.3297 24.1545C24.478 23.9805 24.736 22.9802 24.7215 22.5017Z" fill="#353546" stroke="#353546"/>
</g>
</g>
<defs>
<clipPath id="clip0_1_7">
<rect width="36" height="36" fill="white"/>
</clipPath>
<clipPath id="clip1_1_7">
<rect width="22" height="20" fill="white" transform="translate(7 8)"/>
</clipPath>
</defs>
</svg>
