<svg width="585" height="446" viewBox="0 0 585 446" fill="none" xmlns="http://www.w3.org/2000/svg">
<g filter="url(#filter0_d_2_3)">
<path d="M502.202 16.9085L15.8799 76.8349C7.10967 77.9156 0.87608 85.9014 1.95678 94.6716L38.5241 391.427C39.6048 400.197 47.5906 406.431 56.3608 405.35L542.683 345.424C551.453 344.343 557.686 336.357 556.606 327.587L520.038 30.8316C518.958 22.0614 510.972 15.8278 502.202 16.9085Z" fill="#D0C9F1"/>
<path d="M502.263 17.4048L15.941 77.3312C7.44487 78.3781 1.40608 86.1143 2.453 94.6105L39.0203 391.366C40.0673 399.862 47.8035 405.901 56.2996 404.854L542.621 344.928C551.118 343.881 557.156 336.144 556.109 327.648L519.542 30.8928C518.495 22.3966 510.759 16.3578 502.263 17.4048Z" stroke="white" stroke-opacity="0.1"/>
<path d="M53.6652 138.174C61.3392 137.229 66.7936 130.241 65.848 122.567C64.9023 114.893 57.9148 109.439 50.2409 110.384C42.5669 111.33 37.1125 118.318 38.0581 125.992C39.0038 133.666 45.9913 139.12 53.6652 138.174Z" fill="#F49B33"/>
<path d="M56.7217 120.811C56.3711 119.085 54.8012 118.659 52.8848 118.693L52.63 116.273L51.1589 116.43L51.4059 118.786C51.0186 118.825 50.6246 118.876 50.2302 118.925L49.9813 116.554L48.5099 116.708L48.7648 119.127C48.4477 119.166 48.1336 119.208 47.8289 119.237L47.8279 119.229L45.796 119.444L45.9628 121.017C45.9628 121.017 47.0495 120.88 47.0335 120.904C47.629 120.841 47.8611 121.167 47.9485 121.459L48.2394 124.215C48.2794 124.21 48.333 124.206 48.3956 124.209L48.2407 124.226L48.6489 128.087C48.6425 128.277 48.5644 128.587 48.1454 128.633C48.1661 128.646 47.0747 128.746 47.0747 128.746L46.9677 130.533L48.885 130.332C49.2404 130.297 49.5934 130.264 49.9381 130.23L50.1962 132.675L51.6672 132.518L51.4124 130.099C51.8164 130.063 52.2093 130.025 52.5913 129.986L52.8449 132.395L54.3159 132.238L54.0584 129.798C56.5189 129.394 58.1859 128.588 58.156 126.239C58.1313 124.348 57.1633 123.605 55.7229 123.417C56.5296 122.896 56.9829 122.075 56.7217 120.811ZM55.2131 126.261C55.4087 128.089 52.2535 128.21 51.255 128.317L50.9151 125.075C51.9135 124.969 55.013 124.351 55.2131 126.261ZM54.0469 121.757C54.2221 123.421 51.5894 123.502 50.7592 123.591L50.4483 120.651C51.2786 120.562 53.8628 120.022 54.0469 121.757Z" fill="white"/>
<path d="M89.6249 127.295C88.6579 128.502 87.3609 129.206 85.7339 129.407C84.1059 129.607 82.6699 129.24 81.4269 128.305C80.1949 127.355 79.4769 126.053 79.2729 124.399L78.2379 116.003L80.4219 115.734L81.4319 123.932C81.5749 125.096 82.0189 125.968 82.7619 126.549C83.5179 127.127 84.4189 127.352 85.4649 127.223C86.5099 127.094 87.3229 126.658 87.9029 125.915C88.4959 125.17 88.7209 124.216 88.5779 123.051L87.5679 114.853L89.7509 114.584L90.7859 122.98C90.9899 124.635 90.6029 126.073 89.6249 127.295ZM97.1199 121.817C95.5089 121.72 94.2489 121.365 93.3409 120.751C92.4309 120.124 91.9079 119.262 91.7729 118.164C91.6289 116.999 91.9479 115.986 92.7279 115.124C93.5069 114.249 94.5709 113.728 95.9209 113.562C97.0989 113.417 98.1959 113.597 99.2119 114.103C100.241 114.608 101.032 115.357 101.585 116.35L99.5979 117.401C99.2519 116.772 98.7769 116.3 98.1739 115.984C97.5709 115.669 96.9259 115.554 96.2369 115.639C95.5229 115.727 94.9559 115.978 94.5369 116.392C94.1309 116.805 93.9619 117.289 94.0309 117.845C94.0939 118.361 94.3779 118.756 94.8819 119.03C95.3839 119.29 96.1649 119.463 97.2229 119.547C98.8089 119.661 100.065 120.044 100.992 120.695C101.93 121.332 102.465 122.186 102.597 123.258C102.741 124.423 102.402 125.438 101.582 126.305C100.775 127.17 99.6699 127.689 98.2679 127.862C97.0629 128.01 95.9339 127.841 94.8799 127.353C93.8369 126.85 93.0339 126.109 92.4699 125.131L94.4289 123.861C94.8089 124.54 95.3089 125.056 95.9299 125.41C96.5629 125.748 97.2369 125.873 97.9509 125.785C98.7049 125.692 99.3049 125.43 99.7489 124.999C100.191 124.555 100.378 124.055 100.309 123.5C100.246 122.984 99.9559 122.596 99.4409 122.337C98.9239 122.065 98.1499 121.892 97.1199 121.817ZM109.793 126.22L104.453 126.878L102.741 112.983L108.081 112.325C109.986 112.09 111.682 112.547 113.166 113.694C114.649 114.827 115.515 116.4 115.763 118.411C116.011 120.423 115.554 122.172 114.394 123.658C113.232 125.131 111.699 125.985 109.793 126.22ZM108.142 114.454L105.184 114.818L106.378 124.505L109.335 124.141C110.685 123.974 111.773 123.377 112.6 122.348C113.428 121.319 113.754 120.097 113.579 118.681C113.406 117.278 112.795 116.184 111.744 115.4C110.692 114.603 109.491 114.288 108.142 114.454ZM119.899 124.975L117.477 125.273L121.164 110.713L123.586 110.415L119.899 124.975ZM131.814 111.577L127.288 112.135L127.748 115.867L132.373 115.297C132.902 115.231 133.322 114.985 133.632 114.557C133.954 114.115 134.079 113.609 134.009 113.04C133.947 112.537 133.705 112.15 133.282 111.88C132.872 111.608 132.383 111.507 131.814 111.577ZM132.632 117.401L128.007 117.971L128.472 121.742L133.196 121.16C133.765 121.09 134.215 120.867 134.544 120.49C134.886 120.099 135.026 119.658 134.966 119.169C134.894 118.586 134.636 118.128 134.192 117.793C133.748 117.458 133.228 117.327 132.632 117.401ZM133.679 123.277L126.553 124.155L124.84 110.26L131.768 109.406C132.906 109.266 133.887 109.488 134.711 110.071C135.549 110.653 136.031 111.461 136.158 112.493C136.245 113.194 136.159 113.863 135.902 114.499C135.643 115.122 135.248 115.628 134.718 116.015C135.393 116.255 135.946 116.657 136.378 117.221C136.822 117.771 137.089 118.41 137.179 119.138C137.308 120.183 137.038 121.103 136.37 121.897C135.701 122.678 134.804 123.138 133.679 123.277ZM147.366 107.484L147.63 109.628L143.263 110.166L144.711 121.917L142.528 122.187L141.08 110.435L136.713 110.974L136.448 108.83L147.366 107.484ZM149.8 118.026C149.026 116.979 148.555 115.768 148.385 114.392C148.215 113.015 148.379 111.726 148.875 110.523C149.372 109.32 150.131 108.339 151.153 107.582C152.173 106.811 153.345 106.345 154.668 106.182C156.15 105.999 157.542 106.23 158.844 106.876C160.146 107.522 161.192 108.488 161.982 109.774L159.936 110.832C159.397 109.945 158.677 109.281 157.777 108.841C156.889 108.4 155.943 108.241 154.937 108.365C153.534 108.538 152.41 109.174 151.565 110.272C150.718 111.357 150.386 112.64 150.568 114.123C150.751 115.605 151.386 116.776 152.472 117.636C153.558 118.483 154.801 118.82 156.204 118.647C157.236 118.52 158.134 118.121 158.898 117.449C159.673 116.762 160.211 115.897 160.512 114.852L162.771 115.359C162.35 116.849 161.576 118.086 160.448 119.072C159.32 120.057 157.995 120.643 156.473 120.831C155.15 120.994 153.901 120.832 152.726 120.345C151.549 119.846 150.574 119.072 149.8 118.026Z" fill="#353544"/>
<path d="M185.634 105.288C185.634 105.288 182.591 110.701 181.283 110.862C179.975 111.023 175.709 106.511 175.709 106.511" stroke="#353544" stroke-width="1.25" stroke-linecap="round" stroke-linejoin="round"/>
<path d="M266.679 88.6149C266.72 88.9484 266.687 89.291 266.58 89.6428C266.473 89.9945 266.299 90.3357 266.058 90.6664C265.825 90.9959 265.61 91.2716 265.412 91.4936C265.214 91.7155 264.98 91.9605 264.713 92.2286L262.051 94.7853L267.359 94.1312L267.491 95.2011L260.71 96.0367L260.549 94.7305L263.793 91.6366C264.045 91.3893 264.221 91.2125 264.32 91.1061C264.429 90.9987 264.586 90.8241 264.792 90.5826C265.006 90.3398 265.16 90.1375 265.253 89.9756C265.346 89.8137 265.426 89.6205 265.492 89.396C265.568 89.1704 265.593 88.9557 265.568 88.7519C265.489 88.1127 265.202 87.6168 264.707 87.264C264.212 86.9112 263.645 86.7742 263.006 86.8529C261.802 87.0013 261.084 87.7716 260.851 89.1639L259.726 88.964C259.874 88.1087 260.208 87.3858 260.728 86.7951C261.248 86.2045 261.961 85.8532 262.869 85.7413C263.814 85.6249 264.654 85.8365 265.388 86.3761C266.131 86.9145 266.562 87.6608 266.679 88.6149ZM269.063 90.9872L272.718 90.5369L272.184 86.2017L269.063 90.9872ZM273.119 84.6335L273.829 90.3999L275.386 90.2081L275.517 91.278L273.961 91.4698L274.317 94.3599L273.206 94.4969L272.85 91.6068L268.056 92.1975L267.902 90.9469L271.827 84.7927L273.119 84.6335ZM277.065 94.0214L275.781 83.6002L276.892 83.4632L278.177 93.8844L277.065 94.0214ZM281.9 93.4255L281.394 89.3126C281.321 88.7198 281.096 88.2725 280.721 87.9709C280.354 87.6681 279.907 87.5492 279.379 87.6143C278.842 87.6805 278.406 87.9269 278.073 88.3535C277.739 88.7708 277.605 89.2435 277.67 89.7715L277.058 89.8468C276.958 89.0317 277.15 88.298 277.634 87.646C278.116 86.9846 278.756 86.6049 279.553 86.5067C280.284 86.4165 280.927 86.5959 281.481 87.0449C282.044 87.4928 282.376 88.1243 282.476 88.9394L283.012 93.2885L281.9 93.4255ZM295.271 81.9039L296.535 81.7481L293.593 91.9847L292.12 92.1662L286.781 82.95L288.045 82.7942L292.689 90.8266L295.271 81.9039ZM298.868 85.8616C298.419 86.4154 298.243 87.0813 298.338 87.8594C298.434 88.6375 298.768 89.2453 299.339 89.6827C299.918 90.1097 300.578 90.2776 301.319 90.1863C302.06 90.095 302.656 89.7724 303.104 89.2187C303.562 88.6546 303.742 87.9835 303.646 87.2053C303.55 86.4272 303.213 85.8246 302.634 85.3976C302.063 84.9602 301.406 84.7871 300.665 84.8784C299.924 84.9698 299.325 85.2975 298.868 85.8616ZM298.641 90.5445C297.832 89.9296 297.36 89.0802 297.227 87.9964C297.093 86.9126 297.344 85.9741 297.98 85.1811C298.625 84.3869 299.476 83.9248 300.532 83.7946C301.588 83.6645 302.52 83.9069 303.33 84.5219C304.148 85.1357 304.624 85.9846 304.758 87.0684C304.891 88.1522 304.636 89.0912 303.991 89.8853C303.355 90.6784 302.509 91.14 301.453 91.2701C300.397 91.4002 299.46 91.1584 298.641 90.5445ZM306.524 90.3913L305.24 79.9702L306.351 79.8332L307.635 90.2544L306.524 90.3913ZM314.051 82.4109L314.907 89.3584L313.795 89.4953L312.939 82.5479L314.051 82.4109ZM309.493 82.9725L310.029 87.3216C310.094 87.8496 310.293 88.2436 310.626 88.5035C310.968 88.7622 311.376 88.8625 311.848 88.8043C312.358 88.7415 312.768 88.5263 313.08 88.1587C313.402 87.79 313.535 87.3833 313.48 86.9387L314.064 86.8668C314.155 87.6078 313.974 88.2789 313.522 88.8801C313.068 89.4721 312.452 89.816 311.674 89.9118C310.989 89.9963 310.386 89.8355 309.866 89.4294C309.345 89.0233 309.039 88.4451 308.947 87.6948L308.382 83.1095L309.493 82.9725ZM325.14 88.0974L324.604 83.7483C324.539 83.2203 324.344 82.8258 324.021 82.5648C323.706 82.3026 323.327 82.1989 322.882 82.2537C322.419 82.3107 322.041 82.5266 321.749 82.9011C321.455 83.2664 321.337 83.6807 321.394 84.1438L320.796 84.2175C320.703 83.4579 320.873 82.7786 321.307 82.1797C321.741 81.5808 322.324 81.2363 323.056 81.1461C323.713 81.0651 324.293 81.2287 324.795 81.6371C325.297 82.0455 325.594 82.6248 325.686 83.3751L326.251 87.9605L325.14 88.0974ZM316.511 89.1607L315.655 82.2132L316.766 82.0763L317.622 89.0237L316.511 89.1607ZM320.818 88.6299L320.282 84.2808C320.217 83.7528 320.023 83.3583 319.699 83.0972C319.385 82.8351 319.01 82.7308 318.575 82.7845C318.102 82.8427 317.72 83.0591 317.427 83.4336C317.143 83.7978 317.029 84.2115 317.087 84.6746L316.475 84.75C316.382 83.9904 316.552 83.3111 316.986 82.7122C317.42 82.1133 318.007 81.7682 318.748 81.6769C319.406 81.5958 319.981 81.7601 320.474 82.1696C320.975 82.578 321.272 83.1573 321.365 83.9076L321.93 88.4929L320.818 88.6299ZM333.197 83.042C333.062 82.4004 332.733 81.9096 332.212 81.5695C331.69 81.2294 331.096 81.1004 330.429 81.1826C329.79 81.2614 329.263 81.5284 328.849 81.9838C328.443 82.4288 328.239 82.9853 328.237 83.6533L333.197 83.042ZM328.362 84.6676C328.526 85.315 328.869 85.8088 329.391 86.1489C329.912 86.489 330.497 86.6191 331.146 86.5392C331.646 86.4775 332.086 86.3058 332.465 86.024C332.843 85.733 333.108 85.3664 333.26 84.9245L334.338 85.2007C334.108 85.8498 333.718 86.3915 333.17 86.8258C332.63 87.2497 332.003 87.5056 331.29 87.5935C330.252 87.7213 329.334 87.4772 328.534 86.8611C327.742 86.2346 327.279 85.384 327.147 84.3095C327.015 83.2349 327.252 82.3029 327.86 81.5132C328.467 80.7144 329.276 80.2527 330.285 80.1283C331.304 80.0027 332.209 80.244 332.998 80.852C333.787 81.4507 334.245 82.2734 334.374 83.3202C334.395 83.4869 334.396 83.6889 334.378 83.9262L328.362 84.6676Z" fill="#353544"/>
<path d="M264.159 102.866L265.573 102.692L265.822 105.241L268.114 104.088L268.711 105.4L266.37 106.414L268.175 108.239L267.117 109.208L265.432 107.304L264.243 109.562L262.998 108.877L264.305 106.669L261.772 106.256L262.048 104.835L264.536 105.399L264.159 102.866ZM271.673 101.94L273.086 101.766L273.336 104.315L275.628 103.162L276.225 104.475L273.884 105.489L275.688 107.313L274.631 108.282L272.945 106.378L271.757 108.636L270.511 107.951L271.819 105.743L269.286 105.33L269.562 103.909L272.05 104.473L271.673 101.94ZM279.187 101.014L280.6 100.84L280.85 103.389L283.142 102.236L283.739 103.549L281.397 104.563L283.202 106.388L282.145 107.356L280.459 105.452L279.27 107.71L278.025 107.026L279.333 104.817L276.799 104.404L277.076 102.983L279.563 103.547L279.187 101.014ZM286.701 100.088L288.114 99.9143L288.364 102.463L290.656 101.31L291.253 102.623L288.911 103.637L290.716 105.462L289.658 106.43L287.973 104.526L286.784 106.785L285.539 106.1L286.847 103.891L284.313 103.478L284.59 102.057L287.077 102.621L286.701 100.088ZM301.572 101.367L297.745 101.839L298.158 105.19L302.08 104.706C302.556 104.648 302.932 104.424 303.206 104.035C303.49 103.635 303.6 103.176 303.536 102.657C303.483 102.223 303.269 101.884 302.895 101.64C302.521 101.395 302.08 101.305 301.572 101.367ZM302.256 106.135L298.334 106.619L298.751 110.001L302.736 109.51C303.245 109.447 303.65 109.247 303.952 108.909C304.253 108.56 304.377 108.169 304.323 107.735C304.258 107.205 304.03 106.793 303.639 106.497C303.246 106.191 302.785 106.07 302.256 106.135ZM303.093 110.965L297.424 111.664L296.054 100.548L301.565 99.869C302.464 99.7581 303.239 99.9367 303.887 100.405C304.546 100.861 304.925 101.497 305.025 102.312C305.096 102.884 305.023 103.425 304.806 103.935C304.6 104.444 304.28 104.854 303.845 105.166C304.397 105.367 304.851 105.692 305.207 106.143C305.562 106.582 305.776 107.099 305.849 107.692C305.951 108.517 305.739 109.242 305.214 109.866C304.689 110.489 303.982 110.856 303.093 110.965ZM313.964 98.3411L314.146 99.8179L310.573 100.258L311.761 109.897L310.252 110.083L309.065 100.444L305.492 100.884L305.31 99.4075L313.964 98.3411ZM315.931 106.788C315.312 105.951 314.934 104.976 314.797 103.865C314.66 102.753 314.791 101.721 315.189 100.769C315.597 99.8057 316.204 99.0215 317.011 98.417C317.827 97.8005 318.765 97.4271 319.823 97.2967C320.998 97.1519 322.101 97.3331 323.131 97.8403C324.171 98.3462 325.006 99.1084 325.637 100.127L324.231 100.881C323.773 100.131 323.167 99.5715 322.412 99.2024C321.657 98.8333 320.851 98.7015 319.993 98.8072C318.818 98.952 317.869 99.4882 317.145 100.416C316.43 101.331 316.15 102.419 316.305 103.679C316.461 104.939 316.997 105.931 317.914 106.656C318.84 107.37 319.89 107.654 321.066 107.509C321.944 107.401 322.709 107.065 323.359 106.501C324.019 105.926 324.473 105.203 324.721 104.335L326.28 104.691C325.942 105.871 325.321 106.851 324.417 107.628C323.524 108.405 322.474 108.867 321.267 109.016C320.209 109.146 319.209 109.017 318.269 108.628C317.339 108.227 316.559 107.613 315.931 106.788Z" fill="#353544"/>
<path d="M455.541 137.017L45.6407 187.526" stroke="white" stroke-opacity="0.1" stroke-dasharray="4 4"/>
<path d="M475.705 140.293L474.201 128.094L475.16 127.975L476.663 140.175L475.705 140.293ZM476.174 139.178C475.46 139.265 474.824 139.212 474.264 139.018C473.704 138.824 473.252 138.513 472.908 138.085C472.563 137.657 472.354 137.137 472.278 136.526L473.501 136.375C473.548 136.755 473.679 137.096 473.895 137.399C474.11 137.692 474.396 137.916 474.753 138.069C475.119 138.212 475.552 138.253 476.052 138.191C476.488 138.137 476.85 138.022 477.138 137.846C477.435 137.659 477.646 137.43 477.773 137.161C477.909 136.89 477.958 136.597 477.919 136.282C477.875 135.93 477.761 135.648 477.575 135.436C477.397 135.214 477.164 135.045 476.878 134.93C476.589 134.805 476.262 134.705 475.895 134.627C475.528 134.55 475.133 134.472 474.71 134.393C473.862 134.234 473.23 133.983 472.811 133.639C472.401 133.285 472.157 132.798 472.081 132.178C472.016 131.65 472.079 131.172 472.271 130.744C472.472 130.314 472.786 129.961 473.212 129.682C473.647 129.394 474.179 129.211 474.809 129.133C475.43 129.057 475.981 129.106 476.464 129.282C476.955 129.456 477.356 129.731 477.666 130.107C477.974 130.473 478.161 130.921 478.226 131.449L477.003 131.599C476.97 131.331 476.868 131.075 476.697 130.833C476.526 130.591 476.287 130.404 475.979 130.273C475.68 130.131 475.317 130.086 474.891 130.139C474.538 130.173 474.23 130.272 473.968 130.436C473.714 130.589 473.523 130.791 473.394 131.042C473.274 131.292 473.235 131.584 473.276 131.917C473.315 132.232 473.411 132.479 473.565 132.658C473.728 132.835 473.943 132.978 474.21 133.086C474.485 133.184 474.801 133.267 475.158 133.336C475.514 133.405 475.909 133.483 476.343 133.571C476.835 133.67 477.276 133.813 477.666 134C478.064 134.177 478.386 134.429 478.633 134.756C478.89 135.081 479.052 135.517 479.119 136.064C479.176 136.527 479.105 136.983 478.907 137.43C478.716 137.867 478.396 138.245 477.946 138.564C477.496 138.883 476.906 139.087 476.174 139.178ZM484.26 138.181C483.639 138.258 483.06 138.216 482.523 138.057C481.995 137.887 481.554 137.593 481.202 137.176C480.849 136.758 480.622 136.213 480.52 135.539L481.702 135.393C481.756 135.763 481.887 136.094 482.092 136.389C482.306 136.673 482.586 136.887 482.933 137.033C483.28 137.178 483.681 137.223 484.135 137.167C484.589 137.111 484.958 136.976 485.242 136.762C485.526 136.549 485.729 136.289 485.851 135.982C485.972 135.666 486.01 135.328 485.965 134.966C485.912 134.531 485.757 134.193 485.502 133.952C485.254 133.7 484.938 133.532 484.551 133.448C484.173 133.354 483.766 133.333 483.33 133.387L482.608 133.476L482.486 132.489L483.209 132.4C483.867 132.319 484.362 132.108 484.696 131.766C485.038 131.413 485.176 130.968 485.11 130.431C485.057 129.996 484.864 129.653 484.532 129.402C484.2 129.151 483.738 129.063 483.145 129.136C482.561 129.208 482.122 129.421 481.828 129.778C481.533 130.134 481.393 130.56 481.407 131.057L480.226 131.202C480.189 130.671 480.275 130.185 480.484 129.746C480.702 129.305 481.025 128.946 481.451 128.667C481.886 128.379 482.409 128.197 483.02 128.121C483.669 128.041 484.224 128.086 484.687 128.254C485.159 128.422 485.529 128.677 485.797 129.02C486.065 129.364 486.227 129.762 486.283 130.216C486.324 130.549 486.298 130.877 486.206 131.199C486.124 131.519 485.971 131.806 485.748 132.059C485.525 132.312 485.225 132.509 484.848 132.65C485.237 132.677 485.592 132.779 485.915 132.956C486.247 133.131 486.522 133.374 486.739 133.686C486.956 133.998 487.092 134.376 487.146 134.821C487.211 135.349 487.147 135.855 486.953 136.34C486.767 136.814 486.45 137.22 486.002 137.557C485.554 137.885 484.973 138.093 484.26 138.181ZM492.634 137.149C492.022 137.225 491.452 137.177 490.923 137.007C490.403 136.827 489.973 136.546 489.635 136.165C489.295 135.774 489.091 135.301 489.022 134.745C488.973 134.347 489.002 133.967 489.108 133.606C489.223 133.244 489.4 132.921 489.637 132.638C489.874 132.345 490.167 132.126 490.515 131.98C490.002 131.855 489.582 131.615 489.256 131.26C488.93 130.905 488.739 130.501 488.683 130.047C488.624 129.565 488.691 129.115 488.884 128.696C489.086 128.277 489.4 127.923 489.825 127.635C490.25 127.348 490.773 127.166 491.394 127.089C492.024 127.012 492.575 127.061 493.049 127.238C493.531 127.414 493.917 127.681 494.205 128.041C494.494 128.4 494.668 128.821 494.728 129.302C494.784 129.756 494.697 130.195 494.467 130.618C494.246 131.04 493.901 131.374 493.433 131.62C493.807 131.677 494.144 131.819 494.445 132.045C494.744 132.262 494.989 132.533 495.18 132.858C495.38 133.181 495.504 133.542 495.553 133.94C495.621 134.496 495.538 135.005 495.304 135.466C495.068 135.918 494.715 136.296 494.244 136.598C493.782 136.89 493.245 137.074 492.634 137.149ZM492.507 136.121C493.202 136.035 493.704 135.804 494.015 135.427C494.325 135.041 494.446 134.57 494.377 134.015C494.3 133.385 494.046 132.932 493.617 132.655C493.198 132.378 492.673 132.278 492.043 132.356C491.413 132.433 490.923 132.658 490.574 133.03C490.235 133.401 490.103 133.902 490.181 134.532C490.249 135.087 490.476 135.516 490.861 135.816C491.254 136.106 491.803 136.208 492.507 136.121ZM491.923 131.383C492.479 131.314 492.905 131.107 493.2 130.76C493.496 130.413 493.614 129.999 493.555 129.517C493.488 128.971 493.27 128.579 492.902 128.342C492.544 128.104 492.082 128.02 491.517 128.09C490.952 128.159 490.52 128.354 490.221 128.673C489.931 128.991 489.819 129.423 489.887 129.969C489.946 130.451 490.161 130.824 490.533 131.089C490.904 131.353 491.367 131.451 491.923 131.383ZM497.872 136.334L496.674 126.608L497.841 126.464L498.384 130.869L501.898 125.964L503.371 125.783L500.236 130.105L504.625 135.502L503.208 135.677L499.514 131.111L498.572 132.397L499.04 136.191L497.872 136.334Z" fill="white" fill-opacity="0.4"/>
<path d="M459.943 172.746L50.0434 223.256" stroke="white" stroke-opacity="0.1" stroke-dasharray="4 4"/>
<path d="M480.107 176.023L478.604 163.823L479.563 163.705L481.066 175.905L480.107 176.023ZM480.576 174.907C479.863 174.995 479.227 174.942 478.667 174.748C478.107 174.553 477.655 174.242 477.31 173.815C476.966 173.387 476.756 172.867 476.681 172.256L477.904 172.105C477.95 172.485 478.082 172.826 478.298 173.129C478.513 173.422 478.799 173.645 479.156 173.799C479.522 173.942 479.955 173.982 480.455 173.921C480.89 173.867 481.252 173.752 481.541 173.575C481.837 173.388 482.049 173.16 482.176 172.891C482.312 172.62 482.36 172.327 482.321 172.012C482.278 171.66 482.163 171.378 481.977 171.166C481.8 170.943 481.567 170.774 481.28 170.659C480.992 170.535 480.665 170.434 480.298 170.357C479.931 170.28 479.536 170.202 479.112 170.122C478.265 169.964 477.632 169.712 477.214 169.369C476.804 169.015 476.56 168.528 476.484 167.907C476.419 167.379 476.482 166.901 476.674 166.473C476.875 166.044 477.188 165.69 477.615 165.412C478.05 165.124 478.582 164.94 479.212 164.863C479.832 164.786 480.384 164.836 480.866 165.012C481.358 165.186 481.759 165.461 482.068 165.837C482.377 166.203 482.564 166.65 482.629 167.178L481.406 167.329C481.373 167.06 481.271 166.805 481.1 166.563C480.929 166.32 480.69 166.134 480.382 166.002C480.082 165.86 479.719 165.816 479.293 165.868C478.94 165.902 478.633 166.002 478.371 166.165C478.117 166.319 477.926 166.521 477.797 166.772C477.677 167.022 477.638 167.314 477.679 167.647C477.718 167.962 477.814 168.209 477.967 168.387C478.13 168.565 478.345 168.708 478.613 168.816C478.888 168.913 479.204 168.997 479.56 169.066C479.917 169.135 480.312 169.213 480.746 169.3C481.238 169.4 481.679 169.543 482.068 169.73C482.466 169.907 482.789 170.158 483.036 170.485C483.293 170.811 483.454 171.247 483.522 171.794C483.579 172.257 483.508 172.712 483.309 173.16C483.119 173.597 482.798 173.975 482.349 174.294C481.899 174.613 481.308 174.817 480.576 174.907ZM488.662 173.911C488.042 173.987 487.463 173.946 486.926 173.786C486.397 173.616 485.957 173.323 485.604 172.905C485.252 172.488 485.025 171.942 484.923 171.268L486.104 171.123C486.159 171.492 486.289 171.824 486.495 172.119C486.709 172.403 486.989 172.617 487.336 172.763C487.683 172.908 488.084 172.953 488.537 172.897C488.991 172.841 489.36 172.706 489.644 172.492C489.928 172.279 490.131 172.018 490.253 171.712C490.374 171.396 490.413 171.057 490.368 170.696C490.314 170.261 490.16 169.923 489.904 169.681C489.657 169.43 489.34 169.262 488.954 169.178C488.575 169.083 488.168 169.063 487.733 169.117L487.011 169.206L486.889 168.219L487.612 168.13C488.269 168.049 488.765 167.837 489.099 167.495C489.441 167.143 489.579 166.698 489.513 166.161C489.459 165.725 489.267 165.382 488.935 165.132C488.603 164.881 488.141 164.792 487.548 164.865C486.964 164.937 486.525 165.151 486.23 165.507C485.936 165.863 485.795 166.29 485.81 166.786L484.629 166.932C484.591 166.4 484.677 165.915 484.886 165.475C485.105 165.035 485.427 164.675 485.854 164.397C486.288 164.108 486.811 163.926 487.423 163.851C488.071 163.771 488.627 163.815 489.09 163.984C489.562 164.152 489.932 164.407 490.2 164.75C490.468 165.093 490.63 165.492 490.685 165.946C490.727 166.279 490.701 166.607 490.609 166.928C490.526 167.249 490.374 167.536 490.151 167.789C489.928 168.042 489.628 168.239 489.25 168.379C489.639 168.407 489.995 168.509 490.318 168.685C490.65 168.861 490.924 169.104 491.141 169.416C491.358 169.728 491.494 170.106 491.549 170.551C491.614 171.079 491.55 171.585 491.355 172.07C491.169 172.544 490.853 172.95 490.405 173.287C489.957 173.615 489.376 173.823 488.662 173.911ZM497.356 172.84C496.661 172.925 496.057 172.868 495.543 172.668C495.039 172.467 494.616 172.166 494.275 171.766C493.943 171.356 493.677 170.881 493.479 170.341C493.281 169.801 493.146 169.24 493.074 168.656C492.942 167.581 492.969 166.623 493.157 165.782C493.353 164.93 493.701 164.243 494.201 163.721C494.7 163.189 495.343 162.875 496.13 162.778C496.742 162.703 497.279 162.754 497.743 162.932C498.216 163.109 498.606 163.376 498.914 163.733C499.22 164.081 499.43 164.487 499.544 164.953L498.46 165.086C498.307 164.607 498.033 164.255 497.639 164.031C497.254 163.806 496.788 163.727 496.241 163.794C495.75 163.855 495.329 164.062 494.978 164.415C494.636 164.768 494.392 165.268 494.246 165.916C494.099 166.555 494.07 167.353 494.16 168.311C494.162 168.329 494.165 168.348 494.167 168.366C494.169 168.385 494.171 168.403 494.174 168.422C494.267 168.109 494.428 167.812 494.656 167.53C494.885 167.248 495.175 167.01 495.527 166.816C495.879 166.613 496.276 166.484 496.721 166.429C497.268 166.362 497.788 166.429 498.284 166.632C498.788 166.833 499.213 167.152 499.558 167.589C499.902 168.017 500.113 168.546 500.191 169.175C500.258 169.722 500.189 170.262 499.982 170.795C499.784 171.327 499.463 171.781 499.021 172.155C498.578 172.529 498.023 172.757 497.356 172.84ZM497.146 171.822C497.553 171.772 497.903 171.634 498.195 171.41C498.497 171.185 498.72 170.899 498.865 170.552C499.019 170.194 499.069 169.803 499.017 169.377C498.963 168.941 498.819 168.573 498.585 168.273C498.359 167.972 498.074 167.753 497.728 167.617C497.39 167.471 497.017 167.422 496.61 167.473C496.193 167.524 495.83 167.667 495.52 167.903C495.21 168.129 494.978 168.421 494.824 168.779C494.67 169.127 494.618 169.51 494.669 169.926C494.722 170.352 494.866 170.72 495.102 171.03C495.336 171.33 495.631 171.552 495.988 171.696C496.343 171.831 496.729 171.873 497.146 171.822ZM502.56 172.029L501.362 162.303L502.529 162.159L503.072 166.564L506.586 161.659L508.059 161.477L504.924 165.799L509.313 171.197L507.896 171.372L504.202 166.805L503.26 168.092L503.727 171.885L502.56 172.029Z" fill="white" fill-opacity="0.4"/>
<path d="M464.346 208.476L54.4462 258.986" stroke="white" stroke-opacity="0.1" stroke-dasharray="4 4"/>
<path d="M483.415 208.134C481.768 208.045 480.878 207.459 480.744 206.375C480.672 205.791 480.839 205.277 481.245 204.832C481.65 204.378 482.2 204.108 482.895 204.022C483.506 203.947 484.087 204.045 484.638 204.315C485.188 204.586 485.614 204.99 485.915 205.526L484.904 206.018C484.701 205.666 484.434 205.408 484.103 205.242C483.771 205.066 483.415 205.002 483.035 205.049C482.655 205.096 482.352 205.232 482.126 205.457C481.908 205.672 481.817 205.923 481.852 206.21C481.886 206.479 482.033 206.682 482.294 206.819C482.565 206.955 482.98 207.045 483.54 207.088C485.264 207.186 486.194 207.791 486.331 208.903C486.404 209.496 486.238 210.014 485.832 210.459C485.426 210.904 484.876 211.17 484.181 211.255C483.56 211.332 482.975 211.235 482.424 210.964C481.874 210.693 481.452 210.289 481.16 209.751L482.172 209.26C482.367 209.622 482.631 209.895 482.964 210.079C483.296 210.255 483.652 210.319 484.032 210.272C484.411 210.225 484.714 210.089 484.94 209.864C485.165 209.629 485.26 209.364 485.223 209.067C485.188 208.78 485.025 208.565 484.735 208.422C484.443 208.27 484.003 208.174 483.415 208.134ZM482.599 204.369L482.421 202.924L483.463 202.796L483.641 204.241L482.599 204.369ZM483.417 211.011L484.459 210.882L484.661 212.522L483.619 212.65L483.417 211.011ZM491.199 205.679C492.047 205.697 492.755 205.948 493.323 206.433C493.889 206.909 494.224 207.563 494.327 208.397C494.436 209.286 494.202 210.058 493.624 210.712C493.046 211.357 492.247 211.743 491.228 211.868C490.385 211.972 489.629 211.825 488.959 211.428C488.289 211.031 487.801 210.461 487.493 209.719L488.491 209.229C488.691 209.787 489.02 210.203 489.476 210.476C489.941 210.738 490.484 210.831 491.105 210.755C491.79 210.67 492.329 210.425 492.721 210.02C493.121 209.604 493.287 209.118 493.218 208.562C493.132 207.858 492.818 207.337 492.278 206.999C491.746 206.651 491.04 206.531 490.16 206.639L489.715 205.89L492.365 202.785L486.835 203.466L486.703 202.396L493.484 201.561L493.645 202.867L491.199 205.679ZM496.255 207.073L499.91 206.623L499.375 202.288L496.255 207.073ZM500.311 200.72L501.021 206.486L502.577 206.294L502.709 207.364L501.153 207.556L501.509 210.446L500.398 210.583L500.041 207.693L495.248 208.284L495.094 207.033L499.018 200.879L500.311 200.72ZM504.257 210.107L503.058 200.381L504.17 200.244L504.704 204.579L505.177 204.521L508.866 199.665L510.353 199.482L506.232 204.955L511.552 209.209L510.065 209.392L505.317 205.66L504.844 205.719L505.368 209.97L504.257 210.107Z" fill="#353544"/>
<path d="M468.749 244.206L58.8489 294.715" stroke="white" stroke-opacity="0.1" stroke-dasharray="4 4"/>
<path d="M487.818 243.863C486.171 243.775 485.281 243.189 485.147 242.105C485.075 241.521 485.242 241.007 485.648 240.562C486.053 240.108 486.603 239.838 487.297 239.752C487.909 239.677 488.49 239.775 489.04 240.045C489.591 240.316 490.017 240.72 490.318 241.256L489.306 241.747C489.103 241.396 488.836 241.138 488.506 240.972C488.174 240.796 487.818 240.732 487.438 240.779C487.058 240.825 486.755 240.962 486.529 241.187C486.311 241.402 486.22 241.653 486.255 241.94C486.288 242.209 486.435 242.412 486.697 242.549C486.968 242.685 487.383 242.774 487.943 242.818C489.667 242.916 490.597 243.521 490.734 244.633C490.807 245.225 490.641 245.744 490.235 246.189C489.829 246.634 489.278 246.9 488.584 246.985C487.963 247.062 487.377 246.965 486.827 246.694C486.276 246.423 485.855 246.019 485.563 245.481L486.575 244.99C486.77 245.351 487.034 245.625 487.367 245.809C487.699 245.985 488.054 246.049 488.434 246.002C488.814 245.955 489.117 245.819 489.343 245.594C489.568 245.359 489.662 245.094 489.626 244.797C489.59 244.51 489.428 244.295 489.137 244.152C488.846 244 488.406 243.904 487.818 243.863ZM487.002 240.099L486.823 238.654L487.866 238.525L488.044 239.971L487.002 240.099ZM487.82 246.741L488.862 246.612L489.064 248.252L488.022 248.38L487.82 246.741ZM495.601 241.409C496.45 241.427 497.158 241.678 497.726 242.163C498.292 242.639 498.627 243.293 498.729 244.127C498.839 245.016 498.605 245.788 498.027 246.442C497.448 247.087 496.649 247.472 495.631 247.598C494.788 247.702 494.031 247.555 493.362 247.158C492.692 246.761 492.203 246.191 491.896 245.449L492.893 244.959C493.094 245.517 493.422 245.933 493.879 246.206C494.344 246.468 494.887 246.561 495.507 246.485C496.193 246.4 496.732 246.155 497.124 245.749C497.524 245.333 497.69 244.847 497.621 244.292C497.534 243.588 497.221 243.067 496.681 242.729C496.149 242.381 495.443 242.261 494.563 242.369L494.118 241.62L496.768 238.515L491.238 239.196L491.106 238.126L497.887 237.291L498.048 238.597L495.601 241.409ZM506.212 239.453C506.253 239.786 506.22 240.129 506.113 240.481C506.006 240.832 505.831 241.173 505.59 241.504C505.358 241.834 505.143 242.109 504.944 242.331C504.746 242.553 504.513 242.798 504.245 243.066L501.584 245.623L506.892 244.969L507.023 246.039L500.243 246.874L500.082 245.568L503.326 242.474C503.577 242.227 503.753 242.05 503.853 241.944C503.962 241.836 504.119 241.662 504.324 241.42C504.539 241.178 504.693 240.975 504.786 240.813C504.878 240.651 504.958 240.458 505.024 240.234C505.1 240.008 505.125 239.793 505.1 239.59C505.021 238.951 504.735 238.455 504.24 238.102C503.745 237.749 503.178 237.612 502.539 237.691C501.335 237.839 500.616 238.609 500.383 240.002L499.258 239.802C499.407 238.946 499.741 238.224 500.261 237.633C500.78 237.042 501.494 236.691 502.402 236.579C503.347 236.463 504.186 236.674 504.92 237.214C505.664 237.752 506.094 238.499 506.212 239.453ZM508.347 245.876L507.149 236.149L508.261 236.012L508.795 240.348L509.267 240.289L512.957 235.434L514.444 235.25L510.322 240.724L515.642 244.977L514.156 245.16L509.408 241.429L508.935 241.487L509.459 245.739L508.347 245.876Z" fill="#353544"/>
<path d="M473.152 279.936L63.2517 330.445" stroke="white" stroke-opacity="0.1" stroke-dasharray="4 4"/>
<path d="M492.221 279.593C490.574 279.505 489.683 278.918 489.55 277.835C489.478 277.251 489.645 276.737 490.051 276.292C490.456 275.837 491.005 275.568 491.7 275.482C492.312 275.407 492.893 275.504 493.443 275.775C493.994 276.046 494.42 276.449 494.721 276.986L493.709 277.477C493.506 277.126 493.239 276.867 492.908 276.701C492.576 276.526 492.221 276.462 491.841 276.508C491.461 276.555 491.158 276.691 490.932 276.917C490.714 277.132 490.623 277.383 490.658 277.67C490.691 277.938 490.838 278.141 491.1 278.278C491.37 278.414 491.786 278.504 492.346 278.548C494.07 278.646 495 279.251 495.137 280.362C495.21 280.955 495.043 281.474 494.638 281.919C494.232 282.364 493.681 282.629 492.986 282.715C492.366 282.791 491.78 282.694 491.23 282.424C490.679 282.153 490.258 281.749 489.966 281.211L490.977 280.72C491.172 281.081 491.436 281.354 491.769 281.539C492.101 281.714 492.457 281.779 492.837 281.732C493.217 281.685 493.52 281.549 493.746 281.324C493.971 281.089 494.065 280.823 494.029 280.527C493.993 280.24 493.83 280.025 493.54 279.882C493.249 279.73 492.809 279.633 492.221 279.593ZM491.404 275.829L491.226 274.384L492.268 274.255L492.447 275.7L491.404 275.829ZM492.223 282.47L493.265 282.342L493.467 283.982L492.425 284.11L492.223 282.47ZM500.004 277.139C500.853 277.156 501.561 277.408 502.128 277.893C502.695 278.368 503.029 279.023 503.132 279.857C503.242 280.746 503.008 281.518 502.43 282.172C501.851 282.817 501.052 283.202 500.033 283.328C499.19 283.432 498.434 283.285 497.765 282.888C497.095 282.491 496.606 281.921 496.298 281.178L497.296 280.689C497.497 281.247 497.825 281.663 498.282 281.935C498.747 282.198 499.29 282.291 499.91 282.214C500.596 282.13 501.134 281.885 501.526 281.479C501.927 281.063 502.092 280.577 502.024 280.021C501.937 279.317 501.624 278.796 501.084 278.459C500.552 278.11 499.846 277.991 498.966 278.099L498.521 277.35L501.171 274.244L495.641 274.926L495.509 273.856L502.29 273.02L502.451 274.326L500.004 277.139ZM505.093 277.993C505.223 279.049 505.608 279.885 506.249 280.502C506.888 281.11 507.606 281.365 508.402 281.267C509.199 281.169 509.833 280.747 510.306 280.002C510.777 279.248 510.948 278.343 510.818 277.287L510.727 276.551C510.597 275.495 510.212 274.663 509.573 274.055C508.933 273.438 508.214 273.179 507.418 273.277C506.621 273.375 505.987 273.801 505.516 274.555C505.043 275.3 504.872 276.2 505.002 277.256L505.093 277.993ZM503.981 278.13L503.891 277.393C503.722 276.022 503.967 274.845 504.626 273.861C505.284 272.868 506.169 272.303 507.281 272.166C508.392 272.029 509.388 272.362 510.267 273.166C511.146 273.96 511.67 275.043 511.838 276.414L511.929 277.15C512.098 278.521 511.854 279.704 511.195 280.697C510.536 281.681 509.651 282.241 508.539 282.378C507.428 282.515 506.428 282.187 505.54 281.394C504.661 280.59 504.141 279.502 503.981 278.13ZM513.822 281.473L512.624 271.747L513.735 271.61L514.27 275.945L514.742 275.887L518.432 271.031L519.919 270.848L515.797 276.321L521.117 280.575L519.63 280.758L514.882 277.026L514.41 277.085L514.934 281.336L513.822 281.473Z" fill="#353544"/>
<path d="M71.0015 366.436C70.4179 366.508 69.8993 366.459 69.4458 366.289C69.0016 366.118 68.638 365.838 68.355 365.45C68.0813 365.06 67.9091 364.579 67.8383 364.004L69.0194 363.859C69.0594 364.183 69.1468 364.473 69.2818 364.729C69.425 364.975 69.622 365.162 69.873 365.291C70.1321 365.41 70.4608 365.444 70.8591 365.395C71.2482 365.347 71.5448 365.235 71.7488 365.06C71.9621 364.883 72.0997 364.664 72.1615 364.402C72.2314 364.131 72.2464 363.832 72.2065 363.508L71.3247 356.352L72.4919 356.209L73.3737 363.364C73.481 364.235 73.3234 364.941 72.9011 365.482C72.4869 366.013 71.8537 366.331 71.0015 366.436ZM78.0439 365.568C77.4879 365.636 77.0119 365.591 76.6169 365.433C76.2199 365.266 75.9079 365.022 75.6799 364.702C75.4519 364.373 75.3129 364.009 75.2639 363.611C75.2039 363.129 75.2749 362.707 75.4739 362.344C75.6819 361.97 75.9979 361.668 76.4209 361.437C76.8439 361.207 77.3509 361.055 77.9439 360.982L79.7649 360.757C79.7059 360.285 79.6019 359.898 79.4519 359.597C79.3019 359.295 79.0929 359.082 78.8229 358.955C78.5539 358.828 78.2099 358.791 77.7939 358.842C77.3769 358.893 77.0329 359.044 76.7629 359.293C76.4919 359.534 76.3439 359.862 76.3199 360.279L75.1249 360.426C75.1209 359.938 75.2339 359.515 75.4629 359.157C75.6899 358.791 75.9969 358.499 76.3839 358.282C76.7799 358.055 77.2089 357.912 77.6719 357.855C78.3299 357.774 78.8859 357.828 79.3419 358.016C79.7969 358.195 80.1519 358.485 80.4089 358.886C80.6639 359.278 80.8269 359.761 80.8979 360.336L81.4689 364.976L80.4269 365.105L80.2039 363.863C80.1349 364.069 80.0369 364.269 79.9109 364.463C79.7929 364.647 79.6439 364.816 79.4649 364.969C79.2869 365.123 79.0769 365.252 78.8359 365.357C78.6039 365.461 78.3399 365.531 78.0439 365.568ZM78.0889 364.561C78.3949 364.523 78.6689 364.419 78.9109 364.248C79.1529 364.077 79.3529 363.864 79.5099 363.61C79.6739 363.345 79.7889 363.058 79.8549 362.749C79.9199 362.44 79.9329 362.124 79.8929 361.799L79.8759 361.66L78.1529 361.873C77.7179 361.926 77.3679 362.026 77.1039 362.171C76.8489 362.316 76.6729 362.497 76.5779 362.716C76.4819 362.925 76.4489 363.155 76.4799 363.405C76.5129 363.673 76.5979 363.903 76.7339 364.093C76.8689 364.274 77.0499 364.407 77.2769 364.492C77.5129 364.575 77.7829 364.598 78.0889 364.561ZM83.3979 364.739L82.4969 357.43L83.5529 357.3L83.7509 358.446C83.9129 358.003 84.1779 357.641 84.5479 357.361C84.9269 357.079 85.3809 356.906 85.9089 356.84C86.4459 356.774 86.9259 356.818 87.3499 356.973C87.7729 357.128 88.1219 357.4 88.3949 357.789C88.6689 358.179 88.8449 358.693 88.9239 359.332L89.4979 363.987L88.3299 364.131L87.7719 359.601C87.6919 358.953 87.4699 358.486 87.1059 358.202C86.7509 357.917 86.3049 357.807 85.7679 357.873C85.4069 357.918 85.0839 358.047 84.7999 358.261C84.5149 358.465 84.2999 358.745 84.1559 359.102C84.0209 359.457 83.9829 359.875 84.0429 360.357L84.5649 364.595L83.3979 364.739Z" fill="white" fill-opacity="0.4"/>
<path d="M130.982 358.875L129.783 349.149L135.703 348.419L135.821 349.378L131.069 349.964L131.49 353.382L135.533 352.884L135.65 353.829L131.606 354.327L132.149 358.731L130.982 358.875ZM141.14 357.793C140.491 357.873 139.898 357.786 139.359 357.533C138.82 357.279 138.371 356.883 138.013 356.344C137.665 355.804 137.443 355.15 137.348 354.381C137.253 353.612 137.31 352.923 137.517 352.315C137.733 351.705 138.072 351.212 138.533 350.835C139.004 350.458 139.568 350.228 140.226 350.147C140.93 350.061 141.538 350.145 142.049 350.402C142.56 350.659 142.969 351.037 143.275 351.535C143.58 352.033 143.772 352.597 143.85 353.227C143.861 353.32 143.873 353.412 143.884 353.505C143.895 353.598 143.905 353.709 143.911 353.84L138.256 354.537L138.145 353.634L142.674 353.076C142.568 352.365 142.293 351.849 141.849 351.527C141.413 351.195 140.903 351.065 140.32 351.137C139.931 351.185 139.581 351.327 139.272 351.563C138.97 351.788 138.741 352.098 138.583 352.494C138.424 352.889 138.38 353.365 138.448 353.921L138.496 354.31C138.571 354.921 138.737 355.423 138.992 355.815C139.246 356.197 139.548 356.47 139.897 356.634C140.255 356.797 140.629 356.854 141.018 356.806C141.537 356.742 141.933 356.595 142.205 356.364C142.476 356.124 142.659 355.81 142.752 355.422L143.905 355.28C143.844 355.701 143.695 356.091 143.457 356.449C143.228 356.807 142.917 357.104 142.523 357.34C142.138 357.576 141.677 357.727 141.14 357.793ZM149.621 356.748C149.177 356.803 148.784 356.785 148.444 356.695C148.112 356.595 147.822 356.457 147.575 356.281C147.337 356.103 147.136 355.926 146.973 355.748L147.016 356.899L145.96 357.03L144.728 347.025L145.895 346.881L146.369 350.73C146.538 350.268 146.826 349.898 147.234 349.622C147.642 349.346 148.115 349.175 148.652 349.109C149.319 349.027 149.922 349.117 150.463 349.38C151.003 349.642 151.447 350.043 151.796 350.584C152.143 351.114 152.363 351.75 152.454 352.491C152.544 353.223 152.486 353.898 152.28 354.516C152.074 355.134 151.742 355.64 151.283 356.035C150.833 356.429 150.279 356.667 149.621 356.748ZM149.344 355.752C149.779 355.699 150.15 355.54 150.456 355.277C150.77 355.003 150.999 354.646 151.142 354.205C151.293 353.753 151.333 353.241 151.263 352.666C151.192 352.092 151.029 351.609 150.774 351.217C150.527 350.815 150.218 350.524 149.848 350.344C149.486 350.153 149.087 350.085 148.652 350.139C148.189 350.196 147.8 350.361 147.486 350.635C147.17 350.9 146.946 351.256 146.814 351.705C146.68 352.145 146.648 352.652 146.719 353.226C146.79 353.801 146.944 354.289 147.182 354.693C147.418 355.087 147.722 355.378 148.094 355.568C148.464 355.748 148.88 355.809 149.344 355.752Z" fill="white" fill-opacity="0.4"/>
<path d="M194.171 351.089L192.972 341.363L194.334 341.195L198.485 347.637L200.92 340.383L202.296 340.214L203.494 349.94L202.327 350.084L201.387 342.456L199.113 349.182L198.237 349.29L194.405 343.372L195.338 350.945L194.171 351.089ZM207.853 349.572C207.297 349.641 206.821 349.596 206.425 349.438C206.029 349.27 205.716 349.027 205.489 348.707C205.26 348.378 205.121 348.014 205.072 347.616C205.013 347.134 205.083 346.711 205.283 346.348C205.491 345.975 205.806 345.673 206.229 345.442C206.652 345.211 207.16 345.059 207.753 344.986L209.573 344.762C209.515 344.289 209.411 343.902 209.261 343.601C209.111 343.3 208.901 343.086 208.632 342.959C208.362 342.833 208.019 342.795 207.602 342.846C207.185 342.898 206.842 343.048 206.572 343.298C206.3 343.538 206.153 343.867 206.129 344.283L204.934 344.431C204.93 343.942 205.043 343.519 205.271 343.162C205.499 342.795 205.806 342.503 206.193 342.287C206.588 342.059 207.017 341.917 207.481 341.86C208.138 341.779 208.695 341.832 209.151 342.021C209.605 342.2 209.961 342.49 210.217 342.891C210.472 343.283 210.635 343.766 210.706 344.34L211.278 348.981L210.236 349.109L210.012 347.867C209.944 348.073 209.846 348.273 209.719 348.468C209.601 348.652 209.453 348.82 209.274 348.974C209.096 349.128 208.886 349.257 208.645 349.362C208.413 349.466 208.149 349.536 207.853 349.572ZM207.898 348.565C208.203 348.528 208.477 348.423 208.72 348.252C208.962 348.081 209.161 347.869 209.318 347.614C209.483 347.35 209.598 347.063 209.663 346.754C209.729 346.445 209.742 346.128 209.702 345.804L209.684 345.665L207.961 345.877C207.526 345.931 207.176 346.03 206.912 346.176C206.657 346.32 206.482 346.501 206.387 346.72C206.29 346.929 206.257 347.159 206.288 347.409C206.321 347.678 206.406 347.907 206.542 348.097C206.677 348.278 206.858 348.411 207.085 348.496C207.321 348.58 207.592 348.603 207.898 348.565ZM213.206 348.743L212.306 341.435L213.362 341.304L213.609 342.628C213.735 342.274 213.919 341.969 214.16 341.714C214.401 341.458 214.705 341.252 215.071 341.094C215.446 340.935 215.875 340.826 216.356 340.766L216.507 341.989L215.785 342.078C215.507 342.112 215.243 342.182 214.992 342.288C214.742 342.394 214.521 342.544 214.328 342.737C214.145 342.929 214.011 343.176 213.926 343.478C213.841 343.78 213.825 344.148 213.879 344.584L214.373 348.599L213.206 348.743Z" fill="white" fill-opacity="0.4"/>
<path d="M259.491 341.317L265.229 340.61L265.359 341.666L259.621 342.373L259.491 341.317ZM259.222 345.088L257.957 345.244L260.913 335.006L262.358 334.828L267.712 344.042L266.447 344.198L261.78 336.084L259.222 345.088ZM268.074 336.944L269.186 336.807L270.384 346.534L269.273 346.671L268.074 336.944ZM270.143 338.283C269.695 338.846 269.519 339.517 269.615 340.295C269.71 341.064 270.043 341.667 270.614 342.105C271.194 342.541 271.855 342.713 272.596 342.622C273.337 342.531 273.932 342.204 274.38 341.641C274.837 341.076 275.018 340.41 274.923 339.641C274.827 338.863 274.489 338.256 273.909 337.819C273.338 337.382 272.682 337.209 271.941 337.3C271.199 337.392 270.6 337.719 270.143 338.283ZM270.404 342.92C269.659 342.288 269.22 341.435 269.087 340.36C268.954 339.276 269.172 338.342 269.743 337.557C270.314 336.772 271.082 336.32 272.045 336.201C273.036 336.079 273.913 336.328 274.676 336.949C275.448 337.569 275.901 338.42 276.035 339.504C276.167 340.579 275.935 341.515 275.337 342.312C274.748 343.1 273.957 343.555 272.966 343.677C272.003 343.795 271.149 343.543 270.404 342.92ZM277.791 342.8L276.935 335.853L278.046 335.716L278.902 342.663L277.791 342.8ZM280.365 336.446C279.754 336.521 279.252 336.766 278.862 337.181C278.48 337.595 278.32 338.052 278.382 338.552L277.784 338.626C277.689 337.857 277.87 337.143 278.325 336.485C278.778 335.818 279.376 335.439 280.117 335.348L280.506 335.3L280.643 336.411L280.365 336.446Z" fill="#353544"/>
<path d="M322.472 337.294L321.273 327.568L322.621 327.402L327.148 333.685L330.013 326.491L331.361 326.325L332.56 336.051L331.448 336.188L330.469 328.24L327.741 335.065L326.907 335.168L322.604 329.209L323.584 337.157L322.472 337.294ZM337.957 332.128L336 332.609C335.078 332.835 334.654 333.249 334.728 333.852C334.767 334.167 334.928 334.405 335.211 334.568C335.493 334.721 335.852 334.771 336.288 334.717C336.88 334.644 337.331 334.41 337.64 334.015C337.958 333.618 338.081 333.133 338.011 332.558L338.497 332.499C338.601 333.341 338.428 334.073 337.977 334.693C337.527 335.312 336.913 335.67 336.135 335.766C335.477 335.847 334.908 335.729 334.427 335.412C333.954 335.085 333.681 334.625 333.608 334.032C333.546 333.456 333.692 332.964 334.046 332.553C334.408 332.132 334.941 331.836 335.644 331.665L337.836 331.141L337.802 330.863C337.749 330.437 337.537 330.087 337.164 329.813C336.792 329.539 336.365 329.432 335.883 329.492C335.448 329.545 335.078 329.708 334.773 329.981C334.468 330.254 334.287 330.582 334.231 330.965L333.162 330.758C333.266 330.153 333.551 329.638 334.016 329.214C334.48 328.79 335.037 328.538 335.686 328.458C336.473 328.361 337.185 328.527 337.821 328.957C338.455 329.377 338.815 329.93 338.9 330.615L339.465 335.2L338.353 335.337L337.957 332.128ZM345.093 327.454L346.33 327.302L343.485 337.526L342.248 337.679L343.042 334.506L339.452 328.149L340.688 327.997L343.555 333.173L345.093 327.454Z" fill="#353544"/>
<path d="M388.119 326.877L389.084 326.35C389.339 326.892 389.689 327.286 390.133 327.532C390.577 327.778 391.1 327.864 391.702 327.79C392.425 327.701 392.985 327.406 393.384 326.906C393.792 326.395 393.946 325.741 393.848 324.944L393.081 318.719L394.193 318.582L394.977 324.946C395.102 325.965 394.863 326.85 394.26 327.602C393.656 328.344 392.849 328.777 391.839 328.902C390.996 329.006 390.247 328.882 389.593 328.53C388.946 328.167 388.455 327.617 388.119 326.877ZM401.797 320.467L402.653 327.414L401.542 327.551L400.686 320.604L401.797 320.467ZM397.24 321.028L397.776 325.377C397.841 325.905 398.04 326.299 398.373 326.559C398.715 326.818 399.122 326.918 399.595 326.86C400.104 326.797 400.515 326.582 400.827 326.214C401.148 325.846 401.282 325.439 401.227 324.994L401.81 324.922C401.902 325.663 401.721 326.335 401.269 326.936C400.815 327.528 400.199 327.872 399.421 327.968C398.735 328.052 398.132 327.891 397.612 327.485C397.092 327.079 396.786 326.501 396.693 325.75L396.128 321.165L397.24 321.028ZM404.257 327.216L403.401 320.269L404.513 320.132L405.369 327.079L404.257 327.216ZM409.093 326.621L408.586 322.508C408.513 321.915 408.289 321.468 407.913 321.166C407.546 320.863 407.099 320.744 406.571 320.809C406.034 320.875 405.599 321.122 405.266 321.548C404.932 321.966 404.797 322.438 404.862 322.966L404.251 323.042C404.15 322.227 404.342 321.493 404.826 320.841C405.309 320.18 405.948 319.8 406.745 319.702C407.477 319.612 408.12 319.791 408.673 320.24C409.236 320.688 409.568 321.319 409.668 322.134L410.204 326.484L409.093 326.621Z" fill="#353544"/>
<path d="M451.308 319.091L452.273 318.563C452.528 319.105 452.877 319.5 453.321 319.746C453.766 319.992 454.289 320.078 454.891 320.004C455.613 319.915 456.174 319.62 456.573 319.119C456.98 318.608 457.135 317.955 457.037 317.158L456.27 310.933L457.381 310.796L458.166 317.16C458.291 318.179 458.052 319.064 457.449 319.816C456.844 320.558 456.037 320.991 455.028 321.115C454.185 321.219 453.436 321.095 452.781 320.743C452.135 320.381 451.644 319.83 451.308 319.091ZM464.986 312.68L465.842 319.628L464.731 319.765L463.874 312.817L464.986 312.68ZM460.428 313.242L460.964 317.591C461.029 318.119 461.228 318.513 461.561 318.773C461.904 319.031 462.311 319.132 462.783 319.074C463.293 319.011 463.704 318.796 464.016 318.428C464.337 318.059 464.47 317.653 464.415 317.208L464.999 317.136C465.09 317.877 464.91 318.548 464.457 319.149C464.004 319.741 463.388 320.085 462.61 320.181C461.924 320.266 461.321 320.105 460.801 319.699C460.281 319.293 459.974 318.714 459.882 317.964L459.317 313.379L460.428 313.242ZM467.446 319.43L466.162 309.009L467.274 308.872L468.558 319.293L467.446 319.43ZM474.57 311.499L475.807 311.347L472.962 321.571L471.725 321.724L472.519 318.551L468.929 312.194L470.165 312.042L473.032 317.218L474.57 311.499Z" fill="#353544"/>
<path d="M65.7701 273.208L64.7776 273.33L65.5114 279.285L66.5039 279.163L65.7701 273.208Z" fill="#99E39E"/>
<path d="M69.9775 278.735L62.0376 279.713L66.4404 315.443L74.3803 314.464L69.9775 278.735Z" fill="#99E39E"/>
<path d="M70.9066 314.893L69.9141 315.015L71.6263 328.91L72.6188 328.788L70.9066 314.893Z" fill="#99E39E"/>
<path d="M82.7134 230.817L81.7209 230.939L83.9223 248.804L84.9148 248.682L82.7134 230.817Z" fill="#99E39E"/>
<path d="M88.3889 248.254L80.4489 249.232L83.3841 273.052L91.324 272.073L88.3889 248.254Z" fill="#99E39E"/>
<path d="M87.8504 272.502L86.8579 272.624L88.5701 286.519L89.5626 286.397L87.8504 272.502Z" fill="#99E39E"/>
<path d="M102.088 216.339L101.096 216.461L102.074 224.401L103.067 224.279L102.088 216.339Z" fill="#99E39E"/>
<path d="M106.541 223.851L98.6009 224.829L103.493 264.529L111.433 263.55L106.541 223.851Z" fill="#99E39E"/>
<path d="M107.958 263.979L106.966 264.101L108.678 277.996L109.671 277.874L107.958 263.979Z" fill="#99E39E"/>
<path d="M126.49 234.491L125.498 234.613L126.232 240.568L127.224 240.446L126.49 234.491Z" fill="#FF6961"/>
<path d="M130.698 240.018L122.758 240.996L127.65 280.696L135.59 279.717L130.698 240.018Z" fill="#FF6961"/>
<path d="M132.116 280.146L131.124 280.268L132.836 294.163L133.829 294.041L132.116 280.146Z" fill="#FF6961"/>
<path d="M149.643 258.842L148.651 258.964L151.097 278.814L152.089 278.692L149.643 258.842Z" fill="#FF6961"/>
<path d="M155.563 278.264L147.623 279.242L150.069 299.092L158.009 298.113L155.563 278.264Z" fill="#FF6961"/>
<path d="M154.535 298.542L153.543 298.664L154.644 307.596L155.636 307.474L154.535 298.542Z" fill="#FF6961"/>
<path d="M187.291 220.954L186.299 221.076L187.766 232.986L188.759 232.864L187.291 220.954Z" fill="#99E39E"/>
<path d="M192.233 232.436L184.293 233.414L187.84 262.196L195.78 261.218L192.233 232.436Z" fill="#99E39E"/>
<path d="M192.305 261.646L191.313 261.768L194.37 286.58L195.363 286.458L192.305 261.646Z" fill="#99E39E"/>
<path d="M209.112 226.325L208.12 226.447L210.688 247.289L211.681 247.167L209.112 226.325Z" fill="#FF6961"/>
<path d="M215.155 246.74L207.215 247.718L209.783 268.56L217.723 267.582L215.155 246.74Z" fill="#FF6961"/>
<path d="M214.249 268.01L213.257 268.132L214.235 276.072L215.228 275.95L214.249 268.01Z" fill="#FF6961"/>
<path d="M227.998 207.877L227.006 207.999L228.351 218.916L229.344 218.794L227.998 207.877Z" fill="#99E39E"/>
<path d="M232.818 218.367L224.878 219.345L231.237 270.955L239.177 269.976L232.818 218.367Z" fill="#99E39E"/>
<path d="M235.703 270.404L234.711 270.526L235.689 278.466L236.682 278.344L235.703 270.404Z" fill="#99E39E"/>
<path d="M252.754 237.069L251.762 237.191L253.107 248.108L254.1 247.986L252.754 237.069Z" fill="#FF6961"/>
<path d="M257.574 247.558L249.634 248.536L253.303 278.311L261.243 277.332L257.574 247.558Z" fill="#FF6961"/>
<path d="M257.768 277.761L256.776 277.883L257.754 285.823L258.747 285.701L257.768 277.761Z" fill="#FF6961"/>
<path d="M292.604 217.045L291.612 217.167L292.346 223.122L293.338 223L292.604 217.045Z" fill="#99E39E"/>
<path d="M296.812 222.572L288.872 223.55L293.642 262.257L301.581 261.279L296.812 222.572Z" fill="#99E39E"/>
<path d="M298.107 261.707L297.115 261.829L298.949 276.716L299.942 276.594L298.107 261.707Z" fill="#99E39E"/>
<path d="M311.367 197.604L310.375 197.726L311.109 203.681L312.101 203.559L311.367 197.604Z" fill="#99E39E"/>
<path d="M315.575 203.131L307.635 204.109L311.915 238.846L319.855 237.868L315.575 203.131Z" fill="#99E39E"/>
<path d="M316.382 238.296L315.39 238.418L317.224 253.305L318.217 253.183L316.382 238.296Z" fill="#99E39E"/>
<path d="M330.008 177.171L329.016 177.293L329.505 181.263L330.498 181.141L330.008 177.171Z" fill="#99E39E"/>
<path d="M333.971 180.713L326.031 181.691L328.966 205.511L336.906 204.532L333.971 180.713Z" fill="#99E39E"/>
<path d="M333.432 204.961L332.44 205.083L333.541 214.015L334.533 213.893L333.432 204.961Z" fill="#99E39E"/>
<path d="M353.8 190.36L352.808 190.482L353.542 196.437L354.534 196.315L353.8 190.36Z" fill="#FF6961"/>
<path d="M358.008 195.887L350.068 196.865L354.838 235.572L362.777 234.594L358.008 195.887Z" fill="#FF6961"/>
<path d="M359.303 235.023L358.311 235.145L360.145 250.032L361.138 249.91L359.303 235.023Z" fill="#FF6961"/>
<path d="M374.464 219.048L373.472 219.17L374.817 230.087L375.81 229.965L374.464 219.048Z" fill="#FF6961"/>
<path d="M379.284 229.538L371.344 230.516L375.013 260.291L382.953 259.312L379.284 229.538Z" fill="#FF6961"/>
<path d="M379.478 259.741L378.486 259.863L379.464 267.803L380.457 267.681L379.478 259.741Z" fill="#FF6961"/>
<path d="M273.365 224.453L272.373 224.575L273.351 232.515L274.344 232.393L273.365 224.453Z" fill="#99E39E"/>
<path d="M277.818 231.965L269.878 232.943L276.849 289.515L284.789 288.537L277.818 231.965Z" fill="#99E39E"/>
<path d="M281.315 288.965L280.323 289.087L281.301 297.027L282.294 296.905L281.315 288.965Z" fill="#99E39E"/>
<path d="M170.362 255.282L169.37 255.404L170.96 268.306L171.952 268.184L170.362 255.282Z" fill="#FF6961"/>
<path d="M175.427 267.756L167.487 268.734L172.623 310.419L180.563 309.44L175.427 267.756Z" fill="#FF6961"/>
<path d="M177.089 309.869L176.097 309.991L177.564 321.901L178.557 321.779L177.089 309.869Z" fill="#FF6961"/>
<path d="M417.779 239.404L57.504 283.798" stroke="white" stroke-opacity="0.6" stroke-dasharray="4 4"/>
<path d="M457.193 219.938L428.411 223.484C421.559 224.329 416.689 230.567 417.534 237.419C418.378 244.271 424.617 249.141 431.469 248.297L460.251 244.75C467.103 243.906 471.973 237.667 471.128 230.815C470.284 223.963 464.045 219.093 457.193 219.938Z" fill="#000510"/>
<path d="M457.255 220.434L428.473 223.98C421.895 224.791 417.22 230.78 418.031 237.358C418.841 243.936 424.83 248.611 431.408 247.8L460.19 244.254C466.768 243.443 471.443 237.454 470.633 230.876C469.822 224.298 463.833 219.623 457.255 220.434Z" stroke="white" stroke-opacity="0.2"/>
<path d="M433.266 241.066L431.978 230.609L432.775 230.511L434.064 240.968L433.266 241.066ZM433.656 240.111C433.053 240.186 432.504 240.144 432.009 239.988C431.514 239.831 431.111 239.57 430.8 239.206C430.489 238.841 430.296 238.385 430.22 237.838L431.733 237.652C431.767 237.93 431.862 238.172 432.016 238.379C432.177 238.577 432.381 238.725 432.627 238.823C432.881 238.921 433.175 238.949 433.508 238.908C433.794 238.873 434.035 238.799 434.23 238.686C434.433 238.565 434.58 238.414 434.67 238.233C434.768 238.044 434.802 237.834 434.774 237.604C434.742 237.342 434.652 237.135 434.504 236.984C434.364 236.824 434.179 236.698 433.95 236.605C433.721 236.512 433.462 236.439 433.173 236.386C432.883 236.325 432.577 236.262 432.255 236.197C431.569 236.056 431.038 235.835 430.662 235.535C430.286 235.227 430.062 234.783 429.99 234.203C429.93 233.719 429.994 233.288 430.181 232.91C430.369 232.532 430.657 232.223 431.046 231.981C431.443 231.731 431.915 231.572 432.463 231.505C433.018 231.436 433.515 231.476 433.952 231.623C434.398 231.77 434.761 232.007 435.044 232.335C435.333 232.654 435.512 233.059 435.58 233.551L434.056 233.739C434.022 233.533 433.943 233.349 433.819 233.187C433.693 233.018 433.524 232.889 433.312 232.803C433.107 232.707 432.865 232.676 432.587 232.71C432.348 232.732 432.138 232.798 431.959 232.909C431.786 233.011 431.654 233.148 431.562 233.32C431.477 233.484 431.449 233.681 431.478 233.911C431.505 234.133 431.576 234.314 431.689 234.453C431.81 234.584 431.972 234.688 432.176 234.768C432.378 234.84 432.612 234.904 432.876 234.96C433.141 235.016 433.431 235.077 433.745 235.143C434.175 235.227 434.569 235.348 434.926 235.505C435.291 235.654 435.592 235.871 435.829 236.156C436.065 236.441 436.214 236.83 436.275 237.322C436.328 237.751 436.266 238.166 436.09 238.566C435.912 238.959 435.623 239.297 435.223 239.58C434.822 239.855 434.299 240.032 433.656 240.111ZM440.667 239.247C440.127 239.314 439.623 239.279 439.155 239.143C438.686 239 438.292 238.746 437.973 238.382C437.661 238.01 437.46 237.519 437.369 236.909L438.774 236.736C438.816 237.013 438.911 237.259 439.058 237.475C439.213 237.681 439.414 237.838 439.66 237.945C439.906 238.043 440.192 238.073 440.518 238.033C440.827 237.994 441.082 237.903 441.282 237.757C441.489 237.611 441.636 237.427 441.722 237.207C441.807 236.987 441.835 236.75 441.803 236.496C441.765 236.186 441.658 235.941 441.483 235.761C441.307 235.574 441.081 235.444 440.807 235.373C440.532 235.302 440.228 235.287 439.894 235.328L439.275 235.405L439.13 234.226L439.749 234.149C440.186 234.096 440.531 233.952 440.784 233.72C441.037 233.479 441.139 233.164 441.091 232.775C441.051 232.449 440.911 232.201 440.673 232.029C440.442 231.855 440.132 231.793 439.743 231.841C439.338 231.891 439.031 232.049 438.822 232.317C438.621 232.584 438.53 232.893 438.549 233.245L437.144 233.418C437.106 232.915 437.18 232.467 437.365 232.073C437.557 231.671 437.844 231.345 438.224 231.097C438.605 230.849 439.065 230.691 439.605 230.625C440.169 230.555 440.657 230.596 441.071 230.746C441.484 230.897 441.811 231.127 442.05 231.436C442.298 231.744 442.446 232.096 442.495 232.493C442.533 232.803 442.508 233.092 442.421 233.361C442.333 233.629 442.196 233.864 442.012 234.064C441.834 234.255 441.615 234.407 441.354 234.52C441.672 234.545 441.961 234.634 442.222 234.788C442.49 234.94 442.71 235.151 442.88 235.42C443.057 235.68 443.169 235.997 443.215 236.37C443.27 236.823 443.211 237.257 443.037 237.674C442.869 238.081 442.585 238.427 442.185 238.71C441.793 238.992 441.287 239.171 440.667 239.247ZM448.875 238.091L448.68 236.507L444.547 237.016L444.406 235.873L447.645 229.779L449.265 229.579L449.943 235.082L451.075 234.942L451.229 236.193L450.097 236.332L450.292 237.916L448.875 238.091ZM445.929 235.576L448.609 235.246L448.125 231.316L445.929 235.576ZM452.671 237.623L451.643 229.286L453.073 229.11L453.497 232.552L456.217 228.723L457.991 228.504L455.315 232.195L459.09 236.832L457.351 237.046L454.437 233.415L453.726 234.41L454.1 237.447L452.671 237.623Z" fill="white"/>
</g>
<defs>
<filter id="filter0_d_2_3" x="-30.165" y="-15.2132" width="618.892" height="460.685" filterUnits="userSpaceOnUse" color-interpolation-filters="sRGB">
<feFlood flood-opacity="0" result="BackgroundImageFix"/>
<feColorMatrix in="SourceAlpha" type="matrix" values="0 0 0 0 0 0 0 0 0 0 0 0 0 0 0 0 0 0 127 0" result="hardAlpha"/>
<feOffset dy="12"/>
<feGaussianBlur stdDeviation="14"/>
<feColorMatrix type="matrix" values="0 0 0 0 0.682353 0 0 0 0 0.313726 0 0 0 0 0.94902 0 0 0 0.08 0"/>
<feBlend mode="normal" in2="BackgroundImageFix" result="effect1_dropShadow_2_3"/>
<feBlend mode="normal" in="SourceGraphic" in2="effect1_dropShadow_2_3" result="shape"/>
</filter>
</defs>
</svg>
