<svg width="14" height="14" viewBox="0 0 14 14" fill="none" xmlns="http://www.w3.org/2000/svg">
<path d="M12.2488 5.83329C12.2418 4.56454 12.1858 3.87738 11.7372 3.42938C11.2251 2.91663 10.3997 2.91663 8.75 2.91663H7C5.35033 2.91663 4.52492 2.91663 4.01275 3.42938C3.5 3.94154 3.5 4.76696 3.5 6.41663V9.33329C3.5 10.983 3.5 11.8084 4.01275 12.3205C4.52492 12.8333 5.35033 12.8333 7 12.8333H8.75C10.3997 12.8333 11.2251 12.8333 11.7372 12.3205C12.25 11.8084 12.25 10.983 12.25 9.33329V8.74996" stroke="#353544" stroke-width="0.875" stroke-linecap="round"/>
<path d="M1.75 5.83329V9.33329C1.75 9.79742 1.93437 10.2425 2.26256 10.5707C2.59075 10.8989 3.03587 11.0833 3.5 11.0833M10.5 2.91663C10.5 2.4525 10.3156 2.00738 9.98744 1.67919C9.65925 1.351 9.21413 1.16663 8.75 1.16663H6.41667C4.21692 1.16663 3.11675 1.16663 2.43367 1.85029C2.05217 2.23121 1.88358 2.74163 1.8095 3.49996" stroke="#353544" stroke-width="0.875" stroke-linecap="round"/>
</svg>
