<svg width="41" height="41" viewBox="0 0 41 41" fill="none" xmlns="http://www.w3.org/2000/svg">
<circle cx="20.5" cy="20.5" r="20.5" fill="#DCE4F5"/>
<path d="M19.875 14.375H22.125C22.125 14.0766 22.0065 13.7905 21.7955 13.5795C21.5845 13.3685 21.2984 13.25 21 13.25C20.7016 13.25 20.4155 13.3685 20.2045 13.5795C19.9935 13.7905 19.875 14.0766 19.875 14.375ZM18.75 14.375C18.75 13.7783 18.9871 13.206 19.409 12.784C19.831 12.3621 20.4033 12.125 21 12.125C21.5967 12.125 22.169 12.3621 22.591 12.784C23.0129 13.206 23.25 13.7783 23.25 14.375H27.75C27.8992 14.375 28.0423 14.4343 28.1477 14.5398C28.2532 14.6452 28.3125 14.7883 28.3125 14.9375C28.3125 15.0867 28.2532 15.2298 28.1477 15.3352C28.0423 15.4407 27.8992 15.5 27.75 15.5H27.1155L25.7599 25.4427C25.6679 26.1165 25.335 26.7342 24.8226 27.1814C24.3103 27.6286 23.6533 27.875 22.9732 27.875H19.0267C18.3467 27.875 17.6897 27.6286 17.1774 27.1814C16.665 26.7342 16.3321 26.1165 16.2401 25.4427L14.8845 15.5H14.25C14.1008 15.5 13.9577 15.4407 13.8523 15.3352C13.7468 15.2298 13.6875 15.0867 13.6875 14.9375C13.6875 14.7883 13.7468 14.6452 13.8523 14.5398C13.9577 14.4343 14.1008 14.375 14.25 14.375H18.75ZM19.875 18.3125C19.875 18.1633 19.8157 18.0202 19.7102 17.9148C19.6048 17.8093 19.4617 17.75 19.3125 17.75C19.1633 17.75 19.0202 17.8093 18.9148 17.9148C18.8093 18.0202 18.75 18.1633 18.75 18.3125V23.9375C18.75 24.0867 18.8093 24.2298 18.9148 24.3352C19.0202 24.4407 19.1633 24.5 19.3125 24.5C19.4617 24.5 19.6048 24.4407 19.7102 24.3352C19.8157 24.2298 19.875 24.0867 19.875 23.9375V18.3125ZM22.6875 17.75C22.8367 17.75 22.9798 17.8093 23.0852 17.9148C23.1907 18.0202 23.25 18.1633 23.25 18.3125V23.9375C23.25 24.0867 23.1907 24.2298 23.0852 24.3352C22.9798 24.4407 22.8367 24.5 22.6875 24.5C22.5383 24.5 22.3952 24.4407 22.2898 24.3352C22.1843 24.2298 22.125 24.0867 22.125 23.9375V18.3125C22.125 18.1633 22.1843 18.0202 22.2898 17.9148C22.3952 17.8093 22.5383 17.75 22.6875 17.75ZM17.355 25.2909C17.4102 25.6951 17.61 26.0656 17.9173 26.3338C18.2247 26.6021 18.6188 26.7499 19.0267 26.75H22.9732C23.3814 26.7502 23.7758 26.6025 24.0834 26.3342C24.391 26.0659 24.5909 25.6953 24.6461 25.2909L25.9804 15.5H16.0196L17.355 25.2909Z" fill="#A3AED0"/>
</svg>
