<svg width="25" height="24" viewBox="0 0 25 24" fill="none" xmlns="http://www.w3.org/2000/svg">
<g clip-path="url(#clip0_117_1655)">
<path fill-rule="evenodd" clip-rule="evenodd" d="M12.1578 18C16.2833 18 19.217 15.4076 20.935 13.2486C21.5309 12.4998 21.5309 11.5002 20.935 10.7514C19.217 8.59239 16.2833 6 12.1578 6C8.03228 6 5.09857 8.59238 3.38052 10.7514C2.78462 11.5002 2.78462 12.4998 3.38052 13.2486C5.09857 15.4076 8.03228 18 12.1578 18ZM22.5 14.494C23.676 13.0163 23.676 10.9837 22.5 9.506C20.6317 7.15826 17.1843 4 12.1578 4C7.13125 4 3.68384 7.15826 1.81556 9.506C0.639605 10.9837 0.639605 13.0163 1.81556 14.494C3.68384 16.8417 7.13124 20 12.1578 20C17.1843 20 20.6317 16.8417 22.5 14.494Z" fill="#A3AED0"/>
<path fill-rule="evenodd" clip-rule="evenodd" d="M14.1582 12C14.1582 13.1046 13.2628 14 12.1582 14C11.0536 14 10.1582 13.1046 10.1582 12C10.1582 11.9716 10.1588 11.9434 10.16 11.9153C10.3159 11.9701 10.4835 12 10.6582 12C11.4866 12 12.1582 11.3284 12.1582 10.5C12.1582 10.3253 12.1284 10.1577 12.0735 10.0018C12.1016 10.0006 12.1298 10 12.1582 10C13.2628 10 14.1582 10.8954 14.1582 12ZM16.1582 12C16.1582 14.2091 14.3673 16 12.1582 16C9.94906 16 8.1582 14.2091 8.1582 12C8.1582 9.79086 9.94906 8 12.1582 8C14.3673 8 16.1582 9.79086 16.1582 12Z" fill="#A3AED0"/>
</g>
<defs>
<clipPath id="clip0_117_1655">
<rect width="24" height="24" fill="white" transform="translate(0.158203)"/>
</clipPath>
</defs>
</svg>
