<svg width="24" height="24" viewBox="0 0 24 24" fill="none" xmlns="http://www.w3.org/2000/svg">
<path fill-rule="evenodd" clip-rule="evenodd" d="M15.9208 12.799C15.9742 12.5397 16.0008 12.2733 16.0008 12C16.0009 11.4069 15.8691 10.8212 15.6149 10.2853C15.3608 9.7494 14.9906 9.27673 14.5313 8.90152C14.0719 8.52631 13.5349 8.25795 12.9591 8.11586C12.3832 7.97378 11.783 7.96153 11.2018 8.08L15.9208 12.799ZM8.66782 9.788C8.15696 10.5573 7.92801 11.4797 8.01983 12.3985C8.11165 13.3174 8.51859 14.1763 9.17158 14.8292C9.82457 15.4822 10.6834 15.8892 11.6023 15.981C12.5212 16.0728 13.4435 15.8439 14.2128 15.333L12.7388 13.859C12.3758 14.0032 11.9786 14.0379 11.5961 13.9589C11.2136 13.8799 10.8626 13.6906 10.5864 13.4145C10.3102 13.1383 10.1209 12.7873 10.0419 12.4048C9.96293 12.0223 9.99766 11.625 10.1418 11.262L8.66782 9.788Z" fill="#A3AED0"/>
<path fill-rule="evenodd" clip-rule="evenodd" d="M16.5205 17.64L15.0505 16.171C14.0785 16.681 13.0485 17 12.0005 17C10.4745 17 8.98647 16.322 7.66047 15.368C6.34047 14.418 5.26447 13.256 4.58447 12.43C4.48447 12.309 4.41047 12.218 4.34847 12.139C4.31317 12.0941 4.2798 12.0477 4.24847 12C4.26714 11.97 4.30047 11.9237 4.34847 11.861C4.41047 11.781 4.48447 11.691 4.58447 11.57C5.24947 10.762 6.29447 9.632 7.57447 8.695L6.14447 7.265C4.79747 8.297 3.72347 9.47 3.04047 10.3L2.96747 10.388C2.65347 10.763 2.23047 11.271 2.23047 12.001C2.23047 12.731 2.65347 13.239 2.96747 13.614L3.04047 13.702C3.78047 14.601 4.98047 15.905 6.49147 16.992C7.99447 18.073 9.89147 19 12.0005 19C13.6705 19 15.2065 18.419 16.5205 17.64ZM8.80647 5.686C9.79047 5.269 10.8645 5 12.0005 5C14.1105 5 16.0065 5.927 17.5095 7.009C19.0195 8.096 20.2205 9.4 20.9595 10.299L21.0335 10.387C21.3475 10.762 21.7705 11.27 21.7705 12C21.7705 12.73 21.3475 13.238 21.0335 13.613L20.9605 13.701C20.3402 14.4558 19.6669 15.1652 18.9455 15.824L17.5295 14.408C18.2996 13.7122 19.0097 12.9529 19.6525 12.138C19.6877 12.0934 19.7211 12.0474 19.7525 12C19.7211 11.9523 19.6878 11.9059 19.6525 11.861C19.5751 11.763 19.4964 11.6659 19.4165 11.57C18.7365 10.744 17.6605 9.581 16.3415 8.632C15.0145 7.678 13.5265 7 12.0005 7C11.4495 7 10.9035 7.088 10.3685 7.246L8.80647 5.686Z" fill="#A3AED0"/>
<path d="M5 2L21 18" stroke="#A3AED0" stroke-width="2"/>
</svg>
