<svg width="24" height="25" viewBox="0 0 24 25" fill="none" xmlns="http://www.w3.org/2000/svg">
<g clip-path="url(#clip0_111_2004)">
<path d="M12 9.21936C14.21 9.21936 16 7.42936 16 5.21936C16 3.00936 14.21 1.21936 12 1.21936C9.79 1.21936 8 3.00936 8 5.21936C8 7.42936 9.79 9.21936 12 9.21936ZM12 3.21936C13.1 3.21936 14 4.11936 14 5.21936C14 6.31936 13.1 7.21936 12 7.21936C10.9 7.21936 10 6.31936 10 5.21936C10 4.11936 10.9 3.21936 12 3.21936ZM12 11.7694C9.64 9.56936 6.48 8.21936 3 8.21936V19.2194C6.48 19.2194 9.64 20.5694 12 22.7694C14.36 20.5794 17.52 19.2194 21 19.2194V8.21936C17.52 8.21936 14.36 9.56936 12 11.7694ZM19 17.3494C16.47 17.6894 14.07 18.6494 12 20.1694C9.94 18.6494 7.53 17.6794 5 17.3394V10.3894C7.1 10.7694 9.05 11.7394 10.64 13.2194L12 14.4994L13.36 13.2294C14.95 11.7494 16.9 10.7794 19 10.3994V17.3494Z" fill="#A3AED0"/>
</g>
<defs>
<clipPath id="clip0_111_2004">
<rect width="24" height="24" fill="white" transform="translate(0 0.21936)"/>
</clipPath>
</defs>
</svg>
