<svg width="24" height="25" viewBox="0 0 24 25" fill="none" xmlns="http://www.w3.org/2000/svg">
<g clip-path="url(#clip0_111_2008)">
<path d="M19.4298 13.1994C19.4698 12.8794 19.4998 12.5594 19.4998 12.2194C19.4998 11.8794 19.4698 11.5594 19.4298 11.2394L21.5398 9.58936C21.7298 9.43936 21.7798 9.16936 21.6598 8.94936L19.6598 5.48936C19.5698 5.32936 19.3998 5.23936 19.2198 5.23936C19.1598 5.23936 19.0998 5.24936 19.0498 5.26936L16.5598 6.26936C16.0398 5.86936 15.4798 5.53936 14.8698 5.28936L14.4898 2.63936C14.4598 2.39936 14.2498 2.21936 13.9998 2.21936H9.99984C9.74984 2.21936 9.53984 2.39936 9.50984 2.63936L9.12984 5.28936C8.51984 5.53936 7.95984 5.87936 7.43984 6.26936L4.94984 5.26936C4.88984 5.24936 4.82984 5.23936 4.76984 5.23936C4.59984 5.23936 4.42984 5.32936 4.33984 5.48936L2.33984 8.94936C2.20984 9.16936 2.26984 9.43936 2.45984 9.58936L4.56984 11.2394C4.52984 11.5594 4.49984 11.8894 4.49984 12.2194C4.49984 12.5494 4.52984 12.8794 4.56984 13.1994L2.45984 14.8494C2.26984 14.9994 2.21984 15.2694 2.33984 15.4894L4.33984 18.9494C4.42984 19.1094 4.59984 19.1994 4.77984 19.1994C4.83984 19.1994 4.89984 19.1894 4.94984 19.1694L7.43984 18.1694C7.95984 18.5694 8.51984 18.8994 9.12984 19.1494L9.50984 21.7994C9.53984 22.0394 9.74984 22.2194 9.99984 22.2194H13.9998C14.2498 22.2194 14.4598 22.0394 14.4898 21.7994L14.8698 19.1494C15.4798 18.8994 16.0398 18.5594 16.5598 18.1694L19.0498 19.1694C19.1098 19.1894 19.1698 19.1994 19.2298 19.1994C19.3998 19.1994 19.5698 19.1094 19.6598 18.9494L21.6598 15.4894C21.7798 15.2694 21.7298 14.9994 21.5398 14.8494L19.4298 13.1994ZM17.4498 11.4894C17.4898 11.7994 17.4998 12.0094 17.4998 12.2194C17.4998 12.4294 17.4798 12.6494 17.4498 12.9494L17.3098 14.0794L18.1998 14.7794L19.2798 15.6194L18.5798 16.8294L17.3098 16.3194L16.2698 15.8994L15.3698 16.5794C14.9398 16.8994 14.5298 17.1394 14.1198 17.3094L13.0598 17.7394L12.8998 18.8694L12.6998 20.2194H11.2998L11.1098 18.8694L10.9498 17.7394L9.88984 17.3094C9.45984 17.1294 9.05984 16.8994 8.65984 16.5994L7.74984 15.8994L6.68984 16.3294L5.41984 16.8394L4.71984 15.6294L5.79984 14.7894L6.68984 14.0894L6.54984 12.9594C6.51984 12.6494 6.49984 12.4194 6.49984 12.2194C6.49984 12.0194 6.51984 11.7894 6.54984 11.4894L6.68984 10.3594L5.79984 9.65936L4.71984 8.81936L5.41984 7.60936L6.68984 8.11936L7.72984 8.53936L8.62984 7.85936C9.05984 7.53936 9.46984 7.29936 9.87984 7.12936L10.9398 6.69936L11.0998 5.56936L11.2998 4.21936H12.6898L12.8798 5.56936L13.0398 6.69936L14.0998 7.12936C14.5298 7.30936 14.9298 7.53936 15.3298 7.83936L16.2398 8.53936L17.2998 8.10936L18.5698 7.59936L19.2698 8.80936L18.1998 9.65936L17.3098 10.3594L17.4498 11.4894ZM11.9998 8.21936C9.78984 8.21936 7.99984 10.0094 7.99984 12.2194C7.99984 14.4294 9.78984 16.2194 11.9998 16.2194C14.2098 16.2194 15.9998 14.4294 15.9998 12.2194C15.9998 10.0094 14.2098 8.21936 11.9998 8.21936ZM11.9998 14.2194C10.8998 14.2194 9.99984 13.3194 9.99984 12.2194C9.99984 11.1194 10.8998 10.2194 11.9998 10.2194C13.0998 10.2194 13.9998 11.1194 13.9998 12.2194C13.9998 13.3194 13.0998 14.2194 11.9998 14.2194Z" fill="url(#paint0_linear_111_2008)"/>
</g>
<defs>
<linearGradient id="paint0_linear_111_2008" x1="2.27051" y1="2.21936" x2="22.2629" y2="21.6662" gradientUnits="userSpaceOnUse">
<stop stop-color="#868CFF"/>
<stop offset="1" stop-color="#4318FF"/>
</linearGradient>
<clipPath id="clip0_111_2008">
<rect width="24" height="24" fill="white" transform="translate(0 0.21936)"/>
</clipPath>
</defs>
</svg>
