<svg width="25" height="26" viewBox="0 0 25 26" fill="none" xmlns="http://www.w3.org/2000/svg">
<path d="M12.2194 21.8485L12.2194 13C12.2194 12.7974 12.2998 12.6032 12.4431 12.46C12.5863 12.3167 12.7805 12.2363 12.9831 12.2363C13.1856 12.2363 13.3799 12.3167 13.5231 12.46C13.6663 12.6032 13.7468 12.7974 13.7468 13L13.7468 21.8485L15.4976 20.0967C15.6409 19.9534 15.8353 19.8729 16.0379 19.8729C16.2406 19.8729 16.4349 19.9534 16.5782 20.0967C16.7215 20.24 16.802 20.4344 16.802 20.637C16.802 20.8397 16.7215 21.0341 16.5782 21.1774L13.5234 24.2322C13.4525 24.3032 13.3683 24.3595 13.2755 24.398C13.1828 24.4364 13.0834 24.4562 12.9831 24.4562C12.8827 24.4562 12.7833 24.4364 12.6906 24.398C12.5979 24.3595 12.5137 24.3032 12.4428 24.2322L9.38794 21.1774C9.24463 21.0341 9.16413 20.8397 9.16413 20.637C9.16413 20.4344 9.24463 20.24 9.38794 20.0967C9.53124 19.9534 9.7256 19.8729 9.92826 19.8729C10.1309 19.8729 10.3253 19.9534 10.4686 20.0967L12.2194 21.8485ZM6.10973 13.4181L6.10973 16.0548C6.10973 16.4599 6.27065 16.8484 6.5571 17.1348C6.84354 17.4213 7.23204 17.5822 7.63714 17.5822L9.16455 17.5822C9.3671 17.5822 9.56135 17.5018 9.70458 17.3585C9.8478 17.2153 9.92826 17.0211 9.92826 16.8185C9.92826 16.616 9.8478 16.4217 9.70458 16.2785C9.56135 16.1353 9.3671 16.0548 9.16455 16.0548L7.63714 16.0548L7.63714 8.37955C8.09258 8.8448 8.70217 9.12783 9.35148 9.17552C10.0008 9.2232 10.6452 9.03226 11.1637 8.63854C11.6822 8.24481 12.0392 7.67538 12.1677 7.03711C12.2961 6.39885 12.1872 5.73564 11.8614 5.17198L11.8385 5.1357L9.71347 1.88995C9.60257 1.72044 9.42888 1.60193 9.23061 1.56048C9.03234 1.51904 8.82572 1.55805 8.65621 1.66895C8.4867 1.77985 8.36819 1.95354 8.32675 2.15181C8.2853 2.35008 8.32432 2.5567 8.43521 2.72621L10.5478 5.95191C10.6976 6.21637 10.7361 6.52948 10.655 6.82237C10.5739 7.11526 10.3798 7.36394 10.1154 7.51369C9.85092 7.66345 9.53781 7.70203 9.24492 7.62092C8.95202 7.53982 8.70335 7.3457 8.55359 7.08125C8.54691 7.06884 8.53927 7.05642 8.53163 7.04497L7.51208 5.48796C7.42196 5.35052 7.28991 5.24582 7.13554 5.18942C6.98117 5.13301 6.81272 5.12791 6.65522 5.17487C6.49772 5.22183 6.35957 5.31835 6.26129 5.45008C6.16302 5.58182 6.10987 5.74174 6.10973 5.90609L6.10973 11.4726C5.38989 10.8062 4.81497 9.99879 4.4208 9.10056C4.02663 8.20234 3.82164 7.23257 3.81861 6.25167L3.81861 2.30808C3.81861 2.10553 3.73815 1.91128 3.59492 1.76806C3.4517 1.62483 3.25745 1.54437 3.0549 1.54437C2.85235 1.54437 2.6581 1.62483 2.51488 1.76806C2.37165 1.91128 2.29119 2.10553 2.29119 2.30808L2.29119 6.25549C2.29551 7.67022 2.64571 9.06244 3.31126 10.3108C3.97681 11.5593 4.93753 12.626 6.10973 13.4181ZM16.8016 17.5822L18.329 17.5822C18.7341 17.5822 19.1226 17.4213 19.4091 17.1348C19.6955 16.8484 19.8564 16.4599 19.8564 16.0548L19.8564 6.12661C19.8564 5.92407 19.776 5.72981 19.6328 5.58659C19.4895 5.44337 19.2953 5.36291 19.0927 5.36291C18.8902 5.36291 18.6959 5.44337 18.5527 5.58659C18.4095 5.72981 18.329 5.92407 18.329 6.12661L18.329 16.0548L16.8016 16.0548C16.5991 16.0548 16.4048 16.1353 16.2616 16.2785C16.1184 16.4217 16.0379 16.616 16.0379 16.8185C16.0379 17.0211 16.1184 17.2153 16.2616 17.3585C16.4048 17.5018 16.5991 17.5822 16.8016 17.5822Z" fill="#A3AED0"/>
</svg>
