<svg width="228" height="64" viewBox="0 0 228 64" fill="none" xmlns="http://www.w3.org/2000/svg">
<path d="M31.9795 56.2373H32C33.4543 56.2373 34.859 56.332 36.1797 56.5996L36.2227 56.6074C37.1657 56.7715 38.1988 56.9764 39.2666 57.1885H39.2676C41.054 57.5428 42.9563 57.9208 44.5381 58.1152L44.5605 58.1182L44.583 58.1201C46.6628 58.3149 48.6477 58.1051 50.4316 57.5127C45.7829 60.3986 39.6618 61.9248 32 61.9248C24.3243 61.9248 18.1948 60.3932 13.543 57.4971C15.3333 58.0955 17.3265 58.3096 19.4131 58.1201L19.4316 58.1191L19.4502 58.1172C21.0531 57.9332 22.9801 57.5449 24.7764 57.1846C25.8314 56.9729 26.8484 56.769 27.7773 56.6074L27.8203 56.5996C29.1518 56.3298 30.5556 56.2187 31.9795 56.2373ZM57.5889 13.6895C60.4261 18.3231 61.9248 24.4049 61.9248 32C61.9248 39.6088 60.4195 45.6981 57.5723 50.335C58.036 48.8804 58.2461 47.2684 58.166 45.5332L58.165 45.5107L58.1631 45.4873L58.0928 44.6953C57.9039 42.8454 57.5535 40.9952 57.2178 39.2148C56.7462 36.716 56.302 34.344 56.2373 32.001C56.3028 29.634 56.749 27.2378 57.2227 24.7158C57.6005 22.7045 57.9962 20.6069 58.1621 18.5225L58.1641 18.499L58.165 18.4746C58.2495 16.7455 58.0462 15.1391 57.5889 13.6895ZM6.43457 13.6514C5.96525 15.1094 5.75361 16.7278 5.83398 18.4707L5.83496 18.4932L5.83691 18.5156C5.99594 20.628 6.39831 22.7534 6.78223 24.7881C7.25359 27.2865 7.69756 29.6585 7.7627 32.001C7.69708 34.3688 7.2511 36.7657 6.77734 39.2881C6.3995 41.2993 6.00402 43.3963 5.83789 45.4805L5.83398 45.5293C5.74959 47.2583 5.95457 48.8643 6.41309 50.3135C3.57462 45.6794 2.0752 39.5967 2.0752 32C2.0752 24.3841 3.58214 18.2898 6.43457 13.6514ZM32 2.0752C39.6721 2.0752 45.7992 3.6056 50.4502 6.49902C48.6677 5.90639 46.684 5.69412 44.6064 5.88281L44.5879 5.88477L44.5703 5.88672C42.9675 6.07049 41.0398 6.4579 39.2432 6.81836C38.1883 7.03 37.1711 7.23377 36.2422 7.39551L36.2217 7.39941L36.2002 7.4043C34.8681 7.67402 33.4641 7.78507 32.04 7.7666H32.0195C30.5656 7.7666 29.1602 7.67185 27.8389 7.4043L27.8184 7.39941L27.7969 7.39551L26.3213 7.12305C25.8119 7.02489 25.2868 6.92132 24.7529 6.81543C22.9668 6.46107 21.0641 6.08202 19.4824 5.8877L19.457 5.88477L19.4326 5.88281L19.0752 5.85449C17.0977 5.71784 15.2109 5.94613 13.5088 6.52344C18.1647 3.61366 24.3057 2.0752 32 2.0752Z" fill="url(#paint0_linear_111_2029)" stroke="url(#paint1_linear_111_2029)" stroke-width="3.15"/>
<mask id="path-2-inside-1_111_2029" fill="white">
<path d="M205.688 20.4281C205.688 17.1658 208.127 14.9375 211.163 14.9375C214.185 14.9375 216.625 17.1658 216.625 20.4281C216.625 23.6612 214.185 25.875 211.163 25.875C208.127 25.875 205.688 23.6612 205.688 20.4281ZM206.813 20.4281C206.813 23.0641 208.71 24.8702 211.163 24.8702C213.66 24.8702 215.515 23.0641 215.515 20.4281C215.515 17.7483 213.66 15.957 211.163 15.957C208.71 15.957 206.813 17.7483 206.813 20.4281ZM212.464 23.1224L211.267 20.9524H210.229V23.1224H208.928V17.3114H210.871C212.551 17.3114 213.587 17.6318 213.587 19.1465C213.587 19.8892 213.237 20.399 212.537 20.7048L213.909 23.1224H212.464ZM212.289 19.161C212.289 18.5785 211.835 18.3455 211.119 18.3455H210.229V19.9475H211.163C211.98 19.9475 212.289 19.6708 212.289 19.161Z"/>
</mask>
<path d="M205.688 20.4281C205.688 17.1658 208.127 14.9375 211.163 14.9375C214.185 14.9375 216.625 17.1658 216.625 20.4281C216.625 23.6612 214.185 25.875 211.163 25.875C208.127 25.875 205.688 23.6612 205.688 20.4281ZM206.813 20.4281C206.813 23.0641 208.71 24.8702 211.163 24.8702C213.66 24.8702 215.515 23.0641 215.515 20.4281C215.515 17.7483 213.66 15.957 211.163 15.957C208.71 15.957 206.813 17.7483 206.813 20.4281ZM212.464 23.1224L211.267 20.9524H210.229V23.1224H208.928V17.3114H210.871C212.551 17.3114 213.587 17.6318 213.587 19.1465C213.587 19.8892 213.237 20.399 212.537 20.7048L213.909 23.1224H212.464ZM212.289 19.161C212.289 18.5785 211.835 18.3455 211.119 18.3455H210.229V19.9475H211.163C211.98 19.9475 212.289 19.6708 212.289 19.161Z" fill="url(#paint2_linear_111_2029)"/>
<path d="M212.464 23.1224L210.931 23.9677L211.43 24.8724H212.464V23.1224ZM211.267 20.9524L212.799 20.1071L212.3 19.2024H211.267V20.9524ZM210.229 20.9524V19.2024H208.479V20.9524H210.229ZM210.229 23.1224V24.8724H211.979V23.1224H210.229ZM208.928 23.1224H207.178V24.8724H208.928V23.1224ZM208.928 17.3114V15.5614H207.178V17.3114H208.928ZM212.537 20.7048L211.836 19.1012L210.056 19.879L211.015 21.5686L212.537 20.7048ZM213.909 23.1224V24.8724H216.914L215.431 22.2587L213.909 23.1224ZM210.229 18.3455V16.5955H208.479V18.3455H210.229ZM210.229 19.9475H208.479V21.6975H210.229V19.9475ZM205.688 20.4281H207.438C207.438 18.1735 209.052 16.6875 211.163 16.6875V14.9375V13.1875C207.202 13.1875 203.938 16.1581 203.938 20.4281H205.688ZM211.163 14.9375V16.6875C213.258 16.6875 214.875 18.1706 214.875 20.4281H216.625H218.375C218.375 16.161 215.113 13.1875 211.163 13.1875V14.9375ZM216.625 20.4281H214.875C214.875 22.6441 213.27 24.125 211.163 24.125V25.875V27.625C215.101 27.625 218.375 24.6784 218.375 20.4281H216.625ZM211.163 25.875V24.125C209.039 24.125 207.438 22.6413 207.438 20.4281H205.688H203.938C203.938 24.6812 207.215 27.625 211.163 27.625V25.875ZM206.813 20.4281H205.063C205.063 24.0305 207.743 26.6202 211.163 26.6202V24.8702V23.1202C209.676 23.1202 208.563 22.0978 208.563 20.4281H206.813ZM211.163 24.8702V26.6202C214.638 26.6202 217.265 24.0198 217.265 20.4281H215.515H213.765C213.765 22.1085 212.683 23.1202 211.163 23.1202V24.8702ZM215.515 20.4281H217.265C217.265 18.6729 216.651 17.0976 215.519 15.9557C214.388 14.8153 212.841 14.207 211.163 14.207V15.957V17.707C211.983 17.707 212.611 17.9944 213.033 18.4196C213.453 18.8433 213.765 19.5035 213.765 20.4281H215.515ZM211.163 15.957V14.207C207.739 14.207 205.063 16.7858 205.063 20.4281H206.813H208.563C208.563 18.7109 209.68 17.707 211.163 17.707V15.957ZM212.464 23.1224L213.996 22.2772L212.799 20.1071L211.267 20.9524L209.734 21.7976L210.931 23.9677L212.464 23.1224ZM211.267 20.9524V19.2024H210.229V20.9524V22.7024H211.267V20.9524ZM210.229 20.9524H208.479V23.1224H210.229H211.979V20.9524H210.229ZM210.229 23.1224V21.3724H208.928V23.1224V24.8724H210.229V23.1224ZM208.928 23.1224H210.678V17.3114H208.928H207.178V23.1224H208.928ZM208.928 17.3114V19.0614H210.871V17.3114V15.5614H208.928V17.3114ZM210.871 17.3114V19.0614C211.245 19.0614 211.521 19.0799 211.726 19.1129C211.934 19.1463 211.997 19.1842 211.987 19.1784C211.953 19.1586 211.882 19.0994 211.838 19.0129C211.805 18.9465 211.837 18.961 211.837 19.1465H213.587H215.337C215.337 18.5746 215.24 17.9811 214.959 17.4286C214.669 16.856 214.234 16.4327 213.731 16.1435C212.825 15.6234 211.727 15.5614 210.871 15.5614V17.3114ZM213.587 19.1465H211.837C211.837 19.1948 211.831 19.2059 211.836 19.1906C211.838 19.1831 211.842 19.1708 211.849 19.1555C211.856 19.14 211.865 19.124 211.875 19.1085C211.886 19.0929 211.896 19.0804 211.905 19.0711C211.914 19.0619 211.919 19.0574 211.92 19.057C211.92 19.0566 211.898 19.0744 211.836 19.1012L212.537 20.7048L213.238 22.3084C213.818 22.055 214.373 21.6626 214.774 21.0705C215.179 20.4724 215.337 19.8019 215.337 19.1465H213.587ZM212.537 20.7048L211.015 21.5686L212.387 23.9862L213.909 23.1224L215.431 22.2587L214.059 19.8411L212.537 20.7048ZM213.909 23.1224V21.3724H212.464V23.1224V24.8724H213.909V23.1224ZM212.289 19.161H214.039C214.039 18.333 213.67 17.5484 212.922 17.0651C212.304 16.6657 211.612 16.5955 211.119 16.5955V18.3455V20.0955C211.209 20.0955 211.242 20.1032 211.234 20.1014C211.227 20.0999 211.141 20.0811 211.022 20.0045C210.892 19.9204 210.751 19.7836 210.652 19.5919C210.556 19.4058 210.539 19.2446 210.539 19.161H212.289ZM211.119 18.3455V16.5955H210.229V18.3455V20.0955H211.119V18.3455ZM210.229 18.3455H208.479V19.9475H210.229H211.979V18.3455H210.229ZM210.229 19.9475V21.6975H211.163V19.9475V18.1975H210.229V19.9475ZM211.163 19.9475V21.6975C211.704 21.6975 212.444 21.6186 213.075 21.1509C213.823 20.596 214.039 19.795 214.039 19.161H212.289H210.539C210.539 19.1174 210.545 18.9844 210.618 18.8123C210.698 18.6246 210.83 18.4587 210.99 18.3399C211.136 18.2311 211.256 18.1992 211.282 18.193C211.307 18.1872 211.276 18.1975 211.163 18.1975V19.9475Z" fill="url(#paint3_linear_111_2029)" mask="url(#path-2-inside-1_111_2029)"/>
<path d="M77.7662 40.9247V23.3713C77.7662 23.0047 77.8931 22.6898 78.1469 22.4266C78.4006 22.1635 78.7108 22.0319 79.0774 22.0319H83.2225C83.5515 22.0319 83.8993 22.1635 84.2659 22.4266C84.6324 22.6898 84.9332 23.0047 85.1682 23.3713L93.6841 36.4694V23.3431C93.6841 22.9765 93.811 22.6663 94.0648 22.4125C94.3279 22.1588 94.6428 22.0319 95.0094 22.0319H97.4344C97.801 22.0319 98.1112 22.1588 98.365 22.4125C98.6282 22.6663 98.7598 22.9859 98.7598 23.3713V40.9247C98.7598 41.2913 98.6282 41.6061 98.365 41.8693C98.1112 42.1231 97.801 42.25 97.4344 42.25H92.7535C92.387 42.25 92.011 42.1231 91.6256 41.8693C91.2402 41.6061 90.9348 41.2913 90.7092 40.9247L82.9124 28.8276V40.9247C82.9124 41.2913 82.7808 41.6061 82.5176 41.8693C82.2638 42.1231 81.9536 42.25 81.587 42.25H79.1056C78.739 42.25 78.4241 42.1231 78.1609 41.8693C77.8978 41.6061 77.7662 41.2913 77.7662 40.9247ZM105.571 40.4735C104.124 39.1012 103.4 37.1273 103.4 34.5519C103.4 31.967 104.129 29.9838 105.585 28.6021C107.042 27.2109 109.063 26.5154 111.648 26.5154C114.233 26.5154 116.249 27.1921 117.697 28.5457C119.144 29.8898 119.868 31.8214 119.868 34.3404V35.144C119.868 35.3978 119.783 35.6093 119.614 35.7785C119.454 35.9383 119.247 36.0182 118.994 36.0182H108.377C108.471 37.1743 108.8 38.0156 109.364 38.5419C109.937 39.0683 110.849 39.3315 112.099 39.3315C113.349 39.3315 114.205 39.0495 114.665 38.4855C115.126 37.9216 115.695 37.6349 116.371 37.6255H118.472C118.726 37.6255 118.933 37.7101 119.092 37.8793C119.262 38.0391 119.346 38.2458 119.346 38.4996C119.346 41.1973 116.775 42.5414 111.634 42.532C109.04 42.532 107.019 41.8458 105.571 40.4735ZM108.349 33.0433H114.905C114.811 30.825 113.721 29.7159 111.634 29.7159C109.557 29.7159 108.462 30.825 108.349 33.0433ZM124.212 35.7503V27.6715C124.212 27.4177 124.292 27.2109 124.452 27.0511C124.621 26.882 124.828 26.7974 125.072 26.7974H128.23C128.475 26.7974 128.677 26.882 128.837 27.0511C129.006 27.2109 129.09 27.4177 129.09 27.6715V35.7503C129.09 38.0062 129.983 39.1341 131.769 39.1341C132.944 39.1341 134.208 38.4573 135.562 37.1038V27.6715C135.562 27.4177 135.642 27.2109 135.802 27.0511C135.971 26.882 136.178 26.7974 136.422 26.7974H139.566C139.82 26.7974 140.027 26.882 140.186 27.0511C140.356 27.2109 140.44 27.4177 140.44 27.6715V41.39C140.44 41.6343 140.356 41.8411 140.186 42.0103C140.027 42.1701 139.82 42.25 139.566 42.25H136.422C136.178 42.25 135.971 42.1701 135.802 42.0103C135.642 41.8411 135.562 41.6343 135.562 41.39V40.4876C133.945 41.8505 132.22 42.532 130.388 42.532C128.564 42.532 127.079 41.9774 125.932 40.8683C124.785 39.7498 124.212 38.0438 124.212 35.7503ZM153.032 39.1905L154.964 39.0213H155.486C155.739 39.0213 155.946 39.1012 156.106 39.261C156.275 39.4208 156.36 39.6276 156.36 39.8813V41.39C156.36 41.5967 156.275 41.7847 156.106 41.9539C155.946 42.1137 155.739 42.2124 155.486 42.25C154.527 42.438 153.277 42.532 151.735 42.532C147.694 42.532 145.673 40.4171 145.673 36.1874V22.906C145.673 22.6522 145.753 22.4454 145.912 22.2856C146.082 22.1165 146.288 22.0319 146.533 22.0319H149.691C149.935 22.0319 150.137 22.1165 150.297 22.2856C150.466 22.4454 150.551 22.6522 150.551 22.906V27.6151H154.485C154.729 27.6151 154.931 27.695 155.091 27.8548C155.26 28.0146 155.345 28.2214 155.345 28.4752V30.153C155.345 30.4067 155.26 30.6135 155.091 30.7733C154.931 30.9331 154.729 31.013 154.485 31.013H150.551V36.1874C150.551 37.1461 150.777 37.8887 151.228 38.415C151.679 38.932 152.28 39.1905 153.032 39.1905ZM163.143 43.7163L164.99 43.956C166.315 43.956 167.241 42.9832 167.768 41.0375C166.17 41.0375 164.835 40.5581 163.764 39.5994C162.692 38.6312 161.771 36.9158 161 34.4532L158.899 27.6433C158.871 27.5681 158.857 27.4835 158.857 27.3895C158.857 27.2861 158.913 27.1639 159.026 27.0229C159.148 26.882 159.327 26.8068 159.562 26.7974H162.509C162.781 26.7974 163.04 26.8914 163.284 27.0793C163.538 27.2579 163.702 27.4835 163.778 27.7561L165.625 33.7341C166.085 35.2004 166.55 36.2156 167.02 36.7795C167.5 37.3435 168.064 37.6255 168.712 37.6255L171.518 27.7561C171.593 27.4835 171.739 27.2579 171.955 27.0793C172.181 26.8914 172.43 26.7974 172.702 26.7974H175.677C175.912 26.7974 176.086 26.8726 176.199 27.0229C176.312 27.1733 176.368 27.3002 176.368 27.4036C176.368 27.4976 176.359 27.5775 176.34 27.6433L172.646 40.8119C171.988 43.1429 171.17 44.8066 170.193 45.803C169.225 46.7993 167.974 47.2975 166.442 47.2975C164.91 47.2975 163.825 47.2411 163.185 47.1283C162.556 47.0155 162.161 46.8745 162.001 46.7053C161.841 46.5455 161.761 46.3575 161.761 46.1414V44.5905C161.761 44.3367 161.841 44.1252 162.001 43.956C162.161 43.7962 162.368 43.7163 162.622 43.7163H163.143ZM179.26 31.0694C179.26 28.0334 181.709 26.5154 186.606 26.5154C191.757 26.5154 194.332 27.8642 194.332 30.5618C194.332 30.8062 194.252 31.013 194.092 31.1822C193.933 31.342 193.726 31.4219 193.472 31.4219H191.371C190.695 31.4219 190.126 31.1399 189.665 30.5759C189.205 30.0026 188.298 29.7159 186.944 29.7159C185.083 29.7159 184.153 30.1671 184.153 31.0694C184.153 31.4924 184.514 31.8448 185.238 32.1268C185.971 32.4088 186.86 32.6579 187.903 32.8741C188.956 33.0809 190.004 33.3488 191.047 33.6777C192.09 34.0067 192.974 34.5331 193.698 35.2568C194.431 35.9712 194.797 36.8782 194.797 37.978C194.797 41.014 192.213 42.532 187.043 42.532C181.873 42.532 179.288 41.1879 179.288 38.4996C179.288 38.2458 179.368 38.0391 179.528 37.8793C179.697 37.7101 179.909 37.6255 180.163 37.6255H182.263C182.94 37.6255 183.509 37.9122 183.969 38.4855C184.43 39.0495 185.337 39.3315 186.69 39.3315C188.843 39.3315 189.919 38.8803 189.919 37.978C189.919 37.555 189.553 37.2025 188.819 36.9205C188.096 36.6385 187.207 36.3895 186.155 36.1733C185.102 35.9477 184.054 35.6751 183.011 35.3555C181.977 35.0266 181.093 34.5002 180.36 33.7764C179.627 33.0527 179.26 32.1503 179.26 31.0694Z" fill="url(#paint4_linear_111_2029)"/>
<path d="M19.405 24.122V46.6522L14.5336 41.9331C14.5083 37.1631 14.4727 26.8926 14.5336 23.9698C14.5945 21.0469 16.5316 19.0032 17.3499 18.185C17.5783 17.9566 19.1322 16.4369 21.8407 16.2821C24.8854 16.1081 26.5599 16.6627 27.5494 17.4238L38.2056 27.6233V34.3215L25.1898 21.9146C24.9107 21.5594 23.8502 20.9251 21.8407 21.2296C19.8313 21.5341 19.3797 23.2847 19.405 24.122Z" fill="url(#paint5_linear_111_2029)" stroke="url(#paint6_linear_111_2029)" stroke-width="1.75"/>
<path d="M43.761 39.878L43.761 17.3478L48.6324 22.0669C48.6578 26.8369 48.6933 37.1074 48.6324 40.0302C48.5715 42.9531 46.6344 44.9968 45.8161 45.815C45.5878 46.0434 44.0338 47.5631 41.3253 47.7179C38.2807 47.8919 36.6061 47.3373 35.6166 46.5762L24.9604 36.3767L24.9604 29.6785L37.9762 42.0854C38.2553 42.4406 39.3158 43.0749 41.3253 42.7704C43.3347 42.4659 43.7864 40.7153 43.761 39.878Z" fill="url(#paint7_linear_111_2029)" stroke="url(#paint8_linear_111_2029)" stroke-width="1.75"/>
<defs>
<linearGradient id="paint0_linear_111_2029" x1="0.5" y1="0.5" x2="63.5" y2="63.5" gradientUnits="userSpaceOnUse">
<stop stop-color="#868CFF"/>
<stop offset="1" stop-color="#4318FF"/>
</linearGradient>
<linearGradient id="paint1_linear_111_2029" x1="0.5" y1="0.5" x2="63.5" y2="63.5" gradientUnits="userSpaceOnUse">
<stop stop-color="#868CFF"/>
<stop offset="1" stop-color="#4318FF"/>
</linearGradient>
<linearGradient id="paint2_linear_111_2029" x1="205.688" y1="14.9375" x2="216.625" y2="25.875" gradientUnits="userSpaceOnUse">
<stop stop-color="#868CFF"/>
<stop offset="1" stop-color="#4318FF"/>
</linearGradient>
<linearGradient id="paint3_linear_111_2029" x1="205.688" y1="14.9375" x2="216.625" y2="25.875" gradientUnits="userSpaceOnUse">
<stop stop-color="#868CFF"/>
<stop offset="1" stop-color="#4318FF"/>
</linearGradient>
<linearGradient id="paint4_linear_111_2029" x1="75.75" y1="9.25" x2="104.566" y2="88.8137" gradientUnits="userSpaceOnUse">
<stop stop-color="#868CFF"/>
<stop offset="1" stop-color="#4318FF"/>
</linearGradient>
<linearGradient id="paint5_linear_111_2029" x1="14.5" y1="16.25" x2="43.9849" y2="39.2403" gradientUnits="userSpaceOnUse">
<stop stop-color="#868CFF"/>
<stop offset="1" stop-color="#4318FF"/>
</linearGradient>
<linearGradient id="paint6_linear_111_2029" x1="14.5" y1="16.25" x2="43.9849" y2="39.2403" gradientUnits="userSpaceOnUse">
<stop stop-color="#868CFF"/>
<stop offset="1" stop-color="#4318FF"/>
</linearGradient>
<linearGradient id="paint7_linear_111_2029" x1="48.666" y1="47.75" x2="19.1811" y2="24.7597" gradientUnits="userSpaceOnUse">
<stop stop-color="#868CFF"/>
<stop offset="1" stop-color="#4318FF"/>
</linearGradient>
<linearGradient id="paint8_linear_111_2029" x1="48.666" y1="47.75" x2="19.1811" y2="24.7597" gradientUnits="userSpaceOnUse">
<stop stop-color="#868CFF"/>
<stop offset="1" stop-color="#4318FF"/>
</linearGradient>
</defs>
</svg>
